<svg width="93" height="66" viewBox="0 0 93 66" fill="none" xmlns="http://www.w3.org/2000/svg">
<rect x="0.472534" width="91.978" height="66" rx="5" fill="#F1F1F1"/>
<path d="M35.3587 36.3143L33.6709 42.6913C33.6373 42.866 33.5623 42.9333 33.3547 42.9333H30.2281C30.0205 42.9333 29.9869 42.858 30.0205 42.616L36.0661 21.3887C36.1667 21.004 36.2402 20.6963 36.2737 19.6354C36.2737 19.4927 36.3408 19.419 36.4478 19.419H40.9141C41.0562 19.419 41.1217 19.4607 41.1552 19.6354L47.9338 42.6481C47.9674 42.8227 47.9338 42.9237 47.7598 42.9237H44.2499C44.0759 42.9237 43.9673 42.866 43.9338 42.7234L42.1788 36.3047H35.3587V36.3143ZM41.3293 32.8413C40.7305 30.479 39.2838 25.296 38.76 22.799H38.7265C38.2698 25.2944 37.1216 29.527 36.2402 32.8413H41.3293ZM52.7403 35.029C52.7818 37.925 54.1455 39.8626 57.3807 39.8626C58.6454 39.8626 59.7265 39.6959 60.8491 39.1943C60.9912 39.127 61.0982 39.1687 61.0982 39.345V42.0246C61.0982 42.233 61.0311 42.3419 60.8826 42.4509C59.76 43.0103 58.3628 43.2603 56.6079 43.2603C50.9854 43.2603 48.8808 39.103 48.8808 34.4456C48.8808 29.4036 51.4756 25.28 56.0506 25.28C60.683 25.28 62.2958 29.1953 62.2958 32.3669C62.2958 33.3943 62.2208 34.2373 62.1218 34.6283C62.0802 34.803 62.0132 34.8623 61.8391 34.896C61.4144 34.9713 60.1513 35.0386 58.2878 35.0386H52.7403V35.029ZM57.0662 32.0897C58.1552 32.0897 58.5385 32.0897 58.647 32.056C58.647 31.9134 58.6806 31.7884 58.6806 31.689C58.6806 30.5207 58.1153 28.3827 55.9021 28.3827C53.8645 28.3827 52.983 30.1857 52.7755 32.0897H57.0662Z" fill="#111111"/>
<rect x="21.9121" y="9" width="49.0989" height="47" rx="7" stroke="#111111" stroke-width="2"/>
</svg>
