<svg width="14" height="12" viewBox="0 0 14 12" fill="none" xmlns="http://www.w3.org/2000/svg">
<path d="M4.66025 10.2502C4.58393 10.1833 4.5412 10.0934 4.5412 9.99975C4.5412 9.90613 4.58393 9.81622 4.66025 9.74925L8.92412 6L4.66025 2.2515C4.58393 2.18453 4.5412 2.09462 4.5412 2.001C4.5412 1.90738 4.58393 1.81747 4.66025 1.7505C4.69734 1.71784 4.7417 1.69188 4.79069 1.67416C4.83968 1.65644 4.89232 1.64731 4.94549 1.64731C4.99867 1.64731 5.05131 1.65644 5.1003 1.67416C5.1493 1.69188 5.19365 1.71784 5.23075 1.7505L9.76499 5.73825C9.84463 5.80828 9.8892 5.9022 9.8892 6C9.8892 6.09779 9.84463 6.19172 9.76499 6.26175L5.23075 10.2495C5.19365 10.2822 5.1493 10.3081 5.1003 10.3258C5.05131 10.3436 4.99867 10.3527 4.94549 10.3527C4.89232 10.3527 4.83968 10.3436 4.79069 10.3258C4.7417 10.3081 4.69734 10.2822 4.66025 10.2495V10.2502Z" fill="#04FF5A"/>
</svg>
