<svg width="24" height="24" viewBox="0 0 24 24" fill="none" xmlns="http://www.w3.org/2000/svg">
<path d="M15 7.5C15 7.30109 15.079 7.11032 15.2197 6.96967C15.3603 6.82902 15.5511 6.75 15.75 6.75H21.75C21.9489 6.75 22.1397 6.82902 22.2803 6.96967C22.421 7.11032 22.5 7.30109 22.5 7.5C22.5 7.69891 22.421 7.88968 22.2803 8.03033C22.1397 8.17098 21.9489 8.25 21.75 8.25H15.75C15.5511 8.25 15.3603 8.17098 15.2197 8.03033C15.079 7.88968 15 7.69891 15 7.5ZM12.75 14.8125C12.75 15.8568 12.3352 16.8583 11.5967 17.5967C10.8583 18.3352 9.85679 18.75 8.8125 18.75H3C2.80109 18.75 2.61032 18.671 2.46967 18.5303C2.32902 18.3897 2.25 18.1989 2.25 18V6C2.25 5.80109 2.32902 5.61032 2.46967 5.46967C2.61032 5.32902 2.80109 5.25 3 5.25H8.4375C9.15482 5.25076 9.8552 5.46805 10.447 5.87344C11.0388 6.27882 11.4944 6.85341 11.7543 7.52201C12.0141 8.19062 12.0661 8.92209 11.9033 9.62071C11.7406 10.3193 11.3707 10.9525 10.8422 11.4375C11.4243 11.7877 11.9059 12.2825 12.2403 12.8739C12.5746 13.4653 12.7502 14.1332 12.75 14.8125ZM3.75 10.875H8.4375C8.98451 10.875 9.50911 10.6577 9.89591 10.2709C10.2827 9.88411 10.5 9.35951 10.5 8.8125C10.5 8.26549 10.2827 7.74089 9.89591 7.35409C9.50911 6.9673 8.98451 6.75 8.4375 6.75H3.75V10.875ZM11.25 14.8125C11.25 14.4924 11.187 14.1754 11.0645 13.8797C10.942 13.584 10.7624 13.3153 10.5361 13.0889C10.3097 12.8626 10.041 12.683 9.74529 12.5605C9.44956 12.438 9.1326 12.375 8.8125 12.375H3.75V17.25H8.8125C9.1326 17.25 9.44956 17.187 9.74529 17.0645C10.041 16.942 10.3097 16.7624 10.5361 16.5361C10.7624 16.3097 10.942 16.041 11.0645 15.7453C11.187 15.4496 11.25 15.1326 11.25 14.8125ZM23.25 14.25C23.25 14.4489 23.171 14.6397 23.0303 14.7803C22.8897 14.921 22.6989 15 22.5 15H15.8437C15.9849 15.5473 16.2778 16.0435 16.6887 16.4316C17.0996 16.8196 17.6118 17.0838 18.1662 17.1935C18.7206 17.3032 19.2948 17.2541 19.8225 17.0518C20.3502 16.8495 20.8101 16.5022 21.1491 16.05C21.2082 15.9712 21.2823 15.9048 21.3671 15.8547C21.4519 15.8045 21.5458 15.7716 21.6433 15.7577C21.7409 15.7438 21.8402 15.7493 21.9356 15.7738C22.0311 15.7983 22.1207 15.8413 22.1995 15.9005C22.2783 15.9596 22.3447 16.0337 22.3948 16.1185C22.445 16.2033 22.478 16.2972 22.4919 16.3947C22.5057 16.4923 22.5003 16.5916 22.4758 16.687C22.4513 16.7825 22.4082 16.8721 22.3491 16.9509C21.7077 17.8055 20.7832 18.404 19.7409 18.6392C18.6987 18.8745 17.6067 18.7313 16.6604 18.2351C15.7141 17.739 14.9752 16.9223 14.576 15.9312C14.1767 14.9401 14.1431 13.8393 14.4812 12.8258C14.8193 11.8122 15.507 10.952 16.4213 10.3991C17.3356 9.84616 18.4168 9.6366 19.4714 9.80789C20.5261 9.97919 21.4854 10.5202 22.1777 11.334C22.87 12.1479 23.2501 13.1815 23.25 14.25ZM21.6562 13.5C21.491 12.8547 21.1157 12.2827 20.5895 11.8743C20.0633 11.4658 19.4161 11.2441 18.75 11.2441C18.0839 11.2441 17.4367 11.4658 16.9105 11.8743C16.3843 12.2827 16.009 12.8547 15.8437 13.5H21.6562Z" fill="#9BA1A7"/>
</svg>
