<svg width="163" height="44" viewBox="0 0 163 44" fill="none" xmlns="http://www.w3.org/2000/svg">
<path d="M123.867 34.7091C124.307 35.138 124.732 35.534 125.136 35.9513C126.486 37.3447 128.076 37.8426 129.957 37.394C131.561 37.0112 132.391 35.8002 133.002 34.3985C133.289 33.7413 133.385 32.9969 133.61 32.1293C133.066 32.4958 132.701 32.803 132.287 33.0084C129.619 34.3312 125.328 33.4307 124.154 29.0139C123.938 28.2022 123.782 27.3576 123.729 26.5196C123.566 23.9349 123.712 21.3699 124.555 18.9018C125.447 16.2909 127 14.2303 129.322 12.74C131.546 11.3121 134.003 11.1675 136.49 11.1165C138.919 11.0672 141.35 11.1001 143.78 11.1034C143.984 11.1034 144.186 11.151 144.425 11.1806C144.308 12.0153 144.226 12.8008 144.083 13.5714C143.319 17.681 142.528 21.7872 141.765 25.8968C141.377 27.9918 141.079 30.1066 140.644 32.1901C140.192 34.3509 139.69 36.5084 138.608 38.4621C136.773 41.7714 133.881 43.2092 130.291 43.408C128.346 43.5148 126.457 43.196 124.629 42.5223C123.978 42.2824 122.62 41.5627 121.963 40.6048C122.581 38.6888 123.221 36.7105 123.867 34.7091ZM136.459 16.7345C135.54 16.3779 134.978 16.47 134.038 17.073C131.444 18.7375 130.14 23.1659 131.253 26.2961C131.668 27.466 132.675 28.212 134.319 27.3099C135.029 23.8051 135.746 20.2607 136.459 16.7345Z" fill="white"/>
<path d="M36.9887 33.061C34.5386 33.061 32.1447 33.061 29.7139 33.061C29.7139 32.8375 29.6867 32.6519 29.7187 32.4777C30.4066 28.6573 31.1233 24.8435 31.7807 21.0182C31.9908 19.7957 32.3419 18.5453 31.8048 17.3047C30.87 16.4815 29.2938 16.9547 29.0485 18.1969C28.5787 20.5828 28.1923 22.9851 27.7625 25.3792C27.3184 27.8538 26.8662 30.3284 26.4125 32.8014C26.398 32.8753 26.3371 32.9411 26.2762 33.0462C23.8999 33.0462 21.5108 33.0462 18.9902 33.0462C20.8389 22.7025 22.6733 12.4376 24.5252 2.0709C27.0137 1.53851 29.5055 1.00449 32.2073 0.427734C31.4841 4.52743 30.793 8.43817 30.0731 12.5132C30.5445 12.1649 30.886 11.8937 31.2452 11.6506C32.9528 10.5036 34.7792 10.1093 36.7177 10.9226C38.5488 11.6933 39.4708 13.1902 39.6279 15.1768C39.8171 17.5758 39.3922 19.914 38.9417 22.2572C38.2762 25.7193 37.7086 29.1996 37.0961 32.6732C37.0785 32.7784 37.04 32.8803 36.9887 33.061Z" fill="white"/>
<path d="M108.988 33.0429C106.52 33.0429 104.107 33.0429 101.601 33.0429C102.885 25.8245 104.155 18.68 105.436 11.4731C107.857 11.0869 110.217 10.7107 112.664 10.3212C112.664 11.0672 112.664 11.713 112.664 12.528C112.972 12.3062 113.161 12.1846 113.333 12.0416C114.704 10.9062 116.253 10.3886 118.021 10.548C119.91 10.7172 121.825 12.3703 122.094 14.3536C122.362 16.3286 122.27 18.3021 121.948 20.2427C121.287 24.206 120.518 28.1512 119.79 32.103C119.735 32.3972 119.663 32.688 119.586 33.038C117.179 33.038 114.792 33.038 112.305 33.038C112.459 32.0044 112.586 30.9873 112.764 29.9801C113.392 26.4259 114.062 22.8799 114.654 19.3209C114.752 18.7342 114.59 18.0819 114.458 17.4805C114.353 17.0007 113.942 16.8068 113.472 16.8002C112.717 16.7904 111.805 17.5117 111.668 18.2659C110.851 22.7846 110.046 27.305 109.234 31.8237C109.164 32.223 109.074 32.619 108.988 33.0429Z" fill="white"/>
<path d="M61.9076 11.2102C60.5784 18.4861 59.2555 25.7325 57.9215 33.0347C55.5532 33.0347 53.2491 33.0347 50.9001 33.0347C50.9001 32.7636 50.9001 32.5286 50.9001 32.2016C49.0529 33.7791 47.0678 33.8579 44.9738 33.0889C43.7038 32.6223 42.8172 31.7054 42.1902 30.5207C41.6114 29.4263 41.3051 28.2449 41.2121 26.9961C40.9828 23.9595 41.1464 20.9607 42.28 18.1164C43.3848 15.3477 45.3057 13.3085 47.9818 12.0761C49.1844 11.5224 50.4719 11.2414 51.79 11.2184C54.9952 11.1609 58.2021 11.1379 61.4073 11.1067C61.534 11.105 61.6607 11.1576 61.9076 11.2102ZM51.7451 27.3395C52.465 23.7886 53.1849 20.2427 53.9097 16.6704C52.5564 16.2169 51.6152 16.8561 50.7798 17.635C49.3624 18.9577 48.6777 20.7028 48.3378 22.594C48.1005 23.9135 48.2031 25.2116 48.7579 26.4489C49.3415 27.7519 50.3661 28.0855 51.7451 27.3395Z" fill="white"/>
<path d="M18.1195 24.8698C17.6177 27.3477 17.143 29.6991 16.638 32.1951C16.2932 32.4054 15.8956 32.7718 15.4322 32.9115C12.9966 33.6476 10.5145 33.9664 7.99386 33.4669C4.70041 32.8162 2.5438 30.7491 1.28831 27.6353C-0.0986592 24.1945 -0.286261 20.642 0.347095 16.9991C0.807279 14.3503 1.69077 11.879 3.1515 9.65247C4.4615 7.65438 6.15633 6.07037 8.20711 4.85278C11.802 2.71666 15.4001 3.04037 19.0383 4.66382C19.4039 4.82649 19.7727 4.98588 20.1286 5.16991C20.3884 5.30465 20.6273 5.48047 20.9432 5.68258C20.3932 7.97972 19.8448 10.2752 19.266 12.6956C18.8812 12.3423 18.599 12.0712 18.3039 11.8165C15.9469 9.78392 13.8544 10.101 11.8405 11.506C8.35784 13.9346 6.54917 19.4474 8.2488 23.5635C9.56522 26.7496 12.5091 27.8571 15.6743 26.3405C16.484 25.9494 17.228 25.4104 18.1195 24.8698Z" fill="white"/>
<path d="M162.016 24.091C158.437 24.091 154.931 24.091 151.414 24.091C151.655 26.1959 152.952 27.466 154.834 27.6928C156.569 27.9015 158.102 27.3954 159.574 26.5524C160.192 26.1991 160.798 25.8294 161.566 25.3759C161.253 26.8203 160.984 28.0921 160.7 29.3606C160.605 29.7862 160.402 30.2003 160.376 30.6275C160.297 31.9436 159.411 32.5763 158.392 32.9427C155.604 33.9467 152.776 34.2046 149.931 33.0955C148.588 32.5713 147.528 31.6955 146.713 30.5075C145.174 28.258 144.746 25.6996 144.832 23.018C144.917 20.384 145.511 17.8601 146.707 15.5334C147.93 13.1557 149.808 11.5651 152.439 10.9604C154.389 10.5118 156.314 10.4938 158.218 11.0787C160.014 11.6308 161.32 12.8698 161.915 14.6608C162.93 17.7138 162.898 20.8326 162.016 24.091ZM151.809 18.961C153.387 18.961 154.831 18.961 156.388 18.961C156.388 18.3251 156.457 17.7483 156.375 17.1962C156.157 15.7256 154.923 15.1899 153.702 15.9934C152.675 16.6704 152.205 17.7155 151.809 18.961Z" fill="white"/>
<path d="M100.579 24.068C97.1061 24.068 93.569 24.068 90.027 24.068C90.1504 26.2698 91.7972 27.4447 93.1745 27.6599C95.0345 27.9508 96.7117 27.4447 98.2975 26.4933C98.8635 26.1531 99.4327 25.8212 100.124 25.4104C99.9923 26.1729 99.9057 26.7907 99.7759 27.397C99.5466 28.4651 99.2483 29.5183 99.0591 30.593C98.8443 31.8155 98.0987 32.5566 97.0452 32.9328C94.2552 33.927 91.4348 34.2063 88.5855 33.1054C86.7351 32.3906 85.4556 31.0695 84.6282 29.2784C82.9142 25.5698 83.198 21.7938 84.3364 18.0014C84.7148 16.7444 85.2215 15.5547 85.9687 14.4669C87.3477 12.4639 89.1996 11.2677 91.5487 10.8487C93.8384 10.4412 96.0671 10.5102 98.1532 11.7114C99.5113 12.4935 100.348 13.7522 100.725 15.2277C101.455 18.077 101.413 20.9657 100.728 23.8346C100.72 23.8839 100.674 23.925 100.579 24.068ZM94.903 18.9873C94.903 18.2462 94.9832 17.5364 94.8822 16.8577C94.7507 15.9688 93.9714 15.4972 93.104 15.6533C91.8597 15.8751 90.5353 17.6465 90.6411 18.9889C92.0393 18.9873 93.4391 18.9873 94.903 18.9873Z" fill="white"/>
<path d="M66.4646 2.05447C68.9835 1.52044 71.4737 0.994627 74.1145 0.434307C72.1455 11.4189 70.215 22.1931 68.2716 33.0331C65.8232 33.0331 63.386 33.0331 60.8702 33.0331C60.9407 32.6371 61.0001 32.2936 61.061 31.9519C62.1 26.2238 63.1471 20.499 64.1765 14.7693C64.9012 10.7353 65.6019 6.69805 66.317 2.6608C66.3443 2.50141 66.3924 2.34695 66.4646 2.05447Z" fill="white"/>
<path d="M78.8142 33.0561C76.3401 33.0561 73.9734 33.0561 71.4769 33.0561C73.3256 22.7206 75.1616 12.4541 77.0183 2.06926C79.5149 1.53851 82.0275 1.00284 84.7052 0.432664C84.6122 1.02256 84.5609 1.41528 84.4887 1.80306C83.7079 6.05065 82.919 10.2966 82.1445 14.5458C81.5897 17.584 81.0494 20.6239 80.509 23.6654C80.0119 26.4637 79.5245 29.2653 79.0291 32.0636C78.9745 32.3824 78.8928 32.6962 78.8142 33.0561Z" fill="white"/>
<path d="M69.0814 42.2266H67.9269V37.3069H69.0814V42.2266Z" fill="white"/>
<path d="M73.8949 42.2266H72.7436L71.0424 39.1654V42.2266H69.8847V37.3069H71.0424L72.7404 40.3682V37.3069H73.8949V42.2266Z" fill="white"/>
<path d="M78.2995 38.2222H76.858V42.2266H75.7003V38.2222H74.2861V37.3069H78.2995V38.2222Z" fill="white"/>
<path d="M81.7661 40.1381H79.9462V41.3146H82.0948V42.2266H78.7885V37.3069H82.1028V38.2222H79.9462V39.259H81.7661V40.1381Z" fill="white"/>
<path d="M84.3508 40.4865H83.7239V42.2266H82.5662V37.3069H84.455C85.0243 37.3069 85.47 37.4368 85.7907 37.6947C86.1114 37.9527 86.2717 38.3191 86.2717 38.7924C86.2717 39.1341 86.2044 39.4184 86.0697 39.6435C85.935 39.8686 85.7234 40.051 85.4348 40.1907L86.4369 42.1773V42.2282H85.1974L84.3508 40.4865ZM83.7239 39.5745H84.455C84.6747 39.5745 84.8399 39.5154 84.9505 39.397C85.0612 39.2787 85.1173 39.1128 85.1173 38.9008C85.1173 38.6888 85.0612 38.5229 84.9489 38.4013C84.8367 38.2797 84.6715 38.2205 84.455 38.2205H83.7239V39.5745Z" fill="white"/>
<path d="M90.981 42.2266H89.8298L88.1285 39.1654V42.2266H86.9708V37.3069H88.1285L89.8265 40.3682V37.3069H90.981V42.2266Z" fill="white"/>
<path d="M94.4989 41.308H92.9132L92.6358 42.2266H91.3995L93.1601 37.3069H94.2488L96.0222 42.2266H94.7795L94.4989 41.308ZM93.1906 40.3912H94.2232L93.7052 38.6856L93.1906 40.3912Z" fill="white"/>
<path d="M99.7454 38.2222H98.3039V42.2266H97.1462V38.2222H95.732V37.3069H99.7454V38.2222Z" fill="white"/>
<path d="M101.467 42.2266H100.313V37.3069H101.467V42.2266Z" fill="white"/>
<path d="M106.337 39.8686C106.337 40.3484 106.25 40.7724 106.076 41.1421C105.901 41.5118 105.656 41.7961 105.335 41.9949C105.014 42.1937 104.65 42.2939 104.241 42.2939C103.833 42.2939 103.47 42.197 103.153 42.0048C102.837 41.8125 102.59 41.5365 102.412 41.1782C102.234 40.82 102.143 40.4092 102.133 39.9442V39.6665C102.133 39.1851 102.219 38.7595 102.391 38.3914C102.564 38.0234 102.811 37.7391 103.133 37.5386C103.456 37.3382 103.821 37.2379 104.233 37.2379C104.641 37.2379 105.003 37.3365 105.322 37.5353C105.641 37.7342 105.888 38.0151 106.066 38.3816C106.242 38.748 106.332 39.167 106.335 39.6402V39.8686H106.337ZM105.16 39.6616C105.16 39.1736 105.08 38.8022 104.921 38.5475C104.763 38.2945 104.533 38.168 104.237 38.168C103.656 38.168 103.35 38.6133 103.316 39.5055L103.313 39.867C103.313 40.3484 103.392 40.7198 103.547 40.9794C103.703 41.239 103.935 41.3672 104.243 41.3672C104.535 41.3672 104.761 41.2407 104.92 40.986C105.078 40.7313 105.159 40.3649 105.16 39.8884V39.6616Z" fill="white"/>
<path d="M110.942 42.2266H109.791L108.09 39.1654V42.2266H106.932V37.3069H108.09L109.788 40.3682V37.3069H110.942V42.2266Z" fill="white"/>
<path d="M114.462 41.308H112.876L112.598 42.2266H111.362L113.123 37.3069H114.212L115.985 42.2266H114.742L114.462 41.308ZM113.152 40.3912H114.184L113.666 38.6856L113.152 40.3912Z" fill="white"/>
<path d="M117.491 41.3146H119.504V42.2266H116.333V37.3069H117.491V41.3146Z" fill="white"/>
<path d="M106.18 6.78021H107.775V7.39969H105.428V3.65984H106.18V6.78021Z" fill="white"/>
<path d="M107.645 4.80841L107.304 4.6063C107.448 4.37462 107.522 4.13636 107.527 3.88988V3.45609H108.102V3.85373C108.102 4.00819 108.061 4.17415 107.977 4.3549C107.896 4.53401 107.785 4.68518 107.645 4.80841Z" fill="white"/>
<path d="M110.421 6.62904H109.103L108.853 7.39969H108.054L109.412 3.66148H110.108L111.474 7.39969H110.676L110.421 6.62904ZM109.307 6.00464H110.219L109.76 4.60466L109.307 6.00464Z" fill="white"/>
<path d="M111.965 7.39804V5.16498H111.561V4.62109H111.965V4.38448C111.965 4.07228 112.052 3.83073 112.226 3.65984C112.401 3.48731 112.645 3.40186 112.959 3.40186C113.06 3.40186 113.182 3.4183 113.328 3.4528L113.32 4.02791C113.259 4.01312 113.187 4.00491 113.099 4.00491C112.826 4.00491 112.69 4.13636 112.69 4.39762V4.62109H113.229V5.16498H112.69V7.39804H111.965Z" fill="white"/>
<path d="M115.129 5.31615C115.029 5.30301 114.943 5.29479 114.867 5.29479C114.593 5.29479 114.414 5.39009 114.329 5.57906V7.3964H113.604V4.62109H114.289L114.309 4.95301C114.455 4.69832 114.656 4.57015 114.914 4.57015C114.994 4.57015 115.069 4.58166 115.14 4.60302L115.129 5.31615Z" fill="white"/>
<path d="M115.472 3.90139C115.472 3.78965 115.509 3.69928 115.581 3.62698C115.653 3.55468 115.752 3.51853 115.878 3.51853C116.001 3.51853 116.099 3.55468 116.173 3.62698C116.246 3.69928 116.283 3.79129 116.283 3.90139C116.283 4.01476 116.246 4.10678 116.171 4.17908C116.097 4.25138 115.998 4.28753 115.876 4.28753C115.754 4.28753 115.656 4.25138 115.581 4.17908C115.51 4.10678 115.472 4.01476 115.472 3.90139ZM116.241 7.39804H115.515V4.62109H116.241V7.39804Z" fill="white"/>
<path d="M116.726 5.98328C116.726 5.5462 116.82 5.20277 117.01 4.94808C117.199 4.69504 117.458 4.56851 117.79 4.56851C118.081 4.56851 118.312 4.68189 118.485 4.91029L118.533 4.61945H119.169V8.4661H118.443V7.15978C118.276 7.35368 118.057 7.45062 117.787 7.45062C117.465 7.45062 117.207 7.32246 117.016 7.06612C116.822 6.80815 116.726 6.44829 116.726 5.98328ZM117.449 6.0375C117.449 6.30369 117.494 6.5058 117.585 6.64383C117.677 6.7835 117.805 6.85251 117.97 6.85251C118.191 6.85251 118.348 6.76214 118.441 6.57975V5.42953C118.352 5.25535 118.196 5.16662 117.975 5.16662C117.808 5.16662 117.678 5.23564 117.587 5.37531C117.495 5.51498 117.449 5.73516 117.449 6.0375Z" fill="white"/>
<path d="M121.36 7.11706C121.18 7.33889 120.933 7.45062 120.617 7.45062C120.327 7.45062 120.104 7.36518 119.952 7.19429C119.799 7.0234 119.721 6.772 119.718 6.44172V4.62109H120.442V6.41707C120.442 6.70627 120.571 6.85087 120.829 6.85087C121.074 6.85087 121.243 6.76378 121.336 6.58796V4.62109H122.062V7.39969H121.38L121.36 7.11706Z" fill="white"/>
<path d="M123.856 7.45062C123.459 7.45062 123.135 7.32574 122.886 7.07598C122.636 6.82622 122.511 6.49266 122.511 6.07694V6.00464C122.511 5.7253 122.564 5.47554 122.668 5.257C122.774 5.03681 122.923 4.86757 123.115 4.74926C123.308 4.63095 123.529 4.57015 123.776 4.57015C124.146 4.57015 124.438 4.69011 124.651 4.93001C124.865 5.16991 124.971 5.51005 124.971 5.94877V6.25111H123.244C123.268 6.43186 123.338 6.5781 123.455 6.6882C123.572 6.79829 123.721 6.85251 123.903 6.85251C124.182 6.85251 124.4 6.74899 124.557 6.54195L124.913 6.94946C124.804 7.1072 124.658 7.23044 124.472 7.31753C124.286 7.40462 124.081 7.45062 123.856 7.45062ZM123.773 5.16827C123.628 5.16827 123.513 5.21756 123.423 5.3178C123.333 5.41803 123.277 5.56098 123.252 5.74666H124.259V5.68586C124.255 5.52155 124.212 5.39338 124.129 5.30301C124.045 5.21263 123.927 5.16827 123.773 5.16827Z" fill="white"/>
<path d="M126.547 5.98328C126.547 5.70723 126.598 5.46239 126.702 5.24714C126.806 5.03188 126.956 4.86428 127.15 4.74597C127.344 4.62767 127.57 4.56851 127.828 4.56851C128.193 4.56851 128.492 4.68353 128.724 4.91193C128.955 5.14198 129.085 5.45253 129.111 5.84689L129.115 6.0375C129.115 6.46308 129 6.80486 128.767 7.06284C128.535 7.32081 128.224 7.44898 127.833 7.44898C127.441 7.44898 127.13 7.32081 126.896 7.06448C126.662 6.80815 126.547 6.45815 126.547 6.01614V5.98328ZM127.27 6.0375C127.27 6.30205 127.318 6.50416 127.416 6.64383C127.512 6.7835 127.651 6.85416 127.831 6.85416C128.006 6.85416 128.144 6.78514 128.242 6.64712C128.339 6.50909 128.389 6.28891 128.389 5.98492C128.389 5.7253 128.339 5.52483 128.242 5.38352C128.142 5.24057 128.004 5.16991 127.826 5.16991C127.65 5.16991 127.512 5.24057 127.416 5.38188C127.318 5.52155 127.27 5.74009 127.27 6.0375Z" fill="white"/>
<path d="M129.758 7.39804V5.16498H129.354V4.62109H129.758V4.38448C129.758 4.07228 129.845 3.83073 130.02 3.65984C130.195 3.48731 130.438 3.40186 130.753 3.40186C130.854 3.40186 130.975 3.4183 131.121 3.4528L131.113 4.02791C131.052 4.01312 130.98 4.00491 130.892 4.00491C130.619 4.00491 130.483 4.13636 130.483 4.39762V4.62109H131.022V5.16498H130.483V7.39804H129.758Z" fill="white"/>
<path d="M131.598 7.39804V5.16498H131.193V4.62109H131.598V4.38448C131.598 4.07228 131.684 3.83073 131.859 3.65984C132.034 3.48731 132.277 3.40186 132.592 3.40186C132.693 3.40186 132.815 3.4183 132.96 3.4528L132.952 4.02791C132.892 4.01312 132.819 4.00491 132.731 4.00491C132.459 4.00491 132.322 4.13636 132.322 4.39762V4.62109H132.861V5.16498H132.322V7.39804H131.598Z" fill="white"/>
<path d="M134.761 5.31615C134.662 5.30301 134.575 5.29479 134.5 5.29479C134.226 5.29479 134.046 5.39009 133.961 5.57906V7.3964H133.236V4.62109H133.921L133.942 4.95301C134.088 4.69832 134.288 4.57015 134.546 4.57015C134.626 4.57015 134.702 4.58166 134.772 4.60302L134.761 5.31615Z" fill="white"/>
<path d="M136.31 7.45062C135.912 7.45062 135.588 7.32574 135.34 7.07598C135.09 6.82622 134.965 6.49266 134.965 6.07694V6.00464C134.965 5.7253 135.018 5.47554 135.122 5.257C135.228 5.03681 135.377 4.86757 135.569 4.74926C135.762 4.63095 135.983 4.57015 136.23 4.57015C136.6 4.57015 136.892 4.69011 137.105 4.93001C137.319 5.16991 137.424 5.51005 137.424 5.94877V6.25111H135.698C135.722 6.43186 135.792 6.5781 135.909 6.6882C136.026 6.79829 136.175 6.85251 136.357 6.85251C136.636 6.85251 136.854 6.74899 137.011 6.54195L137.367 6.94946C137.258 7.1072 137.112 7.23044 136.926 7.31753C136.74 7.40462 136.535 7.45062 136.31 7.45062ZM136.227 5.16827C136.082 5.16827 135.967 5.21756 135.877 5.3178C135.787 5.41803 135.731 5.56098 135.706 5.74666H136.712V5.68586C136.709 5.52155 136.666 5.39338 136.583 5.30301C136.499 5.21263 136.381 5.16827 136.227 5.16827Z" fill="white"/>
<path d="M139.878 7.39804H139.151V3.45445H139.878V7.39804Z" fill="white"/>
<path d="M141.722 7.45062C141.324 7.45062 141 7.32574 140.752 7.07598C140.501 6.82622 140.376 6.49266 140.376 6.07694V6.00464C140.376 5.7253 140.429 5.47554 140.533 5.257C140.639 5.03681 140.788 4.86757 140.981 4.74926C141.173 4.63095 141.395 4.57015 141.641 4.57015C142.012 4.57015 142.304 4.69011 142.517 4.93001C142.73 5.16991 142.836 5.51005 142.836 5.94877V6.25111H141.109C141.133 6.43186 141.204 6.5781 141.321 6.6882C141.438 6.79829 141.587 6.85251 141.768 6.85251C142.047 6.85251 142.265 6.74899 142.422 6.54195L142.778 6.94946C142.669 7.1072 142.523 7.23044 142.337 7.31753C142.151 7.40462 141.946 7.45062 141.722 7.45062ZM141.638 5.16827C141.494 5.16827 141.378 5.21756 141.289 5.3178C141.199 5.41803 141.143 5.56098 141.117 5.74666H142.124V5.68586C142.121 5.52155 142.078 5.39338 141.994 5.30301C141.911 5.21263 141.792 5.16827 141.638 5.16827Z" fill="white"/>
<path d="M145.204 4.62109L145.227 4.93165C145.419 4.69011 145.679 4.57015 146.006 4.57015C146.356 4.57015 146.594 4.71147 146.724 4.99409C146.915 4.71147 147.186 4.57015 147.539 4.57015C147.832 4.57015 148.052 4.65724 148.195 4.83306C148.339 5.00888 148.41 5.27179 148.41 5.62507V7.39969H147.683V5.62671C147.683 5.46897 147.653 5.35395 147.593 5.28165C147.532 5.20935 147.427 5.1732 147.276 5.1732C147.059 5.1732 146.909 5.28 146.825 5.49197L146.829 7.39969H146.104V5.63C146.104 5.46897 146.073 5.3523 146.011 5.28C145.948 5.2077 145.844 5.17155 145.695 5.17155C145.49 5.17155 145.341 5.25864 145.249 5.43282V7.3964H144.524V4.62109H145.204Z" fill="white"/>
<path d="M150.215 7.45062C149.817 7.45062 149.493 7.32574 149.245 7.07598C148.995 6.82622 148.87 6.49266 148.87 6.07694V6.00464C148.87 5.7253 148.923 5.47554 149.027 5.257C149.133 5.03681 149.282 4.86757 149.474 4.74926C149.667 4.63095 149.888 4.57015 150.135 4.57015C150.505 4.57015 150.797 4.69011 151.01 4.93001C151.224 5.16991 151.329 5.51005 151.329 5.94877V6.25111H149.602C149.627 6.43186 149.697 6.5781 149.814 6.6882C149.931 6.79829 150.08 6.85251 150.261 6.85251C150.54 6.85251 150.759 6.74899 150.916 6.54195L151.272 6.94946C151.163 7.1072 151.017 7.23044 150.831 7.31753C150.645 7.40462 150.439 7.45062 150.215 7.45062ZM150.132 5.16827C149.987 5.16827 149.872 5.21756 149.782 5.3178C149.692 5.41803 149.636 5.56098 149.61 5.74666H150.617V5.68586C150.614 5.52155 150.571 5.39338 150.488 5.30301C150.404 5.21263 150.286 5.16827 150.132 5.16827Z" fill="white"/>
<path d="M151.735 3.90139C151.735 3.78965 151.772 3.69928 151.844 3.62698C151.916 3.55468 152.016 3.51853 152.141 3.51853C152.264 3.51853 152.362 3.55468 152.436 3.62698C152.509 3.69928 152.546 3.79129 152.546 3.90139C152.546 4.01476 152.509 4.10678 152.434 4.17908C152.36 4.25138 152.261 4.28753 152.139 4.28753C152.017 4.28753 151.919 4.25138 151.844 4.17908C151.772 4.10678 151.735 4.01476 151.735 3.90139ZM152.505 7.39804H151.778V4.62109H152.505V7.39804Z" fill="white"/>
<path d="M153.864 7.39804H153.138V3.45445H153.864V7.39804Z" fill="white"/>
<path d="M155.226 7.39804H154.499V3.45445H155.226V7.39804Z" fill="white"/>
<path d="M157.07 7.45062C156.672 7.45062 156.348 7.32574 156.1 7.07598C155.849 6.82622 155.724 6.49266 155.724 6.07694V6.00464C155.724 5.7253 155.777 5.47554 155.882 5.257C155.987 5.03681 156.136 4.86757 156.329 4.74926C156.521 4.63095 156.743 4.57015 156.989 4.57015C157.36 4.57015 157.652 4.69011 157.865 4.93001C158.078 5.16991 158.184 5.51005 158.184 5.94877V6.25111H156.457C156.481 6.43186 156.552 6.5781 156.669 6.6882C156.786 6.79829 156.935 6.85251 157.116 6.85251C157.395 6.85251 157.613 6.74899 157.77 6.54195L158.126 6.94946C158.017 7.1072 157.871 7.23044 157.685 7.31753C157.499 7.40462 157.294 7.45062 157.07 7.45062ZM156.986 5.16827C156.842 5.16827 156.727 5.21756 156.637 5.3178C156.547 5.41803 156.491 5.56098 156.465 5.74666H157.472V5.68586C157.469 5.52155 157.426 5.39338 157.342 5.30301C157.259 5.21263 157.14 5.16827 156.986 5.16827Z" fill="white"/>
<path d="M160.219 7.11706C160.039 7.33889 159.792 7.45062 159.476 7.45062C159.186 7.45062 158.963 7.36518 158.811 7.19429C158.659 7.0234 158.58 6.772 158.577 6.44172V4.62109H159.302V6.41707C159.302 6.70627 159.43 6.85087 159.688 6.85087C159.933 6.85087 160.102 6.76378 160.195 6.58796V4.62109H160.921V7.39969H160.24L160.219 7.11706Z" fill="white"/>
<path d="M162.99 5.31615C162.89 5.30301 162.804 5.29479 162.728 5.29479C162.454 5.29479 162.274 5.39009 162.189 5.57906V7.3964H161.465V4.62109H162.149L162.17 4.95301C162.316 4.69832 162.517 4.57015 162.775 4.57015C162.855 4.57015 162.93 4.58166 163.001 4.60302L162.99 5.31615Z" fill="white"/>
</svg>
