<svg width="240" height="59" viewBox="0 0 240 59" fill="none" xmlns="http://www.w3.org/2000/svg">
<path d="M61.6225 0.927979C60.313 3.32083 58.7366 5.3046 56.9456 6.95774V6.96054C53.3279 10.2976 48.8518 12.2842 44.0098 13.5675C43.1542 13.7973 42.2904 13.999 41.4155 14.1811C41.4155 14.1811 41.4127 14.1811 41.4127 14.1839C22.595 18.1795 -0.231057 13.6291 0.00278916 35.728C0.022047 37.5184 0.189866 39.4826 0.525503 41.6429C0.921665 38.5831 1.79377 36.1847 3.05654 34.3074V34.3046C3.67554 33.3772 4.38808 32.5786 5.18041 31.8837C18.6472 20.082 55.6691 39.0343 61.6225 0.927979Z" fill="white"/>
<path d="M23.4231 38.0928C22.4492 38.0396 21.5193 37.9947 20.6389 37.9919C17.1423 37.9779 8.4377 39.1463 7.61236 47.0898C7.31524 49.9758 8.00577 52.4219 10.1682 54.557C11.8078 56.1765 14.2948 57.6167 17.8383 58.928C16.2371 58.1883 12.325 53.9125 13.9757 50.8024C14.0362 50.6875 14.0995 50.5782 14.1683 50.4717C14.2426 50.3541 14.3141 50.2392 14.3939 50.1327C14.4599 50.0374 14.5287 49.9506 14.6057 49.8665C14.6112 49.8553 14.6195 49.8469 14.625 49.8413C14.6938 49.7573 14.7653 49.676 14.8423 49.6003C14.9249 49.5135 15.0129 49.4294 15.1009 49.351C15.1752 49.2837 15.255 49.2165 15.332 49.1576C15.4338 49.0764 15.5411 48.9979 15.6539 48.9223C15.7474 48.8578 15.8465 48.7962 15.9428 48.7402C15.9428 48.7345 15.9483 48.7317 15.9565 48.7346C16.0528 48.6757 16.1546 48.6197 16.2564 48.572C16.3389 48.53 16.4215 48.488 16.5068 48.4544C16.5508 48.4319 16.5975 48.4151 16.6443 48.3927C16.7296 48.3591 16.8149 48.3255 16.9002 48.2918C17.0102 48.2498 17.1258 48.2134 17.2413 48.1798C17.3568 48.1433 17.4696 48.1125 17.5879 48.0845C17.698 48.0537 17.8053 48.0285 17.9208 48.0032C18.0501 47.9808 18.1822 47.9556 18.3142 47.936C18.438 47.9136 18.5618 47.8968 18.6911 47.8828C18.8315 47.866 18.9718 47.8547 19.1093 47.8435C19.3927 47.8183 19.6816 47.8071 19.9732 47.8071C19.9814 47.8071 19.9842 47.8043 19.9924 47.8071C20.13 47.8071 20.273 47.8071 20.4133 47.8099C20.5619 47.8155 20.7132 47.8211 20.8618 47.8295C20.8865 47.8295 20.9141 47.8295 20.9388 47.8323C21.2002 47.8463 21.4643 47.8659 21.7284 47.894C21.8962 47.9108 22.0695 47.9276 22.2373 47.9472C23.2388 48.0621 24.2594 48.247 25.2718 48.46C25.734 48.5552 26.1935 48.6505 26.6557 48.743C32.2377 49.8385 38.1361 50.2056 44.9947 42.7552L45.0002 42.7524C46.7196 40.8863 48.5023 38.5243 50.3511 35.5627C50.3511 35.5627 50.3511 35.5599 50.3566 35.5599C51.7982 33.2539 53.2811 30.5752 54.8162 27.4847C44.8323 40.4128 32.3065 38.6112 23.4231 38.0928Z" fill="white"/>
<path d="M60.2001 49.9394H63.0228V39.7796H73.0286V37.3839H63.0228V29.8159H74.9104V27.2605H60.2001V49.9394Z" fill="white"/>
<path d="M81.3068 27.2605H78.4841V49.9394H81.3068V27.2605Z" fill="white"/>
<path d="M102.634 44.9884L89.0237 27.2605H86.6385V49.9394H89.4611V32.5618L102.884 49.9394H105.456V27.2914H102.634V44.9884Z" fill="white"/>
<path d="M122.675 38.5719C121.548 38.0844 120.208 37.6697 118.662 37.3307C117.322 37.0113 116.219 36.7059 115.352 36.406C114.485 36.109 113.842 35.728 113.423 35.2601C113.005 34.7921 112.796 34.1561 112.796 33.3491C112.796 32.2031 113.203 31.3009 114.02 30.6425C114.835 29.984 116.1 29.6562 117.814 29.6562C118.483 29.6562 119.127 29.7262 119.743 29.8635C120.359 30.0036 120.928 30.183 121.451 30.4071C121.974 30.6313 122.444 30.8806 122.863 31.158C123.281 31.4354 123.616 31.7212 123.867 32.021L125.184 29.6898C124.557 29.1574 123.867 28.7007 123.116 28.3169C122.362 27.933 121.553 27.636 120.686 27.423C119.817 27.2101 118.882 27.1036 117.88 27.1036C116.353 27.1036 114.983 27.3586 113.77 27.8686C112.557 28.3785 111.605 29.1322 110.917 30.1297C110.229 31.1272 109.883 32.3488 109.883 33.7918C109.883 34.9799 110.139 35.9465 110.65 36.6918C111.162 37.4344 111.93 38.0368 112.956 38.4907C113.979 38.9474 115.245 39.3677 116.75 39.7488C118.131 40.0878 119.3 40.4296 120.263 40.7687C121.223 41.1077 121.952 41.5336 122.442 42.0435C122.934 42.5535 123.179 43.2316 123.179 44.0833C123.179 45.2069 122.739 46.0587 121.861 46.6415C120.984 47.2243 119.748 47.5157 118.161 47.5157C117.325 47.5157 116.51 47.426 115.715 47.2439C114.92 47.0646 114.183 46.8236 113.503 46.5238C112.824 46.2268 112.218 45.9018 111.685 45.5488C111.151 45.1957 110.716 44.8399 110.383 44.4784L109.035 46.9049C109.872 47.6082 110.771 48.1938 111.731 48.6617C112.694 49.1296 113.712 49.4883 114.788 49.732C115.864 49.9758 116.967 50.0991 118.098 50.0991C119.248 50.0991 120.312 49.9758 121.297 49.732C122.279 49.4883 123.138 49.1044 123.869 48.586C124.601 48.0649 125.171 47.4064 125.578 46.6107C125.985 45.8149 126.189 44.8763 126.189 43.7919C126.189 42.433 125.886 41.3459 125.281 40.5277C124.67 39.7123 123.803 39.0595 122.675 38.5719Z" fill="white"/>
<path d="M145.727 38.726C145.727 39.8132 145.617 40.8779 145.397 41.9202C145.177 42.9626 144.817 43.9068 144.316 44.7474C143.815 45.588 143.136 46.2604 142.277 46.7592C141.419 47.2607 140.343 47.5101 139.047 47.5101C137.771 47.5101 136.706 47.2663 135.848 46.776C134.99 46.2857 134.31 45.6272 133.809 44.795C133.309 43.9657 132.945 43.0214 132.728 41.9679C132.508 40.9144 132.398 39.8328 132.398 38.726V27.2605H129.575V38.7288C129.575 40.1774 129.743 41.5812 130.076 42.9458C130.409 44.3075 130.943 45.5291 131.674 46.6023C132.406 47.6782 133.377 48.53 134.591 49.1576C135.804 49.7853 137.298 50.0991 139.075 50.0991C140.789 50.0991 142.247 49.7965 143.449 49.1885C144.651 48.5804 145.628 47.7567 146.382 46.7144C147.136 45.672 147.683 44.4616 148.027 43.0887C148.371 41.7157 148.544 40.2615 148.544 38.7288V27.2605H145.727V38.726Z" fill="white"/>
<path d="M167.632 39.8776C168.33 39.2192 168.875 38.4178 169.263 37.482C169.651 36.5461 169.844 35.5543 169.844 34.5119C169.844 33.6181 169.676 32.7383 169.343 31.8781C169.007 31.0151 168.537 30.239 167.931 29.5469C167.323 28.8548 166.614 28.3001 165.799 27.8854C164.985 27.4707 164.085 27.2633 163.103 27.2633H153.568V49.9422H156.391V41.797H162.286L167.368 49.9422H170.567L165.172 41.2534C166.11 40.9956 166.933 40.5361 167.632 39.8776ZM163.131 39.2388H156.388V29.8159H162.944C163.676 29.8159 164.344 30.0288 164.952 30.4547C165.557 30.8806 166.05 31.4494 166.427 32.1639C166.804 32.8784 166.991 33.6602 166.991 34.5119C166.991 35.3413 166.828 36.1202 166.504 36.8431C166.179 37.566 165.731 38.1488 165.156 38.5831C164.581 39.0203 163.904 39.2388 163.131 39.2388Z" fill="white"/>
<path d="M180.947 27.2605L171.822 49.9394H174.831L177.34 43.296H186.917L189.415 49.9394H192.425L183.33 27.2605H180.947ZM178.182 41.0573L182.138 30.5808L186.078 41.0573H178.182Z" fill="white"/>
<path d="M208.23 27.2605L199.104 49.9394H202.114L204.623 43.296H214.2L216.698 49.9394H219.708L210.612 27.2605H208.23ZM205.468 41.0573L209.424 30.5808L213.364 41.0573H205.468Z" fill="white"/>
<path d="M232.82 40.8023H237.618V43.9264C236.696 45.0696 235.722 45.9326 234.701 46.521C233.551 47.1823 232.338 47.5101 231.064 47.5101C229.978 47.5101 228.962 47.2775 228.022 46.8068C227.081 46.3389 226.255 45.6945 225.543 44.8735C224.833 44.0553 224.283 43.1055 223.895 42.0295C223.507 40.9536 223.314 39.8104 223.314 38.5972C223.314 37.4484 223.488 36.3388 223.832 35.2741C224.176 34.2093 224.679 33.2567 225.336 32.4161C225.994 31.5755 226.784 30.9087 227.705 30.4183C228.624 29.928 229.65 29.6842 230.778 29.6842C232.137 29.6842 233.381 30.0036 234.511 30.6425C235.639 31.2813 236.528 32.262 237.177 33.5817L239.342 32.049C238.633 30.5808 237.576 29.3872 236.176 28.471C234.776 27.5547 232.998 27.098 230.844 27.098C229.359 27.098 227.986 27.4006 226.72 28.0087C225.455 28.6167 224.357 29.4516 223.427 30.5164C222.497 31.5811 221.771 32.8 221.248 34.1729C220.726 35.5459 220.464 37.0001 220.464 38.5327C220.464 40.0009 220.726 41.4243 221.248 42.7973C221.771 44.1702 222.503 45.4059 223.444 46.5014C224.385 47.5998 225.488 48.4712 226.753 49.1212C228.019 49.7713 229.383 50.0963 230.847 50.0963C233.43 50.0963 235.689 49.0147 237.62 46.8545V49.9366H240.003V38.628H232.82V40.8023Z" fill="white"/>
</svg>
