<svg width="24" height="24" fill="none" xmlns="http://www.w3.org/2000/svg"><path d="M19.5 10a.5.5 0 0 0-1 0h1zm-14 0a.5.5 0 0 0-1 0h1zm15.146 2.354a.5.5 0 0 0 .708-.708l-.708.708zM12 3l.354-.354a.5.5 0 0 0-.708 0L12 3zm-9.354 8.646a.5.5 0 1 0 .708.708l-.708-.708zM7 21.5h10v-1H7v1zM19.5 19v-9h-1v9h1zm-14 0v-9h-1v9h1zm15.854-7.354-9-9-.708.708 9 9 .708-.708zm-9.708-9-9 9 .708.708 9-9-.708-.708zM17 21.5a2.5 2.5 0 0 0 2.5-2.5h-1a1.5 1.5 0 0 1-1.5 1.5v1zm-10-1A1.5 1.5 0 0 1 5.5 19h-1A2.5 2.5 0 0 0 7 21.5v-1z" fill="#9BA1A7"/></svg>