<svg width="93" height="66" viewBox="0 0 93 66" fill="none" xmlns="http://www.w3.org/2000/svg">
<rect x="0.164856" width="91.978" height="66" rx="5" fill="#F1F1F1"/>
<g clip-path="url(#clip0_4_193)">
<path d="M39.2827 42.4172C39.2827 42.6187 39.2507 42.6844 39.0096 42.6844H35.7313C35.5253 42.6844 35.4583 42.5891 35.4583 42.4172V20.0437C35.4583 19.8422 35.5557 19.7672 35.7313 19.7672H39.0416C39.2156 19.7672 39.2827 19.8422 39.2827 20.0125V42.4172ZM43.0608 34.3437C43.0608 29.3625 46.4126 25.4812 51.7923 25.4812C52.241 25.4812 52.4933 25.4812 52.9165 25.5047V19.9797C52.9152 19.9524 52.9196 19.9251 52.9293 19.8994C52.9391 19.8738 52.954 19.8504 52.9733 19.8305C52.9925 19.8107 53.0156 19.7948 53.0413 19.7839C53.0669 19.7731 53.0946 19.7674 53.1225 19.7672H56.5829C56.7665 19.7672 56.8 19.8422 56.8 19.9469V39.4391C56.8 40.0156 56.8 40.7406 56.9086 41.5312C56.9086 41.6687 56.8655 41.7016 56.725 41.775C54.9789 42.588 53.0698 43.0107 51.136 43.0125C46.4206 43.0125 43.0512 40.1562 43.0512 34.3453L43.0608 34.3437ZM52.9165 28.8812C52.5987 28.7437 52.1756 28.6703 51.6518 28.6703C48.9164 28.6703 46.9954 30.7281 46.9954 34.1703C46.9954 38.0937 48.9484 39.6719 51.4107 39.6719C51.9345 39.6719 52.4981 39.6078 52.9165 39.4281V28.8812Z" fill="#111111"/>
<rect x="21.6044" y="9" width="49.0989" height="47" rx="7" stroke="#111111" stroke-width="2"/>
</g>
<defs>
<clipPath id="clip0_4_193">
<rect width="51.0989" height="50" fill="white" transform="translate(20.6044 8)"/>
</clipPath>
</defs>
</svg>
