<svg width="24" height="24" viewBox="0 0 24 24" fill="none" xmlns="http://www.w3.org/2000/svg">
<path d="M11.8 9.84C12.5336 9.0904 13.4888 8.6 14.6 8.6C15.767 8.6 16.8861 9.06357 17.7113 9.88873C18.5364 10.7139 19 11.833 19 13V19H17.4V13C17.4 12.2574 17.105 11.5452 16.5799 11.0201C16.0548 10.495 15.3426 10.2 14.6 10.2C13.8574 10.2 13.1452 10.495 12.6201 11.0201C12.095 11.5452 11.8 12.2574 11.8 13V19H10.2V9H11.8V9.84ZM6.2 7.4C5.88174 7.4 5.57652 7.27357 5.35147 7.04853C5.12643 6.82348 5 6.51826 5 6.2C5 5.88174 5.12643 5.57652 5.35147 5.35147C5.57652 5.12643 5.88174 5 6.2 5C6.51826 5 6.82348 5.12643 7.04853 5.35147C7.27357 5.57652 7.4 5.88174 7.4 6.2C7.4 6.51826 7.27357 6.82348 7.04853 7.04853C6.82348 7.27357 6.51826 7.4 6.2 7.4ZM5.4 9H7V19H5.4V9Z" fill="#9BA1A7"/>
</svg>
