<svg width="415" height="113" viewBox="0 0 415 113" fill="none" xmlns="http://www.w3.org/2000/svg">
<path d="M168.572 37.1529V73.4904H160.29L155.375 56.9713V73.4904H147.475V37.1529H155.375L160.672 53.5149V37.1529H168.572Z" fill="white"/>
<path d="M178.156 66.0838V73.4904H171.311V66.0838H178.156Z" fill="white"/>
<path d="M200.556 37.1529V61.4378C200.556 65.0738 200.518 67.4155 200.443 68.4629C200.369 69.4953 200.024 70.4305 199.411 71.2684C198.812 72.1063 197.989 72.6899 196.942 73.0191C195.91 73.3333 194.346 73.4904 192.251 73.4904H187.515V67.1386C188.084 67.1835 188.495 67.206 188.75 67.206C189.423 67.206 189.954 67.0414 190.343 66.7122C190.732 66.383 190.957 65.979 191.017 65.5002C191.077 65.0214 191.106 64.0937 191.106 62.7171V37.1529H200.556Z" fill="white"/>
<path d="M204.214 37.1529H219.97V44.4249H213.663V51.3153H219.566V58.2282H213.663V66.2184H220.598V73.4904H204.214V37.1529Z" fill="white"/>
<path d="M239.654 37.1529L245.063 73.4904H235.389L234.918 66.9591H231.529L230.968 73.4904H221.182L225.985 37.1529H239.654ZM234.649 60.5175C234.17 56.4027 233.691 51.3228 233.212 45.2778C232.255 52.2206 231.656 57.3005 231.417 60.5175H234.649Z" fill="white"/>
<path d="M267.776 37.1529V73.4904H259.495L254.579 56.9713V73.4904H246.679V37.1529H254.579L259.876 53.5149V37.1529H267.776Z" fill="white"/>
<path d="M301.78 52.9987H292.331V46.6694C292.331 44.8289 292.226 43.6843 292.016 43.2354C291.822 42.7715 291.381 42.5396 290.692 42.5396C289.914 42.5396 289.42 42.8164 289.211 43.37C289.001 43.9237 288.897 45.1207 288.897 46.9611V63.8393C288.897 65.6049 289.001 66.7571 289.211 67.2958C289.42 67.8344 289.892 68.1037 290.625 68.1037C291.328 68.1037 291.785 67.8344 291.994 67.2958C292.218 66.7571 292.331 65.4927 292.331 63.5026V58.9464H301.78V60.3604C301.78 64.1161 301.51 66.7795 300.972 68.3506C300.448 69.9217 299.273 71.2983 297.448 72.4804C295.637 73.6625 293.401 74.2535 290.737 74.2535C287.969 74.2535 285.687 73.7523 283.892 72.7497C282.096 71.7472 280.906 70.3631 280.323 68.5975C279.739 66.8169 279.448 64.1461 279.448 60.5849V49.9687C279.448 47.3502 279.537 45.39 279.717 44.0883C279.896 42.7715 280.428 41.5072 281.31 40.2952C282.208 39.0832 283.443 38.133 285.014 37.4447C286.6 36.7415 288.418 36.3898 290.468 36.3898C293.251 36.3898 295.548 36.9285 297.358 38.0058C299.169 39.0832 300.358 40.4298 300.927 42.0458C301.495 43.6468 301.78 46.1457 301.78 49.5422V52.9987Z" fill="white"/>
<path d="M314.618 37.1529V66.2184H320.364V73.4904H305.169V37.1529H314.618Z" fill="white"/>
<path d="M340.16 37.1529L345.569 73.4904H335.895L335.424 66.9591H332.035L331.474 73.4904H321.688L326.491 37.1529H340.16ZM335.155 60.5175C334.676 56.4027 334.197 51.3228 333.718 45.2778C332.76 52.2206 332.162 57.3005 331.923 60.5175H335.155Z" fill="white"/>
<path d="M368.664 37.1529V61.4378C368.664 64.1909 368.574 66.1286 368.395 67.2509C368.215 68.3581 367.684 69.5028 366.801 70.6849C365.918 71.852 364.751 72.7423 363.3 73.3557C361.863 73.9543 360.165 74.2535 358.205 74.2535C356.035 74.2535 354.12 73.8944 352.459 73.1762C350.798 72.458 349.556 71.5228 348.733 70.3706C347.91 69.2185 347.424 68.0065 347.275 66.7346C347.125 65.4478 347.05 62.7545 347.05 58.6547V37.1529H356.499V64.4004C356.499 65.9865 356.581 67.004 356.746 67.4529C356.926 67.8868 357.277 68.1037 357.801 68.1037C358.399 68.1037 358.781 67.8643 358.946 67.3855C359.125 66.8918 359.215 65.7396 359.215 63.9291V37.1529H368.664Z" fill="white"/>
<path d="M372.322 37.1529H379.392C383.956 37.1529 387.038 37.3624 388.64 37.7814C390.256 38.2003 391.482 38.8886 392.32 39.8463C393.158 40.8039 393.682 41.8737 393.892 43.0558C394.101 44.2229 394.206 46.5272 394.206 49.9687V62.6947C394.206 65.9566 394.049 68.1412 393.734 69.2484C393.435 70.3407 392.904 71.2011 392.141 71.8295C391.378 72.443 390.435 72.8769 389.313 73.1313C388.191 73.3707 386.5 73.4904 384.24 73.4904H372.322V37.1529ZM381.772 43.37V67.2733C383.133 67.2733 383.971 67.004 384.285 66.4653C384.6 65.9117 384.757 64.4229 384.757 61.9989V47.8814C384.757 46.2354 384.704 45.1805 384.6 44.7167C384.495 44.2528 384.255 43.9162 383.881 43.7067C383.507 43.4823 382.804 43.37 381.772 43.37Z" fill="white"/>
<path d="M397.729 37.1529H413.485V44.4249H407.179V51.3153H413.081V58.2282H407.179V66.2184H414.114V73.4904H397.729V37.1529Z" fill="white"/>
<g clip-path="url(#clip0_36_309)">
<path d="M56.5 113C87.7041 113 113 87.7041 113 56.5C113 25.2959 87.7041 0 56.5 0C25.2959 0 0 25.2959 0 56.5C0 87.7041 25.2959 113 56.5 113Z" fill="white"/>
<path d="M62.489 19.6699H90.965V19.8959C90.852 19.8959 90.626 20.0089 90.513 20.0089C85.428 20.3479 81.473 24.6419 81.699 29.7269C81.699 42.7219 81.699 55.8299 81.699 68.8249C81.812 76.3959 78.309 83.6279 72.32 88.1479C68.365 91.3119 63.393 93.1199 58.308 93.2329C57.969 93.2329 57.743 93.2329 57.517 93.1199C57.63 93.0069 57.743 93.0069 57.856 93.0069C60.681 92.7809 63.28 91.4249 65.088 89.2779C68.026 86.0009 69.947 82.0459 70.851 77.7519C71.529 74.8139 71.868 71.7629 71.868 68.7119C71.868 55.7169 71.868 42.6089 71.868 29.6139C72.094 24.5289 68.139 20.2349 63.054 19.8959C62.941 19.8959 62.715 19.7829 62.602 19.7829L62.489 19.6699Z" fill="#011240"/>
<path d="M69.834 61.3669L33.8999 32.7779V50.7449H33.674V19.7829C33.9 19.8959 34.1259 20.1219 34.3519 20.2349C46.1039 29.5009 57.7429 38.8799 69.4949 48.1459C69.8339 48.3719 69.9469 48.7109 70.0599 49.0499C70.0599 52.8919 70.0599 56.8469 70.0599 60.6889C69.9469 60.9149 69.947 61.0279 69.834 61.3669Z" fill="#43BECA"/>
<path d="M33.9 54.4739C33.9 54.4739 31.753 64.0789 22.035 66.4519C22.035 66.4519 32.318 68.7119 33.9 78.3169C33.9 78.3169 35.369 68.2599 45.313 66.4519C45.313 66.3389 35.143 63.8529 33.9 54.4739Z" fill="#F6BB42"/>
</g>
<defs>
<clipPath id="clip0_36_309">
<rect width="113" height="113" fill="white"/>
</clipPath>
</defs>
</svg>
