<svg width="24" height="24" viewBox="0 0 24 24" fill="none" xmlns="http://www.w3.org/2000/svg">
<path d="M19.68 10.8H4.32001C3.65761 10.8 3.60001 11.3364 3.60001 12C3.60001 12.6636 3.65761 13.2 4.32001 13.2H19.68C20.3424 13.2 20.4 12.6636 20.4 12C20.4 11.3364 20.3424 10.8 19.68 10.8ZM19.68 15.6H4.32001C3.65761 15.6 3.60001 16.1364 3.60001 16.8C3.60001 17.4636 3.65761 18 4.32001 18H19.68C20.3424 18 20.4 17.4636 20.4 16.8C20.4 16.1364 20.3424 15.6 19.68 15.6ZM4.32001 8.4H19.68C20.3424 8.4 20.4 7.8636 20.4 7.2C20.4 6.5364 20.3424 6 19.68 6H4.32001C3.65761 6 3.60001 6.5364 3.60001 7.2C3.60001 7.8636 3.65761 8.4 4.32001 8.4Z" fill="#EBEFF2"/>
</svg>
