<svg width="92" height="66" viewBox="0 0 92 66" fill="none" xmlns="http://www.w3.org/2000/svg">
<rect width="91.978" height="66" rx="5" fill="#F1F1F1"/>
<rect x="21.4506" y="9" width="49.0989" height="47" rx="7" stroke="#111111" stroke-width="2"/>
<path d="M47.1766 27.4542C47.1313 23.2837 43.6422 19.9561 39.3828 20.0004H31V45.9556H35.35V36.5053H39.1109C43.5516 36.4609 47.1766 32.8671 47.1766 28.4747V27.4542ZM42.8266 28.7853C42.8266 31.0037 40.9688 32.8227 38.7031 32.8227H35.35V23.6386H38.7031C40.9688 23.6386 42.8266 25.4577 42.8266 27.6761V28.7853ZM50.8469 45.9556V28.2529C50.8469 28.2529 55.4688 25.9901 60 26.5669V30.2494C60 30.2494 56.8281 30.2494 55.4234 30.8262V46H50.8469V45.9556Z" fill="#111111"/>
</svg>
