<svg width="48" height="56" viewBox="0 0 48 56" fill="none" xmlns="http://www.w3.org/2000/svg">
<path d="M13.6182 51.2541C11.4462 55.736 8.00332 55.0127 5.26867 52.0525C6.96062 52.013 8.34171 51.4952 9.11292 49.9578C9.70707 48.7721 9.87626 47.4995 9.83692 46.1557C7.5587 45.8395 5.47328 45.1755 3.63969 43.8199C0.814538 41.7331 -0.613776 37.8124 0.251868 34.4174C1.0939 31.1133 4.7729 29.1806 7.7515 30.5679C8.53058 30.9315 9.14834 31.631 9.892 32.212C9.892 31.1686 9.91955 30.0896 9.86446 29.0146C9.85659 28.8407 9.49853 28.6312 9.26244 28.5324C6.66551 27.4297 4.59583 25.7224 3.1321 23.2759C0.22826 18.4146 2.837 11.4704 8.72338 9.88951C9.99037 9.54961 9.99431 9.5338 9.83298 8.21769C9.76216 7.64461 9.6992 7.06758 9.55755 6.5103C9.16014 4.92939 8.05448 4.03617 6.40975 3.87018C6.04775 3.83461 5.69756 3.69628 5.25687 3.58561C7.88922 0.459355 10.7498 0.822966 13.3192 4.49069C13.9291 3.98084 14.5271 3.45519 15.1449 2.96115C20.6693 -1.44169 30.8052 -0.252055 34.2284 7.64461C34.7793 8.91725 35.4207 9.62075 36.8844 9.81046C38.9383 10.0792 40.7365 11.0594 42.2356 12.5731C44.1715 14.5295 44.7578 17.9798 43.4751 20.2761C42.5071 22.0072 40.4925 22.8451 38.596 22.3115C38.3284 22.2364 38.0569 22.1574 37.7933 22.0784C37.754 22.1772 37.7146 22.2285 37.7185 22.276C37.7815 23.5288 38.3875 24.0545 39.6702 24.3628C44.1991 25.4576 47.7718 29.4217 47.9804 33.5874C48.2715 39.3894 45.1316 44.7012 38.5409 46.215C37.5926 46.4323 36.6089 46.539 35.6371 46.5865C35.0508 46.6181 34.7754 46.8236 34.5707 47.3572C33.6658 49.689 32.3555 51.7521 30.2897 53.2145C26.0992 56.1787 19.1859 56.483 14.5625 52.1118C14.2714 51.843 13.9763 51.5822 13.6182 51.2541ZM31.4111 26.252L31.4151 26.2559C31.5252 25.8963 31.6551 25.5445 31.7456 25.1809C31.9974 24.1889 31.5213 23.5051 30.518 23.4775C30.1599 23.4696 29.8018 23.6316 29.4398 23.6751C29.247 23.6988 28.9952 23.6909 28.8536 23.5842C28.7552 23.5091 28.7552 23.2364 28.7906 23.0664C28.826 22.8846 28.9559 22.7226 29.0424 22.5526C24.7772 20.4777 23.6715 18.4027 22.8177 15.1144C22.7272 15.4701 22.6642 15.7152 22.6052 15.9602C22.0622 18.1616 21.2516 20.2445 19.3354 21.608C16.282 23.7857 12.9218 24.0031 9.47098 22.7661C7.21637 21.9558 5.82347 19.9402 5.8038 17.7783C5.78412 15.4741 6.94488 13.822 9.28605 12.8102C9.50246 12.7154 9.6992 12.5889 10.073 12.3874C8.60927 12.3715 6.90946 13.5138 6.13825 14.9326C4.69813 17.5846 5.36311 19.9165 7.29113 22.0744C6.92127 21.8728 6.61042 21.6357 6.35466 21.3551C4.25351 19.0707 4.38729 13.9841 8.79814 12.166C10.0612 11.6443 10.073 11.6088 9.81331 10.1662C9.60083 10.1662 9.37262 10.1306 9.15621 10.1701C4.66272 11.0238 1.37721 16.229 2.51828 20.6713C3.60427 24.8845 7.59017 28.1214 12.186 28.6668C14.7514 28.9711 17.1792 29.7893 19.3039 31.3227C21.051 32.5835 22.2471 34.2672 22.9396 36.524C24.0059 33.9629 25.4775 31.9907 27.6417 30.556C29.794 29.1292 32.2414 28.8051 34.7242 28.5561C33.1582 28.2321 31.6472 28.485 30.1796 28.9514C27.0121 29.9632 24.7299 32.0539 23.1324 35.1367C23.1757 34.1763 23.5889 33.3977 24.4742 32.3503C27.2088 29.1253 30.7816 27.8645 35.1846 27.9317C34.8737 27.2163 34.7793 26.4298 34.3701 26.1848C33.894 25.9002 33.1346 26.0662 32.5011 26.082C32.143 26.0978 31.7771 26.1966 31.4111 26.252ZM23.0144 49.9222C24.1358 47.7919 26.2802 46.9066 28.645 46.5509C31.0019 46.1952 33.3864 46.049 35.763 45.8395C39.5128 45.5115 42.7668 44.1835 45.0254 41.0217C48.0669 36.7571 48.8263 29.809 42.5504 26.0109C41.2283 25.2125 39.8158 24.6473 38.293 24.4221C38.3127 26.0109 39.5246 27.2638 39.1036 28.896C39.3397 29.0779 39.623 29.2755 39.8787 29.5007C40.1266 29.7181 40.3509 29.9671 40.587 30.2003C40.5594 30.224 40.528 30.2477 40.5004 30.2714C39.9889 29.9513 39.4734 29.6272 38.9619 29.3071C38.9108 29.3861 38.8596 29.4612 38.8085 29.5403C38.8872 29.6075 38.958 29.6905 39.0485 29.7379C43.4908 32.0974 43.2115 38.4566 39.2885 41.2114C36.9985 42.816 34.4606 42.6698 31.8991 42.1322C29.975 41.7291 28.2988 40.824 26.9019 39.3498C26.2724 42.069 25.2415 43.2073 23.3961 43.3258C22.2274 43.4009 21.0509 43.2389 20.3033 42.3259C19.6069 41.4801 19.2016 40.3972 18.6704 39.4289C17.3602 40.8003 16.8683 42.6105 16.9588 44.638C16.9903 45.3415 17.1477 45.7921 17.9818 45.9343C18.7531 46.0687 19.4849 46.464 20.2207 46.7762C20.4096 46.8592 20.5434 47.0726 20.7598 47.2781C19.54 46.8631 18.458 46.4956 17.3759 46.1241C17.3444 46.215 17.3129 46.3098 17.2775 46.4007C18.3242 46.8038 19.4534 47.0726 20.3938 47.6457C21.3382 48.2306 22.1015 49.112 23.0144 49.9222ZM39.9299 19.5252C39.9181 19.3908 39.8866 19.2801 39.9023 19.1774C40.1148 17.6241 38.9423 16.6163 37.4549 17.0906C36.7427 17.3159 36.243 17.7862 36.121 18.5371C35.9558 19.5331 36.306 20.371 37.0851 20.9954C38.8006 22.3748 41.5667 21.8333 42.7235 19.869C43.7545 18.1142 43.7072 16.2645 42.9242 14.4544C41.909 12.1067 39.9063 10.8894 37.5572 10.3638C34.8108 9.74723 32.0092 9.40338 29.2352 8.91329C26.658 8.45878 24.3601 7.51814 22.9632 5.09143C22.9318 5.0361 22.8295 5.01634 22.7311 4.96496C21.712 6.84625 20.1342 7.97265 18.1314 8.51016C17.5884 8.65639 17.2854 8.9291 17.2185 9.49823C17.1359 10.2136 16.9431 10.925 16.947 11.6364C16.9509 12.0277 17.2579 12.419 17.4231 12.8142C17.4428 12.8616 17.431 12.9249 17.4349 12.9841C17.2933 12.9921 17.1595 13.0039 16.8408 13.0237C17.6198 13.6442 18.2573 14.1501 18.9773 14.7232C19.3747 12.3597 20.7676 11.095 23.0577 11.1345C25.2729 11.17 26.6108 12.419 26.9137 14.822C29.0896 12.6956 31.5961 11.9486 34.433 12.3202C36.5106 12.5929 38.5134 13.0988 40.0794 14.6283C41.5274 16.0432 41.4566 18.3711 39.9299 19.5252ZM19.6935 37.5357C19.7407 37.9547 19.7958 38.2037 19.7879 38.4487C19.7761 38.7649 19.6895 39.0771 19.6777 39.3933C19.6148 41.4999 20.866 42.899 22.8334 42.9306C24.8991 42.9662 26.3432 41.5789 26.3668 39.5119C26.3747 38.9348 26.3196 38.3578 26.292 37.7847C27.2915 39.3854 28.5348 40.6027 30.6085 41.2588C30.4275 39.5316 30.3763 37.9744 30.0773 36.4686C29.7782 34.9509 29.2352 33.4807 28.8103 32.0223C30.9193 32.4689 32.0761 31.631 31.5607 29.813C26.7445 31.0619 24.2106 34.4095 22.916 39.1206C22.7665 34.0577 19.8627 31.4334 15.2983 30.0106C15.3888 31.0105 15.3967 31.88 15.558 32.7219C15.9122 34.5281 16.2978 36.3303 16.7699 38.1049C16.9195 38.6621 17.3995 39.1285 17.8205 39.7767C18.5091 38.9586 19.0324 38.3302 19.6935 37.5357ZM26.8704 16.3001C26.7878 16.2724 26.7013 16.2487 26.6186 16.2211C26.595 15.8061 26.5675 15.3911 26.5517 14.9761C26.4927 13.4149 25.7648 12.3874 24.4152 11.9684C22.0386 11.2333 19.7171 12.9288 19.6856 15.4267C19.6817 15.7428 19.6856 16.059 19.6856 16.3752C19.603 16.391 19.5243 16.4108 19.4416 16.4266C18.9537 15.4029 18.3911 14.4583 17.01 13.9564C17.4861 14.8259 17.8481 15.4899 18.1825 16.1025C16.2466 17.9126 16.042 20.3275 15.6328 23.0071C16.6716 22.5684 17.5215 22.3115 18.273 21.8768C20.7952 20.4184 21.8418 17.9917 22.3966 15.2725C22.5029 14.7587 22.6327 14.2528 22.7547 13.743C22.8963 13.6837 23.038 13.6284 23.1796 13.5691C23.6676 17.5411 25.2218 20.6951 29.1605 22.027C30.1638 20.3907 30.8996 15.1381 30.3291 13.5809C28.8418 14.0631 27.803 15.1065 26.8704 16.3001ZM9.78183 45.1834C7.99152 44.7408 6.16186 44.4325 4.60764 43.3179C6.29958 43.7883 7.98758 44.2625 9.77396 44.7566C9.82905 44.2942 9.892 44.0135 9.88807 43.7329C9.85659 41.7924 10.2343 42.1876 8.37319 41.9307C4.85553 41.4564 2.60091 37.7373 3.87971 34.4174C4.04103 33.9984 4.43057 33.6665 4.70994 33.2949C4.8752 33.7534 4.82405 34.0656 4.82405 34.3739C4.82405 35.9272 6.35466 37.0219 7.82626 36.5279C9.58116 35.9351 10.195 34.0143 9.16801 32.3306C8.07415 30.5362 5.76052 29.9592 3.6751 30.9789C1.25916 32.1606 0.373846 34.1644 0.452541 36.7888C0.613865 42.2073 5.18998 45.1992 9.78183 45.1834ZM36.2037 41.8872C39.1508 41.7331 41.7399 38.7965 41.9287 35.6584C42.0468 33.6783 40.8821 30.6627 38.4583 30.2793C37.7107 34.1131 36.967 37.9547 36.2037 41.8872ZM9.86053 13.656C8.18432 13.7865 6.61436 15.897 6.51205 17.8494C6.40582 19.8888 7.97185 22.1969 9.86053 22.3432C9.86053 19.4461 9.86053 16.5531 9.86053 13.656ZM4.46598 35.3027C3.51771 38.8044 6.45697 42.2311 9.7897 41.5315C9.82118 40.9782 9.87626 40.4091 9.88413 39.8399C9.89987 38.6977 9.88807 37.5555 9.88807 36.354C7.37376 37.9665 6.09891 37.7175 4.46598 35.3027ZM40.3981 18.2525C40.8663 17.4305 40.8703 16.4147 40.3312 15.5848C39.3554 14.0868 37.7736 13.7193 36.1132 13.2766C36.3768 14.5493 36.6089 15.6677 36.8411 16.7783C38.9777 16.4463 39.5482 16.6914 40.3981 18.2525ZM17.4349 47.1793C18.5209 49.8629 20.4411 51.179 22.5343 50.7482C21.7789 48.2543 19.5951 47.8828 17.4349 47.1793ZM29.0542 8.4904C28.1689 6.39569 25.8317 4.97287 23.6203 5.13886C24.7378 7.3719 26.8114 7.96079 29.0542 8.4904ZM28.7827 47.4283C26.5084 47.5745 24.1279 49.1357 23.7817 50.7443C25.9694 50.3965 27.6574 49.4005 28.7827 47.4283ZM22.2314 5.09539C20.1774 5.0282 18.2691 6.38383 17.7103 8.28093C19.6187 7.80665 21.1296 6.8423 22.2314 5.09539ZM14.9049 51.7086C14.9088 51.7521 14.9088 51.7956 14.9127 51.8391C20.1105 51.8391 25.3083 51.8391 30.5062 51.8391C30.5062 51.7956 30.5062 51.7521 30.5062 51.7086C25.3044 51.7086 20.1066 51.7086 14.9049 51.7086ZM15.322 3.30105C15.3338 3.34057 15.3416 3.38009 15.3534 3.41962C20.3348 3.41962 25.3123 3.41962 30.2937 3.41962C30.2937 3.38009 30.2937 3.34057 30.2937 3.30105C25.3005 3.30105 20.3112 3.30105 15.322 3.30105ZM29.7192 2.89001C29.7192 2.85049 29.7192 2.81096 29.7192 2.77144C25.1785 2.77144 20.6417 2.77144 16.101 2.77144C16.101 2.81096 16.101 2.85049 16.101 2.89001C20.6378 2.89001 25.1785 2.89001 29.7192 2.89001ZM17.5254 53.4121C17.5333 53.4516 17.5412 53.4911 17.549 53.5306C21.0746 53.5306 24.5962 53.5306 28.1217 53.5306C28.1217 53.4911 28.1217 53.4516 28.1178 53.4121C24.5883 53.4121 21.0588 53.4121 17.5254 53.4121ZM17.1044 2.18255C17.1044 2.22998 17.1083 2.27741 17.1083 2.32483C20.9841 2.32483 24.8637 2.32483 28.7394 2.32483C28.7394 2.27741 28.7394 2.22998 28.7394 2.18255C24.8598 2.18255 20.9841 2.18255 17.1044 2.18255ZM14.7986 3.9176C14.7986 3.95318 14.7986 3.98875 14.7986 4.02432C20.1774 4.02432 25.5523 4.02432 30.9311 4.02432C30.9311 3.98875 30.9311 3.95318 30.9311 3.9176C25.5562 3.9176 20.1774 3.9176 14.7986 3.9176ZM10.0376 6.20993C10.0376 6.24155 10.0376 6.27317 10.0415 6.30478C12.6267 6.30478 15.2118 6.30478 17.7969 6.30478C17.7969 6.27317 17.7969 6.24155 17.793 6.20993C15.2039 6.20993 12.6227 6.20993 10.0376 6.20993ZM17.3759 6.89763C17.3759 6.85811 17.3759 6.82253 17.3759 6.78301C14.9757 6.78301 12.5794 6.78301 10.1792 6.78301C10.1792 6.82253 10.1792 6.85811 10.1832 6.89763C12.5794 6.89763 14.9796 6.89763 17.3759 6.89763ZM15.8256 52.3212C15.8256 52.345 15.8256 52.3726 15.8256 52.3963C20.445 52.3963 25.0683 52.3963 29.6877 52.3963C29.6877 52.3726 29.6877 52.345 29.6877 52.3212C25.0683 52.3212 20.445 52.3212 15.8256 52.3212ZM31.5331 4.56973C31.5292 4.53021 31.5292 4.49069 31.5253 4.45116C29.1841 4.45116 26.8468 4.45116 24.5057 4.45116C24.5057 4.49069 24.5017 4.53021 24.5017 4.56973C26.8468 4.56973 29.1919 4.56973 31.5331 4.56973ZM17.1516 48.3769C17.1516 48.3413 17.1516 48.3057 17.1516 48.2741C14.8852 48.2741 12.6227 48.2741 10.3563 48.2741C10.3563 48.3097 10.3563 48.3452 10.3563 48.3769C12.6227 48.3769 14.8891 48.3769 17.1516 48.3769ZM18.7531 53.9733C18.7531 54.0128 18.7491 54.0523 18.7491 54.0919C21.3461 54.0919 23.943 54.0919 26.5439 54.0919C26.5439 54.0523 26.5439 54.0128 26.5439 53.9733C23.943 53.9733 21.3461 53.9733 18.7531 53.9733ZM10.372 15.4267C10.372 15.4701 10.372 15.5097 10.372 15.5531C12.5991 15.5531 14.8262 15.5531 17.0532 15.5531C17.0532 15.5097 17.0532 15.4701 17.0532 15.4267C14.8262 15.4267 12.5991 15.4267 10.372 15.4267ZM30.0497 33.8245C30.0497 33.8641 30.0497 33.9036 30.0497 33.9431C32.2768 33.9431 34.5078 33.9431 36.7349 33.9431C36.7349 33.9036 36.7349 33.8641 36.7309 33.8245C34.5039 33.8245 32.2768 33.8245 30.0497 33.8245ZM10.3642 7.92917C10.3681 7.9687 10.3681 8.00822 10.372 8.04774C12.5165 8.04774 14.657 8.04774 16.8014 8.04774C16.8014 8.00822 16.7975 7.9687 16.7975 7.92917C14.653 7.92917 12.5086 7.92917 10.3642 7.92917ZM30.2228 21.1575C30.2228 21.197 30.2189 21.2405 30.2189 21.28C32.3319 21.28 34.4448 21.28 36.5578 21.28C36.5578 21.2405 36.5578 21.197 36.5578 21.1575C34.4448 21.1575 32.3358 21.1575 30.2228 21.1575ZM14.0314 4.45907C14.0314 4.49464 14.0353 4.53021 14.0353 4.56578C16.2033 4.56578 18.3714 4.56578 20.5394 4.56578C20.5394 4.53021 20.5355 4.49464 20.5355 4.45907C18.3675 4.45907 16.1994 4.45907 14.0314 4.45907ZM29.7979 33.2752C29.7979 33.3147 29.7979 33.3582 29.7979 33.3977C32.1391 33.3977 34.4802 33.3977 36.8214 33.3977C36.8214 33.3582 36.8214 33.3147 36.8214 33.2752C34.4763 33.2752 32.1391 33.2752 29.7979 33.2752ZM16.6401 40.8991C16.6401 40.8557 16.6401 40.8161 16.6401 40.7727C14.5586 40.7727 12.4771 40.7727 10.3917 40.7727C10.3917 40.8161 10.3917 40.8557 10.3917 40.8991C12.4771 40.8991 14.5586 40.8991 16.6401 40.8991ZM10.3602 15.98C10.3602 16.0116 10.3602 16.0432 10.3602 16.0748C12.5165 16.0748 14.6688 16.0748 16.825 16.0748C16.825 16.0432 16.825 16.0116 16.825 15.98C14.6688 15.98 12.5125 15.98 10.3602 15.98ZM10.3642 8.47064C10.3642 8.51411 10.3602 8.55364 10.3602 8.59711C12.4142 8.59711 14.4642 8.59711 16.5181 8.59711C16.5181 8.55364 16.5181 8.51411 16.5181 8.47064C14.4642 8.47064 12.4142 8.47064 10.3642 8.47064ZM16.5299 52.8785C16.5299 52.9022 16.5299 52.9299 16.5299 52.9536C20.689 52.9536 24.848 52.9536 29.0109 52.9536C29.0109 52.9299 29.0109 52.9022 29.0109 52.8785C24.8519 52.8785 20.6929 52.8785 16.5299 52.8785ZM10.4114 46.5153C10.4153 46.547 10.4193 46.5786 10.4232 46.6102C12.4417 46.6102 14.4563 46.6102 16.4748 46.6102C16.4748 46.5786 16.4709 46.547 16.4709 46.5153C14.4484 46.5153 12.4299 46.5153 10.4114 46.5153ZM16.4984 39.1641C16.4984 39.1206 16.5024 39.0811 16.5024 39.0376C14.472 39.0376 12.4417 39.0376 10.4075 39.0376C10.4075 39.0811 10.4075 39.1206 10.4075 39.1641C12.4378 39.1641 14.4681 39.1641 16.4984 39.1641ZM16.345 13.8339C16.345 13.7944 16.345 13.7588 16.345 13.7193C14.354 13.7193 12.363 13.7193 10.372 13.7193C10.372 13.7588 10.376 13.7944 10.376 13.8339C12.363 13.8339 14.354 13.8339 16.345 13.8339ZM37.0772 23.0111C37.0732 22.9676 37.0693 22.9281 37.0654 22.8846C35.0626 22.8846 33.0598 22.8846 31.0531 22.8846C31.0531 22.9281 31.0531 22.9676 31.0531 23.0111C33.0637 23.0111 35.0705 23.0111 37.0772 23.0111ZM16.3371 41.4366C16.3332 41.3971 16.3332 41.3576 16.3293 41.3141C14.3501 41.3141 12.3709 41.3141 10.3917 41.3141C10.3917 41.3536 10.3917 41.3932 10.3917 41.4366C12.3748 41.4366 14.3579 41.4366 16.3371 41.4366ZM30.4511 35.5596C30.4471 35.6031 30.4471 35.6465 30.4432 35.69C32.4302 35.69 34.4173 35.69 36.4004 35.69C36.4004 35.6465 36.4004 35.6031 36.4004 35.5596C34.4212 35.5596 32.4381 35.5596 30.4511 35.5596ZM16.1561 17.304C16.1561 17.2645 16.1601 17.2249 16.1601 17.1854C14.232 17.1854 12.3001 17.1854 10.372 17.1854C10.372 17.2249 10.376 17.2645 10.376 17.304C12.3001 17.304 14.2281 17.304 16.1561 17.304ZM16.1719 10.3638C16.1719 10.3282 16.1679 10.2926 16.1679 10.2571C14.2399 10.2571 12.3119 10.2571 10.3838 10.2571C10.3838 10.2926 10.3878 10.3282 10.3878 10.3638C12.3158 10.3638 14.2438 10.3638 16.1719 10.3638ZM10.3602 11.9368C10.3602 11.9763 10.3602 12.0158 10.3642 12.0554C12.2922 12.0554 14.2202 12.0554 16.1483 12.0554C16.1483 12.0158 16.1443 11.9763 16.1443 11.9368C14.2163 11.9368 12.2883 11.9368 10.3602 11.9368ZM10.3917 44.7724C10.3917 44.8158 10.3878 44.8554 10.3878 44.8988C12.3079 44.8988 14.2281 44.8988 16.1483 44.8988C16.1483 44.8554 16.1483 44.8158 16.1483 44.7724C14.2281 44.7724 12.3079 44.7724 10.3917 44.7724ZM30.2504 20.6002C30.2543 20.6437 30.2583 20.6832 30.2622 20.7267C32.1942 20.7267 34.1222 20.7267 36.0541 20.7267C36.0541 20.6832 36.0541 20.6437 36.0502 20.6002C34.1183 20.6002 32.1863 20.6002 30.2504 20.6002ZM16.1207 43.1717C16.1207 43.1361 16.1207 43.0966 16.1207 43.061C14.2163 43.061 12.3158 43.061 10.4114 43.061C10.4114 43.0966 10.4114 43.1361 10.4114 43.1717C12.3119 43.1717 14.2163 43.1717 16.1207 43.1717ZM10.4311 9.65632C10.4311 9.69189 10.4311 9.72746 10.4311 9.76303C12.3748 9.76303 14.3186 9.76303 16.2663 9.76303C16.2663 9.72746 16.2663 9.69189 16.2663 9.65632C14.3186 9.65632 12.3748 9.65632 10.4311 9.65632ZM10.4153 44.2349C10.4153 44.2704 10.4153 44.3021 10.4153 44.3376C12.3158 44.3376 14.2163 44.3376 16.1128 44.3376C16.1128 44.3021 16.1128 44.2704 16.1128 44.2349C14.2124 44.2349 12.3119 44.2349 10.4153 44.2349ZM18.4107 1.5818C18.4107 1.62133 18.4107 1.66085 18.4107 1.70433C21.4208 1.70433 24.4309 1.70433 27.441 1.70433C27.441 1.6648 27.441 1.62528 27.441 1.5818C24.4348 1.5818 21.4208 1.5818 18.4107 1.5818ZM10.4035 11.4032C10.3996 11.4467 10.3996 11.4902 10.3957 11.5337C12.3001 11.5337 14.2045 11.5337 16.1089 11.5337C16.1089 11.4902 16.1089 11.4467 16.1089 11.4032C14.2045 11.4032 12.304 11.4032 10.4035 11.4032ZM10.4114 42.5038C10.4114 42.5433 10.4114 42.5789 10.4114 42.6184C12.3158 42.6184 14.2242 42.6184 16.1286 42.6184C16.1286 42.5789 16.1286 42.5433 16.1286 42.5038C14.2242 42.5038 12.3197 42.5038 10.4114 42.5038ZM31.4898 32.0934C31.4859 32.1369 31.482 32.1764 31.478 32.2199C33.347 32.2199 35.216 32.2199 37.0851 32.2199C37.0851 32.1764 37.0851 32.1369 37.0851 32.0934C35.22 32.0934 33.3549 32.0934 31.4898 32.0934ZM32.0171 5.15467C32.0171 5.1191 32.0171 5.08353 32.0171 5.04796C30.156 5.04796 28.2988 5.04796 26.4376 5.04796C26.4376 5.08353 26.4376 5.1191 26.4376 5.15467C28.2988 5.15467 30.1599 5.15467 32.0171 5.15467ZM36.1879 37.433C36.1879 37.4014 36.1879 37.3658 36.184 37.3342C34.3779 37.3342 32.5719 37.3342 30.7658 37.3342C30.7658 37.3658 30.7658 37.4014 30.7698 37.433C32.5719 37.433 34.3779 37.433 36.1879 37.433ZM10.3838 17.6992C10.3838 17.7387 10.3838 17.7783 10.3838 17.8217C12.1978 17.8217 14.0077 17.8217 15.8217 17.8217C15.8217 17.7822 15.8217 17.7427 15.8217 17.6992C14.0077 17.6992 12.1978 17.6992 10.3838 17.6992ZM10.3878 37.2907C10.3878 37.3342 10.3878 37.3777 10.3878 37.4211C12.1427 37.4211 13.8976 37.4211 15.6525 37.4211C15.6525 37.3777 15.6525 37.3342 15.6525 37.2907C13.8976 37.2907 12.1427 37.2907 10.3878 37.2907ZM37.2464 31.7022C37.2464 31.6705 37.2424 31.635 37.2424 31.6034C35.4836 31.6034 33.7248 31.6034 31.9659 31.6034C31.9659 31.635 31.9699 31.6705 31.9699 31.7022C33.7287 31.7022 35.4875 31.7022 37.2464 31.7022ZM19.0836 5.17443C19.0836 5.13491 19.0836 5.09934 19.0875 5.05982C17.2854 5.05982 15.4872 5.05982 13.6851 5.05982C13.6851 5.09934 13.689 5.13491 13.689 5.17443C15.4872 5.17443 17.2854 5.17443 19.0836 5.17443ZM25.4815 1.20238C25.4854 1.15496 25.4893 1.11148 25.4972 1.06405C23.6282 1.06405 21.7592 1.06405 19.8902 1.06405C19.8902 1.11148 19.8902 1.15496 19.8902 1.20238C21.7513 1.20238 23.6164 1.20238 25.4815 1.20238ZM30.9154 17.1499C30.9154 17.1933 30.9154 17.2368 30.9193 17.2803C32.6348 17.2803 34.3465 17.2803 36.062 17.2803C36.062 17.2368 36.062 17.1933 36.0581 17.1499C34.3465 17.1499 32.6309 17.1499 30.9154 17.1499ZM37.4431 24.758C37.4431 24.7185 37.4431 24.675 37.4431 24.6355C35.7394 24.6355 34.0317 24.6355 32.3279 24.6355C32.3279 24.675 32.3279 24.7185 32.3279 24.758C34.0317 24.758 35.7394 24.758 37.4431 24.758ZM35.8417 17.8336C35.8456 17.7941 35.8535 17.7546 35.8574 17.715C34.1773 17.715 32.4971 17.715 30.817 17.715C30.817 17.7546 30.817 17.7941 30.817 17.8336C32.4893 17.8336 34.1655 17.8336 35.8417 17.8336ZM32.2571 30.3703C32.2571 30.4137 32.2571 30.4532 32.2571 30.4967C34.0199 30.4967 35.7826 30.4967 37.5454 30.4967C37.5454 30.4532 37.5454 30.4137 37.5454 30.3703C35.7826 30.3703 34.0199 30.3703 32.2571 30.3703ZM27.02 49.9854C27.02 50.0171 27.016 50.0487 27.016 50.0803C28.6922 50.0803 30.3684 50.0803 32.0407 50.0803C32.0407 50.0487 32.0368 50.0171 32.0368 49.9854C30.3645 49.9854 28.6922 49.9854 27.02 49.9854ZM10.3878 18.877C10.3917 18.9205 10.3996 18.96 10.4035 19.0035C12.0915 19.0035 13.7756 19.0035 15.4636 19.0035C15.4636 18.96 15.4636 18.9205 15.4597 18.877C13.7677 18.877 12.0797 18.877 10.3878 18.877ZM35.8495 39.1601C35.8456 39.1246 35.8377 39.089 35.8338 39.0495C34.2087 39.0495 32.5837 39.0495 30.9626 39.0495C30.9626 39.085 30.9665 39.1206 30.9665 39.1601C32.5916 39.1601 34.2206 39.1601 35.8495 39.1601ZM35.523 19.5805C35.519 19.537 35.519 19.4975 35.5151 19.454C33.8704 19.454 32.2256 19.454 30.5809 19.454C30.5809 19.4975 30.5809 19.537 30.5848 19.5805C32.2296 19.5805 33.8782 19.5805 35.523 19.5805ZM15.2708 19.5805C15.2747 19.541 15.2787 19.4975 15.2826 19.454C13.6458 19.454 12.0089 19.454 10.372 19.454C10.372 19.4975 10.372 19.537 10.372 19.5805C12.0089 19.5805 13.6418 19.5805 15.2708 19.5805ZM30.6399 18.8731C30.6439 18.9086 30.6478 18.9442 30.6517 18.9837C32.2729 18.9837 33.8979 18.9837 35.519 18.9837C35.519 18.9481 35.5151 18.9126 35.5151 18.8731C33.89 18.8731 32.265 18.8731 30.6399 18.8731ZM15.137 35.7137C15.1331 35.6782 15.1331 35.6386 15.1292 35.6031C13.5434 35.6031 11.9577 35.6031 10.372 35.6031C10.372 35.6386 10.376 35.6782 10.376 35.7137C11.9656 35.7137 13.5513 35.7137 15.137 35.7137ZM13.689 50.0012C13.689 50.0408 13.689 50.0763 13.689 50.1159C15.3102 50.1159 16.9313 50.1159 18.5524 50.1159C18.5524 50.0763 18.5524 50.0408 18.5524 50.0012C16.9313 50.0012 15.3102 50.0012 13.689 50.0012ZM30.9547 15.9879C30.9547 16.0195 30.9547 16.0551 30.9547 16.0867C32.5758 16.0867 34.2009 16.0867 35.822 16.0867C35.822 16.0551 35.822 16.0195 35.822 15.9879C34.2009 15.9879 32.5798 15.9879 30.9547 15.9879ZM35.7236 15.5531C35.7236 15.5097 35.7236 15.4662 35.7236 15.4267C34.1419 15.4267 32.5601 15.4267 30.9744 15.4267C30.9744 15.4701 30.9744 15.5136 30.9744 15.5531C32.5601 15.5531 34.1419 15.5531 35.7236 15.5531ZM32.7647 6.34826C32.7647 6.30478 32.7647 6.26131 32.7686 6.21783C31.2065 6.21783 29.6405 6.21783 28.0784 6.21783C28.0784 6.26131 28.0784 6.30478 28.0784 6.34826C29.6405 6.34826 31.2026 6.34826 32.7647 6.34826ZM11.462 2.88211C11.462 2.85049 11.458 2.81492 11.458 2.7833C9.90381 2.7833 8.34565 2.7833 6.79142 2.7833C6.79142 2.81492 6.79536 2.85049 6.79536 2.88211C8.34958 2.88211 9.90774 2.88211 11.462 2.88211ZM10.3838 21.1614C10.3878 21.2009 10.3917 21.2405 10.3957 21.28C11.9145 21.28 13.4333 21.28 14.9521 21.28C14.9521 21.2405 14.9482 21.2009 14.9482 21.1614C13.4254 21.1614 11.9066 21.1614 10.3838 21.1614ZM10.3957 20.6239C10.3957 20.6674 10.3957 20.7069 10.3957 20.7504C11.9577 20.7504 13.5238 20.7504 15.0859 20.7504C15.0859 20.7069 15.0859 20.6674 15.0859 20.6239C13.5238 20.6239 11.9577 20.6239 10.3957 20.6239ZM30.9744 40.7727C30.9744 40.8082 30.9744 40.8478 30.9783 40.8833C32.4893 40.8833 34.0041 40.8833 35.5151 40.8833C35.5151 40.8478 35.5151 40.8082 35.5151 40.7727C33.9963 40.7727 32.4853 40.7727 30.9744 40.7727ZM6.85044 3.30895C6.85044 3.33662 6.85044 3.36824 6.84651 3.3959C8.56206 3.3959 10.2776 3.3959 11.9892 3.3959C11.9892 3.36824 11.9892 3.33662 11.9932 3.30895C10.2776 3.30895 8.56206 3.30895 6.85044 3.30895ZM33.0952 6.88972C33.0913 6.8502 33.0873 6.81068 33.0873 6.77115C31.6236 6.77115 30.1599 6.77115 28.7001 6.77115C28.7001 6.81068 28.7001 6.8502 28.7001 6.88972C30.1599 6.88972 31.6276 6.88972 33.0952 6.88972ZM35.338 41.4366C35.3341 41.3932 35.3341 41.3536 35.3302 41.3102C33.8782 41.3102 32.4224 41.3102 30.9705 41.3102C30.9705 41.3536 30.9705 41.3932 30.9705 41.4366C32.4263 41.4366 33.8822 41.4366 35.338 41.4366ZM30.9626 13.6718C30.9665 13.7114 30.9665 13.7509 30.9705 13.7904C32.442 13.7904 33.9097 13.7904 35.3813 13.7904C35.3813 13.7509 35.3774 13.7114 35.3774 13.6718C33.9058 13.6718 32.4342 13.6718 30.9626 13.6718ZM10.3957 29.7893C10.3957 29.8367 10.3917 29.8841 10.3917 29.9276C11.7846 29.9276 13.1775 29.9276 14.5744 29.9276C14.5744 29.8802 14.5704 29.8327 14.5704 29.7893C13.1815 29.7893 11.7886 29.7893 10.3957 29.7893ZM10.5216 33.8325C10.5216 33.868 10.5216 33.8996 10.5255 33.9352C11.9381 33.9352 13.3506 33.9352 14.7632 33.9352C14.7632 33.8996 14.7632 33.868 14.7593 33.8325C13.3467 33.8325 11.9341 33.8325 10.5216 33.8325ZM22.1842 51.3015C22.192 51.2699 22.1999 51.2383 22.2117 51.2106C19.5912 51.2106 16.9706 51.2106 14.3501 51.2106C14.3501 51.2423 14.3501 51.2739 14.3501 51.3015C16.9588 51.3015 19.5715 51.3015 22.1842 51.3015ZM10.4075 32.0737C10.4075 32.1172 10.4035 32.1567 10.4035 32.2002C11.8043 32.2002 13.2051 32.2002 14.6058 32.2002C14.6058 32.1567 14.6019 32.1172 14.6019 32.0737C13.2011 32.0737 11.8043 32.0737 10.4075 32.0737ZM14.7593 33.4056C14.7593 33.374 14.7554 33.3463 14.7554 33.3147C13.2956 33.3147 11.8358 33.3147 10.376 33.3147C10.376 33.3463 10.376 33.374 10.3799 33.4056C11.8397 33.4056 13.2995 33.4056 14.7593 33.4056ZM36.9591 22.4538C36.9591 22.4301 36.9591 22.4064 36.9552 22.3827C34.5471 22.3827 32.1351 22.3827 29.7271 22.3827C29.7271 22.4064 29.731 22.4301 29.731 22.4538C32.1391 22.4538 34.5511 22.4538 36.9591 22.4538ZM10.3996 31.5362C10.3996 31.5796 10.3957 31.6192 10.3957 31.6626C11.8004 31.6626 13.209 31.6626 14.6137 31.6626C14.6137 31.6192 14.6098 31.5796 14.6098 31.5362C13.2051 31.5362 11.8043 31.5362 10.3996 31.5362ZM10.3878 30.3663C10.3838 30.4058 10.3799 30.4414 10.376 30.4809C11.7689 30.4809 13.1618 30.4809 14.5547 30.4809C14.5547 30.4414 14.5507 30.4058 14.5507 30.3663C13.1618 30.3663 11.7767 30.3663 10.3878 30.3663ZM28.9047 48.2227C28.9008 48.2622 28.8968 48.3057 28.8929 48.3452C30.2858 48.3452 31.6826 48.3452 33.0755 48.3452C33.0755 48.3057 33.0716 48.2622 33.0716 48.2227C31.6826 48.2227 30.2937 48.2227 28.9047 48.2227ZM29.4084 7.94894C29.4084 7.98451 29.4084 8.02008 29.4123 8.0596C30.8209 8.0596 32.2256 8.0596 33.6343 8.0596C33.6343 8.02403 33.6343 7.98846 33.6303 7.94894C32.2217 7.94894 30.817 7.94894 29.4084 7.94894ZM33.9254 8.62082C33.9215 8.57735 33.9136 8.53387 33.9097 8.4904C32.5168 8.4904 31.1239 8.4904 29.731 8.4904C29.731 8.53387 29.731 8.57735 29.7349 8.62082C31.1278 8.62082 32.5247 8.62082 33.9254 8.62082ZM12.1781 51.8509C12.1781 51.8193 12.1781 51.7877 12.182 51.7521C10.8442 51.7521 9.51033 51.7521 8.17252 51.7521C8.17645 51.7837 8.17645 51.8153 8.18039 51.8509C9.51033 51.8509 10.8442 51.8509 12.1781 51.8509ZM23.6715 51.1514C23.6636 51.1909 23.6558 51.2344 23.6479 51.2739C26.1268 51.2739 28.6057 51.2739 31.0846 51.2739C31.0846 51.2344 31.0846 51.1909 31.0846 51.1514C28.6096 51.1514 26.1425 51.1514 23.6715 51.1514ZM12.6896 4.60925C12.6896 4.56578 12.6896 4.5223 12.6896 4.47883C11.462 4.47883 10.2383 4.47883 9.01062 4.47883C9.01062 4.5223 9.01062 4.56578 9.01062 4.60925C10.2343 4.60925 11.462 4.60925 12.6896 4.60925ZM30.8603 37.8598C30.8563 37.8994 30.8485 37.9389 30.8445 37.9784C32.568 37.9784 34.2914 37.9784 36.0187 37.9784C36.0187 37.9389 36.0187 37.8994 36.0187 37.8598C34.2953 37.8598 32.5758 37.8598 30.8603 37.8598ZM29.6562 32.706C29.672 32.7298 29.6877 32.7574 29.7035 32.7811C32.1194 32.7811 34.5314 32.7811 36.9473 32.7811C36.9473 32.7574 36.9473 32.7298 36.9473 32.706C34.5196 32.706 32.0879 32.706 29.6562 32.706ZM10.3288 48.8551C10.3209 48.8788 10.313 48.9025 10.3091 48.9262C12.6699 48.9262 15.0347 48.9262 17.3956 48.9262C17.3956 48.9025 17.3956 48.8788 17.3956 48.8551C15.0426 48.8551 12.6857 48.8551 10.3288 48.8551ZM29.9868 21.7622C29.9868 21.7898 29.9868 21.8215 29.9868 21.8491C32.261 21.8491 34.5393 21.8491 36.8136 21.8491C36.8136 21.8215 36.8136 21.7898 36.8136 21.7622C34.5393 21.7622 32.261 21.7622 29.9868 21.7622ZM11.2731 22.8886C11.2613 22.9202 11.2495 22.9518 11.2377 22.9834C12.4024 22.9834 13.5631 22.9834 14.7278 22.9834C14.7317 22.9518 14.7317 22.9202 14.7357 22.8886C13.5789 22.8886 12.426 22.8886 11.2731 22.8886ZM9.51427 5.03215C9.51427 5.07167 9.51427 5.11515 9.51033 5.15467C10.6199 5.15467 11.7335 5.15467 12.8431 5.15467C12.8431 5.11515 12.8431 5.07167 12.8431 5.03215C11.7335 5.03215 10.6239 5.03215 9.51427 5.03215ZM10.4783 39.6146C10.4861 39.6384 10.498 39.666 10.5058 39.6897C12.6975 39.6897 14.8852 39.6897 17.0769 39.6897C17.0769 39.666 17.0769 39.6384 17.0729 39.6146C14.8773 39.6146 12.6778 39.6146 10.4783 39.6146ZM16.7621 47.7959C16.7621 47.7643 16.7621 47.7326 16.7621 47.701C14.6727 47.701 12.5873 47.701 10.498 47.701C10.498 47.7326 10.498 47.7643 10.498 47.7959C12.5873 47.7959 14.6767 47.7959 16.7621 47.7959ZM16.8801 40.2747C16.8762 40.251 16.8762 40.2272 16.8722 40.2035C14.7357 40.2035 12.5991 40.2035 10.4586 40.2035C10.4586 40.2272 10.4586 40.251 10.4586 40.2747C12.5991 40.2747 14.7396 40.2747 16.8801 40.2747ZM16.6834 14.9682C16.6794 14.9326 16.6794 14.8971 16.6755 14.8615C14.598 14.8615 12.5244 14.8615 10.4468 14.8615C10.4468 14.8971 10.4468 14.9326 10.4468 14.9682C12.5283 14.9682 14.6058 14.9682 16.6834 14.9682ZM37.5061 25.3232C37.5061 25.2837 37.5061 25.2441 37.5021 25.2046C36.3138 25.2046 35.1255 25.2046 33.9333 25.2046C33.9333 25.2441 33.9333 25.2837 33.9333 25.3232C35.1295 25.3232 36.3178 25.3232 37.5061 25.3232ZM16.8841 7.45095C16.8841 7.42328 16.888 7.39957 16.888 7.3719C14.7396 7.3719 12.5873 7.3719 10.4389 7.3719C10.4389 7.39957 10.4389 7.42328 10.4389 7.45095C12.5873 7.45095 14.7357 7.45095 16.8841 7.45095ZM12.8667 50.1356C12.8627 50.0961 12.8627 50.0566 12.8588 50.0131C11.8082 50.0131 10.7616 50.0131 9.71101 50.0131C9.71101 50.0526 9.71494 50.0922 9.71494 50.1356C10.7695 50.1356 11.82 50.1356 12.8667 50.1356ZM30.3252 34.4174C30.3252 34.4411 30.3252 34.4648 30.3252 34.4925C32.4302 34.4925 34.5393 34.4925 36.6444 34.4925C36.6444 34.4688 36.6444 34.4451 36.6444 34.4174C34.5393 34.4174 32.4342 34.4174 30.3252 34.4174ZM34.5983 29.8209C34.5983 29.8565 34.6022 29.896 34.6022 29.9315C35.6489 29.9315 36.6916 29.9315 37.7382 29.9315C37.7343 29.896 37.7343 29.8565 37.7304 29.8209C36.6837 29.8209 35.641 29.8209 34.5983 29.8209ZM10.738 2.33669C10.738 2.30112 10.734 2.26555 10.734 2.22998C9.75035 2.22998 8.76667 2.22998 7.78298 2.22998C7.78298 2.26555 7.78691 2.30112 7.78691 2.33669C8.7706 2.33669 9.75429 2.33669 10.738 2.33669ZM30.3488 35.0181C30.3488 35.0498 30.3488 35.0774 30.3488 35.109C32.387 35.109 34.4252 35.109 36.4673 35.109C36.4673 35.0774 36.4673 35.0498 36.4673 35.0181C34.4291 35.0181 32.387 35.0181 30.3488 35.0181ZM16.5771 47.1912C16.5771 47.1675 16.5771 47.1437 16.5771 47.12C14.5507 47.12 12.5283 47.12 10.5019 47.12C10.5019 47.1437 10.5019 47.1675 10.5019 47.1912C12.5244 47.1912 14.5507 47.1912 16.5771 47.1912ZM16.1443 13.2371C16.1483 13.2055 16.1522 13.1699 16.1561 13.1383C14.232 13.1383 12.3119 13.1383 10.3878 13.1383C10.3878 13.1699 10.3878 13.2055 10.3878 13.2371C12.3079 13.2371 14.2242 13.2371 16.1443 13.2371ZM16.4079 14.3754C16.4079 14.3477 16.4079 14.32 16.4079 14.2924C14.4445 14.2924 12.4811 14.2924 10.5176 14.2924C10.5176 14.32 10.5176 14.3477 10.5176 14.3754C12.4811 14.3754 14.4445 14.3754 16.4079 14.3754ZM10.498 45.966C10.5019 45.9936 10.5098 46.0252 10.5137 46.0529C12.4417 46.0529 14.3737 46.0529 16.3017 46.0529C16.3017 46.0252 16.3017 45.9936 16.3017 45.966C14.3658 45.966 12.4339 45.966 10.498 45.966ZM35.46 28.0937C35.4561 28.1372 35.4521 28.1807 35.4443 28.2242C36.3925 28.2242 37.3408 28.2242 38.2891 28.2242C38.2891 28.1807 38.2891 28.1372 38.2891 28.0937C37.3487 28.0937 36.4043 28.0937 35.46 28.0937ZM10.4507 16.5926C10.4507 16.6163 10.4507 16.64 10.4507 16.6637C12.4417 16.6637 14.4288 16.6637 16.4198 16.6637C16.4198 16.64 16.4198 16.6163 16.4198 16.5926C14.4327 16.5926 12.4417 16.5926 10.4507 16.5926ZM13.9409 50.5546C13.9448 50.5783 13.9487 50.602 13.9527 50.6257C15.7705 50.6257 17.5923 50.6257 19.4102 50.6257C19.4102 50.602 19.4062 50.5783 19.4062 50.5546C17.5884 50.5546 15.7666 50.5546 13.9409 50.5546ZM10.4665 9.09905C10.4665 9.12672 10.4665 9.15438 10.4665 9.18205C12.3945 9.18205 14.3186 9.18205 16.2466 9.18205C16.2466 9.15438 16.2466 9.12672 16.2466 9.09905C14.3186 9.09905 12.3906 9.09905 10.4665 9.09905ZM16.2427 42.0058C16.2427 41.986 16.2427 41.9623 16.2427 41.9425C14.3225 41.9425 12.3984 41.9425 10.4783 41.9425C10.4783 41.9623 10.4783 41.986 10.4783 42.0058C12.4024 42.0058 14.3225 42.0058 16.2427 42.0058ZM35.3105 28.6273C35.3065 28.6668 35.3026 28.7103 35.3026 28.7498C36.2351 28.7498 37.1677 28.7498 38.1002 28.7498C38.1002 28.7103 38.0963 28.6668 38.0963 28.6273C37.1677 28.6273 36.2391 28.6273 35.3105 28.6273ZM16.0145 38.5673C16.0263 38.5396 16.042 38.5159 16.0538 38.4882C14.2084 38.4882 12.363 38.4882 10.5176 38.4882C10.5176 38.5159 10.5176 38.5396 10.5176 38.5673C12.3512 38.5673 14.1809 38.5673 16.0145 38.5673ZM31.5528 50.6652C31.5567 50.6336 31.5607 50.6059 31.5607 50.5743C29.7113 50.5743 27.8659 50.5743 26.0166 50.5743C26.0166 50.6059 26.0166 50.6336 26.0166 50.6652C27.862 50.6652 29.7074 50.6652 31.5528 50.6652ZM16.0538 12.6482C16.0459 12.6166 16.0381 12.5889 16.0302 12.5573C14.1848 12.5573 12.3355 12.5573 10.4901 12.5573C10.4901 12.5889 10.4901 12.6166 10.4901 12.6482C12.3473 12.6482 14.2006 12.6482 16.0538 12.6482ZM16.0184 10.9052C16.0145 10.8776 16.0105 10.8499 16.0105 10.8222C14.1573 10.8222 12.304 10.8222 10.4507 10.8222C10.4507 10.8499 10.4507 10.8776 10.4507 10.9052C12.304 10.9052 14.1612 10.9052 16.0184 10.9052ZM10.4704 43.6578C10.4704 43.6815 10.4704 43.7013 10.4704 43.725C12.3237 43.725 14.173 43.725 16.0263 43.725C16.0263 43.7013 16.0263 43.6815 16.0263 43.6578C14.1769 43.6578 12.3237 43.6578 10.4704 43.6578ZM30.7029 36.1683C30.7108 36.1959 30.7226 36.2236 30.7304 36.2512C32.5719 36.2512 34.4173 36.2512 36.2588 36.2512C36.2588 36.2236 36.2588 36.1959 36.2588 36.1683C34.4094 36.1683 32.5562 36.1683 30.7029 36.1683ZM15.9791 45.4759C16.0066 45.4522 16.0341 45.4285 16.0578 45.4047C14.2006 45.4047 12.3434 45.4047 10.4901 45.4047C10.4901 45.4285 10.4901 45.4522 10.4901 45.4759C12.3197 45.4759 14.1494 45.4759 15.9791 45.4759ZM10.4743 37.8914C10.4862 37.927 10.494 37.9626 10.5058 37.9982C12.2489 37.9982 13.9959 37.9982 15.739 37.9982C15.739 37.9626 15.739 37.927 15.739 37.8914C13.9881 37.8914 12.2292 37.8914 10.4743 37.8914ZM35.2357 26.3666C35.2357 26.4022 35.2397 26.4338 35.2397 26.4693C36.1407 26.4693 37.0457 26.4693 37.9468 26.4693C37.9468 26.4338 37.9428 26.4022 37.9428 26.3666C37.0418 26.3666 36.1368 26.3666 35.2357 26.3666ZM14.8104 22.4736C14.8065 22.4341 14.8026 22.3985 14.8026 22.359C13.3388 22.359 11.8712 22.359 10.4075 22.359C10.4075 22.3985 10.4075 22.4341 10.4075 22.4736C11.8751 22.4736 13.3428 22.4736 14.8104 22.4736ZM36.0896 36.8322C36.0896 36.8046 36.0935 36.7769 36.0935 36.7492C34.2953 36.7492 32.5011 36.7492 30.7029 36.7492C30.7029 36.7769 30.7029 36.8046 30.7029 36.8322C32.4971 36.8322 34.2914 36.8322 36.0896 36.8322ZM37.3526 24.1889C37.3487 24.1533 37.3447 24.1217 37.3408 24.0861C35.6685 24.0861 33.9923 24.0861 32.3201 24.0861C32.3201 24.1217 32.3201 24.1533 32.3201 24.1889C34.0002 24.1889 35.6764 24.1889 37.3526 24.1889ZM11.7177 52.4042C11.7177 52.3805 11.7177 52.3568 11.7177 52.3331C9.97857 52.3331 8.23547 52.3331 6.49632 52.3331C6.49632 52.3568 6.49632 52.3805 6.49632 52.4042C8.23547 52.4042 9.97463 52.4042 11.7177 52.4042ZM35.3459 13.2766C35.3459 13.241 35.342 13.2094 35.342 13.1739C34.0159 13.1739 32.686 13.1739 31.36 13.1739C31.36 13.2094 31.3639 13.241 31.3639 13.2766C32.6899 13.2766 34.0199 13.2766 35.3459 13.2766ZM37.1165 23.5881C37.1205 23.5605 37.1205 23.5288 37.1244 23.5012C35.4443 23.5012 33.7641 23.5012 32.0801 23.5012C32.0801 23.5288 32.0801 23.5605 32.0801 23.5881C33.7602 23.5881 35.4364 23.5881 37.1165 23.5881ZM30.5337 20.0429C30.5416 20.0666 30.5455 20.0943 30.5534 20.118C32.2335 20.118 33.9136 20.118 35.5977 20.118C35.5977 20.0943 35.5977 20.0666 35.5977 20.0429C33.9097 20.0429 32.2217 20.0429 30.5337 20.0429ZM35.3656 14.3793C35.3892 14.3437 35.4128 14.3042 35.4403 14.2686C34.0199 14.2686 32.5955 14.2686 31.1751 14.2686C31.1751 14.3042 31.1751 14.3437 31.1751 14.3793C32.568 14.3793 33.9648 14.3793 35.3656 14.3793ZM10.4586 18.3158C10.4586 18.3434 10.4586 18.3711 10.4586 18.4027C12.1584 18.4027 13.8582 18.4027 15.5541 18.4027C15.5541 18.3751 15.5541 18.3474 15.5541 18.3158C13.8582 18.3158 12.1584 18.3158 10.4586 18.3158ZM37.3054 31.0619C37.3054 31.0342 37.3054 31.0026 37.3093 30.9749C35.6213 30.9749 33.9373 30.9749 32.2492 30.9749C32.2492 31.0026 32.2492 31.0342 32.2492 31.0619C33.9333 31.0619 35.6174 31.0619 37.3054 31.0619ZM15.3377 36.8283C15.3416 36.8006 15.3416 36.769 15.3456 36.7413C13.7166 36.7413 12.0876 36.7413 10.4625 36.7413C10.4625 36.769 10.4625 36.8006 10.4625 36.8283C12.0837 36.8283 13.7126 36.8283 15.3377 36.8283ZM27.3859 5.6408C27.3859 5.66847 27.3859 5.69613 27.3859 5.72775C29.0346 5.72775 30.6871 5.72775 32.3358 5.72775C32.3358 5.70009 32.3358 5.67242 32.3358 5.6408C30.6871 5.6408 29.0346 5.6408 27.3859 5.6408ZM35.8968 16.6598C35.9007 16.6361 35.9086 16.6084 35.9125 16.5847C34.2835 16.5847 32.6545 16.5847 31.0255 16.5847C31.0255 16.6084 31.0255 16.6361 31.0255 16.6598C32.6467 16.6598 34.2717 16.6598 35.8968 16.6598ZM31.0255 38.4724C31.0255 38.4961 31.0255 38.5159 31.0255 38.5396C32.5994 38.5396 34.1733 38.5396 35.7433 38.5396C35.7433 38.5159 35.7433 38.4961 35.7433 38.4724C34.1694 38.4724 32.5994 38.4724 31.0255 38.4724ZM15.1882 20.118C15.1882 20.0983 15.1882 20.0785 15.1882 20.0548C13.6261 20.0548 12.0601 20.0548 10.498 20.0548C10.498 20.0745 10.498 20.0943 10.498 20.118C12.0601 20.118 13.6221 20.118 15.1882 20.118ZM35.5112 18.4185C35.5348 18.3869 35.5584 18.3593 35.582 18.3276C34.0081 18.3276 32.4381 18.3276 30.8642 18.3276C30.8642 18.3593 30.8642 18.3869 30.8642 18.4185C32.4145 18.4185 33.9609 18.4185 35.5112 18.4185ZM10.557 36.1643C10.5334 36.192 10.5098 36.2157 10.4861 36.2433C12.0522 36.2433 13.6143 36.2433 15.1803 36.2433C15.1803 36.2157 15.1803 36.192 15.1803 36.1643C13.6379 36.1643 12.0955 36.1643 10.557 36.1643ZM31.0334 14.8457C31.0334 14.8852 31.0334 14.9208 31.0334 14.9603C32.5483 14.9603 34.0632 14.9603 35.578 14.9603C35.578 14.9208 35.578 14.8852 35.5741 14.8457C34.0632 14.8457 32.5483 14.8457 31.0334 14.8457ZM31.0767 39.6265C31.0767 39.6581 31.0767 39.6897 31.0767 39.7174C32.5798 39.7174 34.0868 39.7174 35.5898 39.7174C35.5898 39.6858 35.5898 39.6542 35.5898 39.6265C34.0868 39.6265 32.5837 39.6265 31.0767 39.6265ZM33.2015 47.8077C33.1975 47.7761 33.1936 47.7445 33.1896 47.7129C31.8597 47.7129 30.5337 47.7129 29.2038 47.7129C29.2038 47.7445 29.2038 47.7761 29.2077 47.8077C30.5376 47.8077 31.8715 47.8077 33.2015 47.8077ZM35.5308 40.2905C35.5426 40.2668 35.5544 40.2431 35.5662 40.2233C34.071 40.2233 32.5758 40.2233 31.0806 40.2233C31.0806 40.247 31.0806 40.2707 31.0806 40.2905C32.568 40.2905 34.0514 40.2905 35.5308 40.2905ZM32.4184 49.5072C32.4184 49.4795 32.4224 49.4479 32.4224 49.4203C30.9193 49.4203 29.4162 49.4203 27.9132 49.4203C27.9132 49.4479 27.9132 49.4795 27.9132 49.5072C29.4123 49.5072 30.9154 49.5072 32.4184 49.5072ZM13.7284 5.64871C13.7284 5.67242 13.7284 5.70009 13.7284 5.7238C15.2511 5.7238 16.7739 5.7238 18.2966 5.7238C18.2966 5.70009 18.2966 5.67242 18.2966 5.64871C16.7739 5.64871 15.2511 5.64871 13.7284 5.64871ZM28.5073 48.8511C28.4994 48.8748 28.4876 48.9025 28.4798 48.9262C29.912 48.9262 31.3482 48.9262 32.7804 48.9262C32.7804 48.9025 32.7804 48.8748 32.7804 48.8511C31.3561 48.8511 29.9317 48.8511 28.5073 48.8511ZM14.9954 35.1169C14.9875 35.0893 14.9796 35.0616 14.9718 35.0379C13.5356 35.0379 12.0994 35.0379 10.6632 35.0379C10.6632 35.0656 10.6632 35.0932 10.6671 35.1169C12.1073 35.1169 13.5513 35.1169 14.9954 35.1169ZM14.8419 21.861C14.838 21.8333 14.8301 21.8017 14.8262 21.774C13.3782 21.774 11.9341 21.774 10.4861 21.774C10.4861 21.8017 10.4861 21.8333 10.4861 21.861C11.9381 21.861 13.39 21.861 14.8419 21.861ZM14.8537 34.5122C14.8537 34.4846 14.8537 34.4569 14.8537 34.4332C13.4451 34.4332 12.0404 34.4332 10.6317 34.4332C10.6317 34.4609 10.6317 34.4885 10.6317 34.5122C12.0404 34.5122 13.449 34.5122 14.8537 34.5122ZM10.4586 32.7179C10.4586 32.7377 10.4586 32.7574 10.4586 32.7772C11.8554 32.7772 13.2483 32.7772 14.6452 32.7772C14.6452 32.7574 14.6452 32.7377 14.6452 32.7179C13.2483 32.7179 11.8554 32.7179 10.4586 32.7179ZM8.204 53.42C8.204 53.4595 8.204 53.503 8.204 53.5425C8.92799 53.5425 9.65198 53.5425 10.376 53.5425C10.376 53.503 10.376 53.4595 10.376 53.42C9.65592 53.42 8.93192 53.42 8.204 53.42ZM29.1329 7.36795C29.1329 7.39166 29.1329 7.41538 29.1329 7.43909C30.5337 7.43909 31.9305 7.43909 33.3313 7.43909C33.3313 7.41538 33.3313 7.39166 33.3313 7.36795C31.9345 7.36795 30.5337 7.36795 29.1329 7.36795ZM17.7576 49.5033C17.7615 49.4756 17.7654 49.4479 17.7694 49.4242C16.4276 49.4242 15.0859 49.4242 13.7402 49.4242C13.7402 49.4519 13.7402 49.4795 13.7402 49.5033C15.0819 49.5033 16.4198 49.5033 17.7576 49.5033ZM7.17703 52.8864C7.17703 52.9062 7.17703 52.922 7.17703 52.9417C8.51091 52.9417 9.84479 52.9417 11.1747 52.9417C11.1747 52.922 11.1747 52.9062 11.1747 52.8864C9.84085 52.8864 8.50697 52.8864 7.17703 52.8864ZM10.4547 30.9829C10.4547 31.0105 10.4547 31.0342 10.4547 31.0619C11.8082 31.0619 13.1578 31.0619 14.5114 31.0619C14.5114 31.0342 14.5114 31.0105 14.5114 30.9829C13.1618 30.9829 11.8082 30.9829 10.4547 30.9829ZM29.6799 47.1082C29.6759 47.1358 29.672 47.1635 29.6681 47.1872C30.9468 47.1872 32.2256 47.1872 33.5005 47.1872C33.5005 47.1596 33.5005 47.1319 33.5005 47.1082C32.2296 47.1082 30.9547 47.1082 29.6799 47.1082ZM12.2214 4.00851C12.2332 3.98084 12.245 3.95318 12.2568 3.92551C10.9977 3.92551 9.73461 3.92551 8.47549 3.92551C8.47549 3.95318 8.47549 3.98084 8.47549 4.00851C9.72281 4.00851 10.9741 4.00851 12.2214 4.00851Z" fill="black"/>
<path d="M31.4111 26.252C31.7771 26.1927 32.143 26.098 32.5089 26.0862C33.1424 26.0704 33.8979 25.9044 34.3779 26.189C34.791 26.434 34.8855 27.2165 35.1924 27.9359C30.7855 27.8726 27.2166 29.1295 24.482 32.3545C23.5967 33.3979 23.1835 34.1805 23.1402 35.1409C24.7378 32.0581 27.0199 29.9634 30.1874 28.9556C31.6511 28.4892 33.162 28.2362 34.732 28.5603C32.2453 28.8093 29.8018 29.1334 27.6495 30.5602C25.4854 31.9909 24.0138 33.9631 22.9474 36.5281C22.2549 34.2714 21.0588 32.5877 19.3117 31.3269C17.183 29.7934 14.7592 28.9753 12.1938 28.671C7.59012 28.1216 3.60427 24.8845 2.51828 20.6713C1.37721 16.229 4.66267 11.024 9.15615 10.1743C9.37256 10.1348 9.60078 10.1703 9.81325 10.1703C10.0729 11.6169 10.0611 11.6485 8.79809 12.1702C4.38723 13.9922 4.25739 19.0788 6.35461 21.3593C6.6143 21.6399 6.92121 21.877 7.29108 22.0786C5.36699 19.9206 4.69808 17.5927 6.1382 14.9368C6.90941 13.5179 8.60922 12.3757 10.0729 12.3915C9.69915 12.5931 9.49847 12.7235 9.286 12.8144C6.94482 13.8262 5.78407 15.4822 5.80374 17.7824C5.82342 19.9404 7.21632 21.96 9.47093 22.7702C12.9217 24.0073 16.282 23.7899 19.3353 21.6122C21.2476 20.2487 22.0582 18.1658 22.6051 15.9644C22.6641 15.7193 22.7271 15.4743 22.8176 15.1186C23.6714 18.4069 24.7771 20.4779 29.0424 22.5568C28.9558 22.7267 28.826 22.8888 28.7905 23.0706C28.7551 23.2405 28.7551 23.5133 28.8535 23.5883C28.9952 23.6951 29.243 23.703 29.4398 23.6793C29.8018 23.6358 30.1598 23.4698 30.5179 23.4816C31.5213 23.5093 31.9974 24.193 31.7455 25.1851C31.655 25.5487 31.5252 25.9004 31.415 26.2601C27.9367 25.604 24.8755 24.2247 22.7901 21.0945C20.8542 25.0823 17.3286 25.8649 13.5316 26.1573C17.5923 26.3668 20.8148 27.9596 22.8648 31.5641C23.093 31.1965 23.3094 30.7143 23.6439 30.3428C25.5837 28.1651 27.917 26.7067 30.8917 26.4538C31.0688 26.4419 31.238 26.3231 31.4111 26.252ZM19.3944 30.7578C19.4219 30.7301 19.4495 30.6985 19.477 30.6708C19.0835 30.3744 18.7255 29.9831 18.2848 29.7974C16.9942 29.252 15.6957 28.6868 14.35 28.3192C12.3118 27.7659 10.1516 27.6592 8.25509 26.596C7.41699 26.1257 6.57889 25.6475 5.73685 25.1772C5.66209 25.2562 5.59127 25.3353 5.51651 25.4143C5.69357 25.4973 5.89031 25.5487 6.04376 25.6633C7.58225 26.8213 9.25452 27.6632 11.1511 28.0584C12.6935 28.3785 14.2556 28.6512 15.7508 29.1334C17.0138 29.5326 18.1864 30.2045 19.3944 30.7578ZM15.6957 25.4578C18.391 25.0072 20.7715 24.0468 22.0897 21.4027C20.5158 23.6476 18.1313 24.5883 15.6957 25.4578ZM22.9592 17.3754C22.9789 18.5452 24.0059 20.0945 24.9463 20.383C24.3049 19.4108 23.636 18.4029 22.9592 17.3754Z" fill="white"/>
<path d="M23.0144 49.9222C22.1015 49.112 21.3381 48.2308 20.3899 47.6538C19.4455 47.0807 18.3202 46.812 17.2735 46.4088C17.305 46.3179 17.3365 46.2231 17.3719 46.1322C18.454 46.4997 19.536 46.8713 20.7558 47.2862C20.5394 47.0768 20.4056 46.8634 20.2167 46.7843C19.4809 46.4681 18.7491 46.0768 17.9779 45.9425C17.1437 45.7962 16.9863 45.3457 16.9548 44.6461C16.8683 42.6186 17.3601 40.8084 18.6664 39.437C19.1937 40.4053 19.6029 41.4882 20.2994 42.334C21.047 43.247 22.2235 43.4091 23.3921 43.334C25.2375 43.2154 26.2684 42.0771 26.8979 39.358C28.2948 40.8322 29.967 41.7372 31.8951 42.1404C34.4566 42.6779 36.9945 42.8241 39.2845 41.2195C43.2075 38.4647 43.4868 32.1055 39.0445 29.746C38.954 29.6986 38.8871 29.6156 38.8045 29.5484C38.8556 29.4693 38.9068 29.3943 38.9579 29.3152C39.4695 29.6353 39.9849 29.9594 40.4964 30.2796C40.524 30.2559 40.5554 30.2321 40.583 30.2084C40.3469 29.9752 40.1266 29.7262 39.8747 29.5089C39.619 29.2836 39.3357 29.086 39.0996 28.9042C39.5206 27.2719 38.3048 26.019 38.289 24.4302C39.8118 24.6555 41.2244 25.2167 42.5464 26.019C48.8224 29.8132 48.0629 36.7653 45.0214 41.0298C42.7668 44.1916 39.5088 45.5156 35.759 45.8476C33.3824 46.0571 30.9979 46.2033 28.641 46.559C26.2802 46.9068 24.1358 47.788 23.0144 49.9222ZM23.2347 48.8316C25.0289 46.8475 27.4173 46.2389 29.9041 45.9425C32.0131 45.6895 34.1457 45.6105 36.2626 45.401C41.3424 44.8951 45.4306 41.9586 46.5835 36.6783C47.2327 33.7022 46.9848 30.8606 44.8758 28.4338C44.6909 28.2204 44.4705 28.0347 44.2659 27.8371C44.6161 28.6868 45.1591 29.3705 45.5408 30.1373C47.2406 33.5442 46.674 36.868 44.8089 39.9627C42.57 43.6778 38.9343 44.8872 34.8304 45.1599C32.5404 45.3101 30.2464 45.5196 27.9839 45.8911C26.0559 46.2033 24.2971 46.9898 23.2347 48.8316ZM19.6698 42.417C19.3039 41.7175 18.9419 41.0219 18.5759 40.3223C18.45 41.2709 18.8278 41.9625 19.6698 42.417Z" fill="white"/>
<path d="M39.9299 19.5252C41.4566 18.3711 41.5273 16.0434 40.0833 14.6325C38.5172 13.1029 36.5145 12.597 34.4369 12.3243C31.6 11.9528 29.0935 12.6998 26.9176 14.8261C26.6107 12.4231 25.2768 11.1742 23.0616 11.1386C20.7715 11.1031 19.3786 12.3678 18.9812 14.7273C18.2572 14.1542 17.6198 13.6444 16.8446 13.0278C17.1634 13.0081 17.2971 12.9962 17.4388 12.9883C17.4349 12.929 17.4467 12.8658 17.427 12.8184C17.2617 12.4231 16.9548 12.0358 16.9509 11.6406C16.947 10.9292 17.1398 10.2178 17.2224 9.5024C17.2893 8.93327 17.5923 8.66057 18.1352 8.51433C20.138 7.97682 21.7159 6.85042 22.735 4.96913C22.8333 5.02051 22.9356 5.03632 22.9671 5.09561C24.364 7.52231 26.6618 8.46295 29.2391 8.91747C32.0131 9.40755 34.8186 9.7514 37.5611 10.368C39.9062 10.8936 41.9129 12.1109 42.9281 14.4586C43.7111 16.2687 43.7583 18.1223 42.7274 19.8732C41.5706 21.8414 38.8084 22.3789 37.0889 20.9996C36.3099 20.3751 35.9636 19.5373 36.1249 18.5413C36.2469 17.7903 36.7466 17.32 37.4588 17.0947C38.9461 16.6205 40.1187 17.6283 39.9062 19.1815C39.8865 19.2843 39.9181 19.3908 39.9299 19.5252ZM40.9765 14.8657C39.375 12.2453 36.664 11.8145 33.9726 11.4904C31.3875 11.1782 28.5781 12.19 27.8501 13.4824C32.6427 10.8976 37.5611 11.4548 40.9765 14.8657ZM40.9883 12.763C41.1417 12.9962 41.2794 13.2413 41.4526 13.4586C42.4441 14.6997 42.7589 16.1264 42.6369 17.6836C42.4599 19.9601 40.7915 21.2763 38.5605 20.885C38.2064 20.8217 37.8483 20.7704 37.3762 20.6953C38.9186 21.8217 41.126 21.4423 42.2277 19.9601C43.715 17.9642 43.1248 14.1621 40.9883 12.763ZM25.5483 11.3363C24.3994 10.2296 23.0025 10.1466 21.5821 10.5577C20.1616 10.9687 19.0088 11.7592 18.6586 13.4942C21.3972 10.3838 22.1998 10.1506 25.5483 11.3363Z" fill="white"/>
<path d="M9.78183 45.1834C5.18998 45.1992 0.613865 42.2073 0.452541 36.7888C0.373846 34.1644 1.25916 32.1606 3.6751 30.9789C5.75658 29.9592 8.07415 30.5362 9.16801 32.3306C10.195 34.0143 9.58116 35.9351 7.82626 36.5279C6.3586 37.0259 4.82405 35.9311 4.82405 34.3739C4.82405 34.0656 4.8752 33.7534 4.70994 33.2949C4.42664 33.6665 4.04103 33.9984 3.87971 34.4174C2.60091 37.7373 4.85547 41.4566 8.36526 41.9388C10.2264 42.1918 9.84867 41.8005 9.88014 43.741C9.88408 44.0217 9.82112 44.3023 9.76604 44.7647C7.97966 44.2667 6.29165 43.7964 4.59971 43.3261C6.16181 44.4327 7.99152 44.7408 9.78183 45.1834ZM4.31247 32.9948C3.23435 33.3465 2.9904 34.2674 2.84088 35.1923C2.49068 37.3463 3.33272 40.1168 5.08368 40.931C3.13992 38.4094 2.25067 35.8681 4.31247 32.9948ZM5.74472 35.6112C6.68906 36.5479 7.8931 36.4807 8.75087 35.5559C9.37256 34.8879 9.56536 33.062 8.37707 32.1055C8.62496 33.145 9.32141 34.1133 8.54626 35.1053C7.78686 36.0815 6.81891 36.0894 5.74472 35.6112Z" fill="white"/>
<path d="M14.9049 51.7086C20.1066 51.7086 25.3044 51.7086 30.5062 51.7086C30.5062 51.7521 30.5062 51.7956 30.5062 51.8391C25.3083 51.8391 20.1105 51.8391 14.9127 51.8391C14.9088 51.7956 14.9088 51.7521 14.9049 51.7086Z" fill="white"/>
<path d="M15.322 3.30105C20.3112 3.30105 25.3004 3.30127 30.2897 3.30127C30.2897 3.34079 30.2897 3.38031 30.2897 3.41984C25.3083 3.41984 20.3308 3.41984 15.3494 3.41984C15.3416 3.38031 15.3298 3.34057 15.322 3.30105Z" fill="white"/>
<path d="M22.9081 2.91394C28.2257 2.91394 32.5364 2.87678 32.5364 2.83095C32.5364 2.78511 28.2257 2.74795 22.9081 2.74795C17.5905 2.74795 13.2798 2.78511 13.2798 2.83095C13.2798 2.87678 17.5905 2.91394 22.9081 2.91394Z" fill="white"/>
<path d="M17.1044 2.18255C20.9841 2.18255 24.8637 2.18255 28.7394 2.18255C28.7394 2.22998 28.7394 2.27741 28.7394 2.32483C24.8637 2.32483 20.9841 2.32483 17.1083 2.32483C17.1083 2.28136 17.1044 2.22998 17.1044 2.18255Z" fill="white"/>
<path d="M14.7986 3.9176C20.1774 3.9176 25.5523 3.9176 30.9311 3.9176C30.9311 3.95318 30.9311 3.98875 30.9311 4.02432C25.5523 4.02432 20.1774 4.02432 14.7986 4.02432C14.7986 3.98875 14.7986 3.95318 14.7986 3.9176Z" fill="white"/>
<path d="M10.0376 6.20993C12.6227 6.20993 15.2078 6.20993 17.793 6.20993C17.793 6.24155 17.793 6.27317 17.7969 6.30478C15.2118 6.30478 12.6267 6.30478 10.0415 6.30478C10.0376 6.27317 10.0376 6.24155 10.0376 6.20993Z" fill="white"/>
<path d="M17.3759 6.89763C14.9796 6.89763 12.5834 6.89763 10.1832 6.89763C10.1832 6.85811 10.1832 6.82253 10.1792 6.78301C12.5794 6.78301 14.9757 6.78301 17.3759 6.78301C17.3759 6.82253 17.3759 6.86206 17.3759 6.89763Z" fill="white"/>
<path d="M31.5331 4.56973C29.1919 4.56973 26.8468 4.56995 24.5056 4.56995C24.5056 4.53043 24.5095 4.49091 24.5095 4.45138C26.8507 4.45138 29.188 4.45138 31.5291 4.45138C31.5291 4.49091 31.5331 4.53021 31.5331 4.56973Z" fill="white"/>
<path d="M17.1516 48.3769C14.8852 48.3769 12.6227 48.3769 10.3563 48.3769C10.3563 48.3413 10.3563 48.3057 10.3563 48.2741C12.6227 48.2741 14.8852 48.2741 17.1516 48.2741C17.1516 48.3097 17.1516 48.3413 17.1516 48.3769Z" fill="white"/>
<path d="M13.7126 15.5771C16.3203 15.5771 18.4343 15.5381 18.4343 15.4901C18.4343 15.4421 16.3203 15.4032 13.7126 15.4032C11.1049 15.4032 8.99089 15.4421 8.99089 15.4901C8.99089 15.5381 11.1049 15.5771 13.7126 15.5771Z" fill="white"/>
<path d="M30.0497 33.8245C32.2768 33.8245 34.5039 33.8245 36.7309 33.8245C36.7309 33.8641 36.7309 33.9036 36.7349 33.9431C34.5078 33.9431 32.2768 33.9431 30.0497 33.9431C30.0497 33.9036 30.0497 33.8641 30.0497 33.8245Z" fill="white"/>
<path d="M16.7975 7.92917C16.7975 7.9687 16.8014 8.00822 16.8014 8.04774C14.657 8.04774 12.5165 8.04774 10.372 8.04774C10.3681 8.00822 10.3681 7.9687 10.3642 7.92917" fill="white"/>
<path d="M30.2228 21.1575C32.3358 21.1575 34.4448 21.1575 36.5578 21.1575C36.5578 21.197 36.5578 21.2405 36.5578 21.28C34.4448 21.28 32.3319 21.28 30.2189 21.28C30.2189 21.2405 30.2189 21.2009 30.2228 21.1575Z" fill="white"/>
<path d="M14.0314 4.45907C16.1994 4.45907 18.3675 4.45907 20.5355 4.45907C20.5355 4.49464 20.5394 4.53021 20.5394 4.56578C18.3714 4.56578 16.2033 4.56578 14.0353 4.56578C14.0353 4.53021 14.0314 4.49464 14.0314 4.45907Z" fill="white"/>
<path d="M29.7979 33.2752C32.1391 33.2752 34.4802 33.2752 36.8214 33.2752C36.8214 33.3147 36.8214 33.3582 36.8214 33.3977C34.4802 33.3977 32.1391 33.3977 29.7979 33.3977C29.7979 33.3542 29.7979 33.3147 29.7979 33.2752Z" fill="white"/>
<path d="M13.5159 40.927C15.9562 40.927 17.9346 40.8863 17.9346 40.8361C17.9346 40.7859 15.9562 40.7452 13.5159 40.7452C11.0755 40.7452 9.09713 40.7859 9.09713 40.8361C9.09713 40.8863 11.0755 40.927 13.5159 40.927Z" fill="white"/>
<path d="M10.3602 15.98C12.5165 15.98 14.6688 15.98 16.825 15.98C16.825 16.0116 16.825 16.0432 16.825 16.0748C14.6688 16.0748 12.5165 16.0748 10.3602 16.0748C10.3602 16.0472 10.3602 16.0116 10.3602 15.98Z" fill="white"/>
<path d="M10.3642 8.47064C12.4142 8.47064 14.4641 8.47086 16.5141 8.47086C16.5141 8.51433 16.5141 8.55385 16.5141 8.59733C14.4602 8.59733 12.4102 8.59733 10.3562 8.59733C10.3602 8.55385 10.3642 8.51016 10.3642 8.47064Z" fill="white"/>
<path d="M10.4114 46.5153C12.4299 46.5153 14.4484 46.5153 16.4709 46.5153C16.4709 46.547 16.4748 46.5786 16.4748 46.6102C14.4563 46.6102 12.4417 46.6102 10.4232 46.6102C10.4193 46.5786 10.4153 46.547 10.4114 46.5153Z" fill="white"/>
<path d="M16.4984 39.1641C14.4681 39.1641 12.4378 39.1641 10.4075 39.1641C10.4075 39.1206 10.4075 39.0811 10.4075 39.0376C12.4378 39.0376 14.4681 39.0376 16.5024 39.0376C16.5024 39.0811 16.4984 39.1246 16.4984 39.1641Z" fill="white"/>
<path d="M16.345 13.8339C14.354 13.8339 12.367 13.8339 10.376 13.8339C10.376 13.7944 10.372 13.7588 10.372 13.7193C12.363 13.7193 14.354 13.7193 16.345 13.7193C16.3411 13.7548 16.345 13.7944 16.345 13.8339Z" fill="white"/>
<path d="M37.0772 23.0111C35.0705 23.0111 33.0637 23.0111 31.0531 23.0111C31.0531 22.9676 31.0531 22.9281 31.0531 22.8846C33.0559 22.8846 35.0587 22.8846 37.0654 22.8846C37.0693 22.9281 37.0732 22.9676 37.0772 23.0111Z" fill="white"/>
<path d="M16.3371 41.4366C14.3579 41.4366 12.3748 41.4369 10.3956 41.4369C10.3956 41.3973 10.3956 41.3578 10.3956 41.3143C12.3748 41.3143 14.354 41.3143 16.3331 41.3143C16.3331 41.3578 16.3371 41.3971 16.3371 41.4366Z" fill="white"/>
<path d="M30.4511 35.5596C32.4342 35.5596 34.4172 35.5598 36.4043 35.5598C36.4043 35.6033 36.4043 35.6468 36.4043 35.6902C34.4172 35.6902 32.4302 35.6902 30.4471 35.6902C30.4471 35.6468 30.4511 35.6031 30.4511 35.5596Z" fill="white"/>
<path d="M16.1561 17.304C14.2281 17.304 12.304 17.304 10.376 17.304C10.376 17.2645 10.372 17.2249 10.372 17.1854C12.3001 17.1854 14.232 17.1854 16.1601 17.1854C16.1561 17.2249 16.1561 17.2645 16.1561 17.304Z" fill="white"/>
<path d="M16.1719 10.3638C14.2438 10.3638 12.3158 10.3638 10.3878 10.3638C10.3878 10.3282 10.3838 10.2926 10.3838 10.2571C12.3119 10.2571 14.2399 10.2571 16.1679 10.2571C16.1679 10.2926 16.1719 10.3282 16.1719 10.3638Z" fill="white"/>
<path d="M10.3602 11.9368C12.2883 11.9368 14.2162 11.937 16.1403 11.937C16.1403 11.9765 16.1443 12.0161 16.1443 12.0556C14.2162 12.0556 12.2882 12.0556 10.3602 12.0556C10.3641 12.0161 10.3602 11.9763 10.3602 11.9368Z" fill="white"/>
<path d="M10.3917 44.7724C12.3079 44.7724 14.228 44.7726 16.1443 44.7726C16.1443 44.8161 16.1443 44.8556 16.1443 44.8991C14.2241 44.8991 12.3039 44.8991 10.3838 44.8991C10.3877 44.8595 10.3878 44.8158 10.3917 44.7724Z" fill="white"/>
<path d="M30.2504 20.6002C32.1824 20.6002 34.1183 20.6002 36.0502 20.6002C36.0502 20.6437 36.0502 20.6832 36.0541 20.7267C34.1222 20.7267 32.1942 20.7267 30.2622 20.7267C30.2583 20.6832 30.2543 20.6397 30.2504 20.6002Z" fill="white"/>
<path d="M13.264 43.1956C15.4936 43.1956 17.3011 43.1602 17.3011 43.1166C17.3011 43.0729 15.4936 43.0375 13.264 43.0375C11.0344 43.0375 9.22698 43.0729 9.22698 43.1166C9.22698 43.1602 11.0344 43.1956 13.264 43.1956Z" fill="white"/>
<path d="M13.3467 9.78697C15.6241 9.78697 17.4703 9.75335 17.4703 9.71187C17.4703 9.6704 15.6241 9.63678 13.3467 9.63678C11.0692 9.63678 9.22304 9.6704 9.22304 9.71187C9.22304 9.75335 11.0692 9.78697 13.3467 9.78697Z" fill="white"/>
<path d="M13.264 44.3576C15.4893 44.3576 17.2932 44.3258 17.2932 44.2865C17.2932 44.2472 15.4893 44.2153 13.264 44.2153C11.0388 44.2153 9.23484 44.2472 9.23484 44.2865C9.23484 44.3258 11.0388 44.3576 13.264 44.3576Z" fill="white"/>
<path d="M22.9278 1.73221C26.4547 1.73221 29.3139 1.69328 29.3139 1.64526C29.3139 1.59724 26.4547 1.55831 22.9278 1.55831C19.4008 1.55831 16.5417 1.59724 16.5417 1.64526C16.5417 1.69328 19.4008 1.73221 22.9278 1.73221Z" fill="white"/>
<path d="M10.4035 11.4032C12.304 11.4032 14.2044 11.4035 16.1049 11.4035C16.1049 11.4469 16.1049 11.4904 16.1049 11.5339C14.2005 11.5339 12.2961 11.5339 10.3917 11.5339C10.3956 11.4904 10.3996 11.4467 10.4035 11.4032Z" fill="white"/>
<path d="M13.2719 42.6463C15.5058 42.6463 17.3168 42.6091 17.3168 42.5633C17.3168 42.5174 15.5058 42.4803 13.2719 42.4803C11.0379 42.4803 9.22698 42.5174 9.22698 42.5633C9.22698 42.6091 11.0379 42.6463 13.2719 42.6463Z" fill="white"/>
<path d="M31.4898 32.0934C33.3549 32.0934 35.22 32.0934 37.0851 32.0934C37.0851 32.1369 37.0851 32.1764 37.0851 32.2199C35.216 32.2199 33.347 32.2199 31.478 32.2199C31.482 32.1764 31.4859 32.133 31.4898 32.0934Z" fill="white"/>
<path d="M32.0171 5.15467C30.156 5.15467 28.2988 5.15467 26.4376 5.15467C26.4376 5.1191 26.4376 5.08353 26.4376 5.04796C28.2988 5.04796 30.156 5.04796 32.0171 5.04796C32.0171 5.08353 32.0171 5.1191 32.0171 5.15467Z" fill="white"/>
<path d="M33.4768 37.453C35.5934 37.453 37.3093 37.4211 37.3093 37.3818C37.3093 37.3425 35.5934 37.3107 33.4768 37.3107C31.3602 37.3107 29.6444 37.3425 29.6444 37.3818C29.6444 37.4211 31.3602 37.453 33.4768 37.453Z" fill="white"/>
<path d="M10.3838 17.6992C12.1938 17.6992 14.0077 17.6994 15.8177 17.6994C15.8177 17.739 15.8177 17.7785 15.8177 17.822C14.0038 17.822 12.1938 17.822 10.3799 17.822C10.3838 17.7824 10.3838 17.7387 10.3838 17.6992Z" fill="white"/>
<path d="M10.3878 37.2907C12.1427 37.2907 13.8976 37.2907 15.6525 37.2907C15.6525 37.3342 15.6525 37.3777 15.6525 37.4211C13.8976 37.4211 12.1427 37.4211 10.3878 37.4211C10.3878 37.3777 10.3878 37.3342 10.3878 37.2907Z" fill="white"/>
<path d="M37.2464 31.7022C35.4875 31.7022 33.7287 31.7024 31.9659 31.7024C31.9659 31.6708 31.962 31.6352 31.962 31.6036C33.7208 31.6036 35.4796 31.6036 37.2384 31.6036C37.2424 31.6352 37.2464 31.6666 37.2464 31.7022Z" fill="white"/>
<path d="M19.0836 5.17443C17.2854 5.17443 15.4872 5.17443 13.689 5.17443C13.689 5.13491 13.6851 5.09934 13.6851 5.05982C15.4872 5.05982 17.2854 5.05982 19.0875 5.05982C19.0836 5.09934 19.0836 5.13886 19.0836 5.17443Z" fill="white"/>
<path d="M25.4815 1.20238C23.6164 1.20238 21.7553 1.20238 19.8902 1.20238C19.8902 1.15496 19.8902 1.11148 19.8902 1.06405C21.7592 1.06405 23.6282 1.06405 25.4972 1.06405C25.4893 1.11148 25.4854 1.15496 25.4815 1.20238Z" fill="white"/>
<path d="M30.9154 17.1499C32.6309 17.1499 34.3425 17.1499 36.0581 17.1499C36.0581 17.1933 36.0581 17.2368 36.062 17.2803C34.3465 17.2803 32.6348 17.2803 30.9193 17.2803C30.9193 17.2368 30.9154 17.1933 30.9154 17.1499Z" fill="white"/>
<path d="M37.4431 24.758C35.7394 24.758 34.0317 24.758 32.3279 24.758C32.3279 24.7185 32.3279 24.675 32.3279 24.6355C34.0317 24.6355 35.7394 24.6355 37.4431 24.6355C37.4431 24.675 37.4431 24.7145 37.4431 24.758Z" fill="white"/>
<path d="M35.8417 17.8336C34.1655 17.8336 32.4893 17.8336 30.817 17.8336C30.817 17.7941 30.817 17.7546 30.817 17.715C32.4971 17.715 34.1773 17.715 35.8574 17.715C35.8535 17.7546 35.8456 17.7941 35.8417 17.8336Z" fill="white"/>
<path d="M34.9012 30.5207C36.9657 30.5207 38.6392 30.4817 38.6392 30.4337C38.6392 30.3857 36.9657 30.3468 34.9012 30.3468C32.8368 30.3468 31.1632 30.3857 31.1632 30.4337C31.1632 30.4817 32.8368 30.5207 34.9012 30.5207Z" fill="white"/>
<path d="M27.02 49.9854C28.6922 49.9854 30.3645 49.9854 32.0368 49.9854C32.0368 50.0171 32.0407 50.0487 32.0407 50.0803C30.3645 50.0803 28.6883 50.0803 27.016 50.0803C27.02 50.0526 27.02 50.0171 27.02 49.9854Z" fill="white"/>
<path d="M10.3878 18.877C12.0797 18.877 13.7717 18.877 15.4597 18.877C15.4597 18.9205 15.4597 18.96 15.4636 19.0035C13.7756 19.0035 12.0915 19.0035 10.4035 19.0035C10.3957 18.96 10.3917 18.9165 10.3878 18.877Z" fill="white"/>
<path d="M35.8495 39.1601C34.2206 39.1601 32.5915 39.1604 30.9625 39.1604C30.9625 39.1248 30.9586 39.0892 30.9586 39.0497C32.5836 39.0497 34.2087 39.0497 35.8298 39.0497C35.8377 39.0853 35.8417 39.1246 35.8495 39.1601Z" fill="white"/>
<path d="M35.523 19.5805C33.8743 19.5805 32.2295 19.5807 30.5809 19.5807C30.5809 19.5373 30.5809 19.4977 30.5769 19.4543C32.2216 19.4543 33.8664 19.4543 35.5111 19.4543C35.519 19.4977 35.523 19.537 35.523 19.5805Z" fill="white"/>
<path d="M15.2708 19.5805C13.6379 19.5805 12.0088 19.5807 10.3759 19.5807C10.3759 19.5412 10.3759 19.4977 10.3759 19.4543C12.0128 19.4543 13.6496 19.4543 15.2865 19.4543C15.2826 19.4977 15.2747 19.541 15.2708 19.5805Z" fill="white"/>
<path d="M30.6399 18.8731C32.265 18.8731 33.89 18.8733 35.5111 18.8733C35.5111 18.9088 35.515 18.9444 35.515 18.9839C33.8939 18.9839 32.2689 18.9839 30.6477 18.9839C30.6477 18.9484 30.6439 18.9126 30.6399 18.8731Z" fill="white"/>
<path d="M15.137 35.7137C13.5513 35.7137 11.9656 35.714 10.3799 35.714C10.3799 35.6784 10.3759 35.6389 10.3759 35.6033C11.9616 35.6033 13.5473 35.6033 15.133 35.6033C15.133 35.6389 15.137 35.6742 15.137 35.7137Z" fill="white"/>
<path d="M16.1207 50.1358C18.0199 50.1358 19.5596 50.1005 19.5596 50.0568C19.5596 50.0131 18.0199 49.9778 16.1207 49.9778C14.2214 49.9778 12.6817 50.0131 12.6817 50.0568C12.6817 50.1005 14.2214 50.1358 16.1207 50.1358Z" fill="white"/>
<path d="M30.9547 15.9879C32.5758 15.9879 34.2009 15.9879 35.822 15.9879C35.822 16.0195 35.822 16.0551 35.822 16.0867C34.2009 16.0867 32.5758 16.0867 30.9547 16.0867C30.9547 16.0551 30.9547 16.0195 30.9547 15.9879Z" fill="white"/>
<path d="M35.7236 15.5531C34.1419 15.5531 32.5601 15.5531 30.9744 15.5531C30.9744 15.5097 30.9744 15.4662 30.9744 15.4267C32.5562 15.4267 34.1379 15.4267 35.7236 15.4267C35.7236 15.4662 35.7236 15.5097 35.7236 15.5531Z" fill="white"/>
<path d="M32.7647 6.34826C31.2026 6.34826 29.6405 6.34826 28.0784 6.34826C28.0784 6.30478 28.0784 6.26131 28.0784 6.21783C29.6405 6.21783 31.2026 6.21783 32.7686 6.21783C32.7686 6.26131 32.7647 6.30478 32.7647 6.34826Z" fill="white"/>
<path d="M11.462 2.88211C9.90774 2.88211 8.34958 2.88211 6.79536 2.88211C6.79536 2.85049 6.79142 2.81492 6.79142 2.7833C8.34565 2.7833 9.90381 2.7833 11.458 2.7833C11.458 2.81492 11.462 2.85049 11.462 2.88211Z" fill="white"/>
<path d="M10.3838 21.1614C11.9066 21.1614 13.4254 21.1614 14.9482 21.1614C14.9482 21.2009 14.9521 21.2405 14.9521 21.28C13.4333 21.28 11.9145 21.28 10.3957 21.28C10.3917 21.2405 10.3878 21.2009 10.3838 21.1614Z" fill="white"/>
<path d="M12.7407 20.7704C14.5726 20.7704 16.0577 20.7314 16.0577 20.6834C16.0577 20.6354 14.5726 20.5965 12.7407 20.5965C10.9088 20.5965 9.42371 20.6354 9.42371 20.6834C9.42371 20.7314 10.9088 20.7704 12.7407 20.7704Z" fill="white"/>
<path d="M30.9744 40.7727C32.4853 40.7727 34.0002 40.7729 35.5111 40.7729C35.5111 40.8085 35.5111 40.848 35.5111 40.8835C34.0002 40.8835 32.4853 40.8835 30.9743 40.8835C30.9743 40.848 30.9744 40.8082 30.9744 40.7727Z" fill="white"/>
<path d="M6.85044 3.30895C8.56599 3.30895 10.2815 3.30895 11.9932 3.30895C11.9932 3.33662 11.9932 3.36824 11.9892 3.3959C10.2737 3.3959 8.55812 3.3959 6.84651 3.3959C6.84651 3.36429 6.84651 3.33662 6.85044 3.30895Z" fill="white"/>
<path d="M33.0952 6.88972C31.6276 6.88972 30.1638 6.88994 28.6961 6.88994C28.6961 6.85042 28.6961 6.8109 28.6961 6.77137C30.1598 6.77137 31.6236 6.77137 33.0834 6.77137C33.0873 6.8109 33.0913 6.8502 33.0952 6.88972Z" fill="white"/>
<path d="M35.338 41.4366C33.8822 41.4366 32.4263 41.4369 30.9665 41.4369C30.9665 41.3934 30.9665 41.3539 30.9665 41.3104C32.4184 41.3104 33.8742 41.3104 35.3262 41.3104C35.334 41.3539 35.338 41.3971 35.338 41.4366Z" fill="white"/>
<path d="M30.9626 13.6718C32.4342 13.6718 33.9057 13.6721 35.3734 13.6721C35.3734 13.7116 35.3773 13.7511 35.3773 13.7906C33.9057 13.7906 32.4381 13.7906 30.9665 13.7906C30.9704 13.7511 30.9665 13.7114 30.9626 13.6718Z" fill="white"/>
<path d="M10.3957 29.7893C11.7886 29.7893 13.1775 29.7893 14.5704 29.7893C14.5704 29.8367 14.5744 29.8841 14.5744 29.9276C13.1815 29.9276 11.7886 29.9276 10.3917 29.9276C10.3957 29.8802 10.3957 29.8367 10.3957 29.7893Z" fill="white"/>
<path d="M12.6423 33.9591C14.2982 33.9591 15.6406 33.9255 15.6406 33.8841C15.6406 33.8426 14.2982 33.809 12.6423 33.809C10.9864 33.809 9.64406 33.8426 9.64406 33.8841C9.64406 33.9255 10.9864 33.9591 12.6423 33.9591Z" fill="white"/>
<path d="M22.1842 51.3015C19.5715 51.3015 16.9588 51.3018 14.3461 51.3018C14.3461 51.2702 14.3461 51.2385 14.3461 51.2109C16.9666 51.2109 19.5872 51.2109 22.2077 51.2109C22.2038 51.2385 22.192 51.2699 22.1842 51.3015Z" fill="white"/>
<path d="M10.4075 32.0737C11.8043 32.0737 13.2011 32.0737 14.6019 32.0737C14.6019 32.1172 14.6058 32.1567 14.6058 32.2002C13.2051 32.2002 11.8043 32.2002 10.4035 32.2002C10.4035 32.1567 10.4035 32.1172 10.4075 32.0737Z" fill="white"/>
<path d="M14.7593 33.4056C13.2995 33.4056 11.8397 33.4056 10.3799 33.4056C10.3799 33.374 10.3799 33.3463 10.376 33.3147C11.8358 33.3147 13.2956 33.3147 14.7554 33.3147C14.7593 33.3424 14.7593 33.374 14.7593 33.4056Z" fill="white"/>
<path d="M36.9591 22.4538C34.5511 22.4538 32.1391 22.4538 29.731 22.4538C29.731 22.4301 29.7271 22.4064 29.7271 22.3827C32.1351 22.3827 34.5471 22.3827 36.9552 22.3827C36.9591 22.4064 36.9591 22.4301 36.9591 22.4538Z" fill="white"/>
<path d="M10.3996 31.5362C11.8043 31.5362 13.2051 31.5362 14.6098 31.5362C14.6098 31.5796 14.6137 31.6192 14.6137 31.6626C13.209 31.6626 11.8004 31.6626 10.3957 31.6626C10.3957 31.6192 10.3996 31.5757 10.3996 31.5362Z" fill="white"/>
<path d="M10.3878 30.3663C11.7767 30.3663 13.1618 30.3663 14.5507 30.3663C14.5507 30.4058 14.5547 30.4414 14.5547 30.4809C13.1618 30.4809 11.7689 30.4809 10.376 30.4809C10.3799 30.4453 10.3838 30.4058 10.3878 30.3663Z" fill="white"/>
<path d="M28.9047 48.2227C30.2937 48.2227 31.6826 48.2227 33.0716 48.2227C33.0716 48.2622 33.0755 48.3057 33.0755 48.3452C31.6826 48.3452 30.2858 48.3452 28.8929 48.3452C28.8968 48.3057 28.9008 48.2662 28.9047 48.2227Z" fill="white"/>
<path d="M29.4084 7.94894C30.817 7.94894 32.2217 7.94894 33.6303 7.94894C33.6303 7.98451 33.6303 8.02008 33.6343 8.0596C32.2256 8.0596 30.8209 8.0596 29.4123 8.0596C29.4123 8.02403 29.4084 7.98451 29.4084 7.94894Z" fill="white"/>
<path d="M33.9254 8.62082C32.5286 8.62082 31.1318 8.62082 29.7349 8.62082C29.7349 8.57735 29.7349 8.53387 29.731 8.4904C31.1239 8.4904 32.5168 8.4904 33.9097 8.4904C33.9136 8.53783 33.9176 8.57735 33.9254 8.62082Z" fill="white"/>
<path d="M12.1781 51.8509C10.8442 51.8509 9.51028 51.8511 8.1764 51.8511C8.17246 51.8195 8.17246 51.7879 8.16853 51.7523C9.50634 51.7523 10.8402 51.7523 12.178 51.7523C12.178 51.7879 12.1781 51.8193 12.1781 51.8509Z" fill="white"/>
<path d="M23.6715 51.1514C26.1425 51.1514 28.6135 51.1516 31.0806 51.1516C31.0806 51.1911 31.0806 51.2346 31.0806 51.2741C28.6017 51.2741 26.1228 51.2741 23.6439 51.2741C23.6557 51.2346 23.6636 51.1948 23.6715 51.1514Z" fill="white"/>
<path d="M12.6896 4.60925C11.462 4.60925 10.2343 4.60925 9.01062 4.60925C9.01062 4.56578 9.01062 4.5223 9.01062 4.47883C10.2383 4.47883 11.462 4.47883 12.6896 4.47883C12.6896 4.5223 12.6896 4.56578 12.6896 4.60925Z" fill="white"/>
<path d="M30.8603 37.8598C32.5798 37.8598 34.2992 37.8601 36.0147 37.8601C36.0147 37.8996 36.0147 37.9391 36.0147 37.9786C34.2913 37.9786 32.5679 37.9786 30.8405 37.9786C30.8484 37.9391 30.8524 37.8994 30.8603 37.8598Z" fill="white"/>
<path d="M29.6562 32.706C32.0879 32.706 34.5157 32.706 36.9473 32.706C36.9473 32.7298 36.9473 32.7574 36.9473 32.7811C34.5314 32.7811 32.1194 32.7811 29.7035 32.7811C29.6877 32.7574 29.672 32.7337 29.6562 32.706Z" fill="white"/>
<path d="M10.3288 48.8551C12.6857 48.8551 15.0387 48.8551 17.3956 48.8551C17.3956 48.8788 17.3956 48.9025 17.3956 48.9262C15.0347 48.9262 12.6699 48.9262 10.3091 48.9262C10.317 48.8986 10.3248 48.8748 10.3288 48.8551Z" fill="white"/>
<path d="M29.9868 21.7622C32.261 21.7622 34.5393 21.7622 36.8136 21.7622C36.8136 21.7898 36.8136 21.8215 36.8136 21.8491C34.5393 21.8491 32.261 21.8491 29.9868 21.8491C29.9868 21.8215 29.9868 21.7938 29.9868 21.7622Z" fill="white"/>
<path d="M11.2731 22.8886C12.426 22.8886 13.5789 22.8886 14.7357 22.8886C14.7317 22.9202 14.7317 22.9518 14.7278 22.9834C13.5631 22.9834 12.4024 22.9834 11.2377 22.9834C11.2495 22.9518 11.2613 22.9202 11.2731 22.8886Z" fill="white"/>
<path d="M9.51427 5.03215C10.6239 5.03215 11.7335 5.03215 12.8431 5.03215C12.8431 5.07167 12.8431 5.11515 12.8431 5.15467C11.7335 5.15467 10.6199 5.15467 9.51033 5.15467C9.51033 5.1112 9.51033 5.07167 9.51427 5.03215Z" fill="white"/>
<path d="M10.4783 39.6146C12.6778 39.6146 14.8773 39.6149 17.0768 39.6149C17.0768 39.6386 17.0768 39.6662 17.0807 39.69C14.8891 39.69 12.7014 39.69 10.5097 39.69C10.4979 39.6623 10.4861 39.6384 10.4783 39.6146Z" fill="white"/>
<path d="M16.7621 47.7959C14.6767 47.7959 12.5873 47.7961 10.5018 47.7961C10.5018 47.7645 10.5018 47.7329 10.5018 47.7012C12.5912 47.7012 14.6766 47.7012 16.766 47.7012C16.762 47.7329 16.7621 47.7643 16.7621 47.7959Z" fill="white"/>
<path d="M16.8801 40.2747C14.7396 40.2747 12.5991 40.2747 10.4586 40.2747C10.4586 40.251 10.4586 40.2272 10.4586 40.2035C12.5952 40.2035 14.7317 40.2035 16.8722 40.2035C16.8762 40.2233 16.8762 40.247 16.8801 40.2747Z" fill="white"/>
<path d="M16.6834 14.9682C14.6058 14.9682 12.5243 14.9682 10.4468 14.9682C10.4468 14.9326 10.4468 14.8971 10.4468 14.8615C12.5244 14.8615 14.598 14.8615 16.6755 14.8615C16.6794 14.8971 16.6834 14.9326 16.6834 14.9682Z" fill="white"/>
<path d="M37.5061 25.3232C36.3178 25.3232 35.1294 25.3234 33.9372 25.3234C33.9372 25.2839 33.9372 25.2444 33.9372 25.2048C35.1255 25.2048 36.3138 25.2048 37.506 25.2048C37.506 25.2444 37.5061 25.2837 37.5061 25.3232Z" fill="white"/>
<path d="M16.8841 7.45095C14.7357 7.45095 12.5873 7.45117 10.4428 7.45117C10.4428 7.4235 10.4428 7.39979 10.4428 7.37212C12.5912 7.37212 14.7435 7.37212 16.8919 7.37212C16.8879 7.39979 16.8841 7.42328 16.8841 7.45095Z" fill="white"/>
<path d="M12.8667 50.1356C11.8161 50.1356 10.7655 50.1358 9.71882 50.1358C9.71882 50.0963 9.71488 50.0568 9.71488 50.0133C10.7655 50.0133 11.8121 50.0133 12.8627 50.0133C12.8627 50.0568 12.8667 50.0961 12.8667 50.1356Z" fill="white"/>
<path d="M33.4886 34.5046C35.9573 34.5046 37.9585 34.4816 37.9585 34.4532C37.9585 34.4248 35.9573 34.4018 33.4886 34.4018C31.02 34.4018 29.0188 34.4248 29.0188 34.4532C29.0188 34.4816 31.02 34.5046 33.4886 34.5046Z" fill="white"/>
<path d="M34.5983 29.8209C35.641 29.8209 36.6837 29.8211 37.7264 29.8211C37.7303 29.8567 37.7303 29.8962 37.7342 29.9318C36.6876 29.9318 35.6449 29.9318 34.5982 29.9318C34.5982 29.8922 34.5983 29.8565 34.5983 29.8209Z" fill="white"/>
<path d="M10.738 2.33669C9.75429 2.33669 8.7706 2.33669 7.78691 2.33669C7.78691 2.30112 7.78298 2.26555 7.78298 2.22998C8.76667 2.22998 9.75035 2.22998 10.734 2.22998C10.738 2.26555 10.738 2.30112 10.738 2.33669Z" fill="white"/>
<path d="M33.406 35.1251C35.7942 35.1251 37.7303 35.0968 37.7303 35.0618C37.7303 35.0269 35.7942 34.9986 33.406 34.9986C31.0178 34.9986 29.0817 35.0269 29.0817 35.0618C29.0817 35.0968 31.0178 35.1251 33.406 35.1251Z" fill="white"/>
<path d="M16.5771 47.1912C14.5507 47.1912 12.5283 47.1912 10.5019 47.1912C10.5019 47.1675 10.5019 47.1437 10.5019 47.12C12.5283 47.12 14.5507 47.12 16.5771 47.12C16.5771 47.1437 16.5771 47.1675 16.5771 47.1912Z" fill="white"/>
<path d="M16.1443 13.2371C14.2242 13.2371 12.3079 13.2371 10.3878 13.2371C10.3878 13.2055 10.3878 13.1699 10.3878 13.1383C12.3119 13.1383 14.232 13.1383 16.1561 13.1383C16.1522 13.1739 16.1483 13.2055 16.1443 13.2371Z" fill="white"/>
<path d="M16.4079 14.3754C14.4445 14.3754 12.481 14.3756 10.5136 14.3756C10.5136 14.3479 10.5136 14.3202 10.5136 14.2926C12.4771 14.2926 14.4405 14.2926 16.404 14.2926C16.4079 14.3202 16.4079 14.3477 16.4079 14.3754Z" fill="white"/>
<path d="M10.498 45.966C12.4339 45.966 14.3658 45.966 16.3017 45.966C16.3017 45.9936 16.3017 46.0252 16.3017 46.0529C14.3737 46.0529 12.4417 46.0529 10.5137 46.0529C10.5098 46.0213 10.5019 45.9936 10.498 45.966Z" fill="white"/>
<path d="M35.46 28.0937C36.4043 28.0937 37.3486 28.094 38.293 28.094C38.293 28.1374 38.293 28.1809 38.293 28.2244C37.3447 28.2244 36.3964 28.2244 35.4481 28.2244C35.4521 28.1809 35.4561 28.1372 35.46 28.0937Z" fill="white"/>
<path d="M13.4372 16.6798C15.7689 16.6798 17.6591 16.6568 17.6591 16.6284C17.6591 16.6 15.7689 16.577 13.4372 16.577C11.1054 16.577 9.21517 16.6 9.21517 16.6284C9.21517 16.6568 11.1054 16.6798 13.4372 16.6798Z" fill="white"/>
<path d="M13.9409 50.5546C15.7626 50.5546 17.5883 50.5548 19.4101 50.5548C19.4101 50.5785 19.414 50.6022 19.414 50.6259C17.5962 50.6259 15.7744 50.6259 13.9565 50.6259C13.9526 50.6022 13.9448 50.5783 13.9409 50.5546Z" fill="white"/>
<path d="M13.3545 9.19808C15.6124 9.19808 17.4427 9.17154 17.4427 9.13879C17.4427 9.10605 15.6124 9.07951 13.3545 9.07951C11.0967 9.07951 9.26632 9.10605 9.26632 9.13879C9.26632 9.17154 11.0967 9.19808 13.3545 9.19808Z" fill="white"/>
<path d="M13.3624 42.0179C15.6137 42.0179 17.4388 41.9984 17.4388 41.9744C17.4388 41.9504 15.6137 41.9309 13.3624 41.9309C11.1111 41.9309 9.286 41.9504 9.286 41.9744C9.286 41.9984 11.1111 42.0179 13.3624 42.0179Z" fill="white"/>
<path d="M35.3105 28.6273C36.2391 28.6273 37.1677 28.6273 38.0963 28.6273C38.0963 28.6668 38.1002 28.7103 38.1002 28.7498C37.1677 28.7498 36.2351 28.7498 35.3026 28.7498C35.3026 28.7063 35.3065 28.6668 35.3105 28.6273Z" fill="white"/>
<path d="M16.0145 38.5673C14.1809 38.5673 12.3512 38.5673 10.5176 38.5673C10.5176 38.5396 10.5176 38.5159 10.5176 38.4882C12.363 38.4882 14.2084 38.4882 16.0538 38.4882C16.042 38.5159 16.0263 38.5436 16.0145 38.5673Z" fill="white"/>
<path d="M31.5528 50.6652C29.7074 50.6652 27.862 50.6652 26.0166 50.6652C26.0166 50.6336 26.0166 50.6059 26.0166 50.5743C27.8659 50.5743 29.7113 50.5743 31.5607 50.5743C31.5567 50.6059 31.5567 50.6376 31.5528 50.6652Z" fill="white"/>
<path d="M16.0538 12.6482C14.2006 12.6482 12.3472 12.6484 10.494 12.6484C10.494 12.6168 10.494 12.5891 10.494 12.5575C12.3394 12.5575 14.1887 12.5575 16.0341 12.5575C16.038 12.5891 16.0459 12.6166 16.0538 12.6482Z" fill="white"/>
<path d="M16.0184 10.9052C14.1612 10.9052 12.3079 10.9052 10.4507 10.9052C10.4507 10.8776 10.4507 10.8499 10.4507 10.8222C12.304 10.8222 14.1573 10.8222 16.0105 10.8222C16.0105 10.8499 16.0145 10.8776 16.0184 10.9052Z" fill="white"/>
<path d="M13.2483 43.7371C15.417 43.7371 17.1752 43.7159 17.1752 43.6897C17.1752 43.6635 15.417 43.6422 13.2483 43.6422C11.0795 43.6422 9.32141 43.6635 9.32141 43.6897C9.32141 43.7159 11.0795 43.7371 13.2483 43.7371Z" fill="white"/>
<path d="M30.7029 36.1683C32.5562 36.1683 34.4055 36.1683 36.2588 36.1683C36.2588 36.1959 36.2588 36.2236 36.2588 36.2512C34.4173 36.2512 32.5719 36.2512 30.7304 36.2512C30.7226 36.2196 30.7147 36.1959 30.7029 36.1683Z" fill="white"/>
<path d="M15.9791 45.4759C14.1494 45.4759 12.3197 45.4759 10.4901 45.4759C10.4901 45.4522 10.4901 45.4285 10.4901 45.4047C12.3473 45.4047 14.2045 45.4047 16.0578 45.4047C16.0341 45.4285 16.0066 45.4522 15.9791 45.4759Z" fill="white"/>
<path d="M10.4743 37.8914C12.2292 37.8914 13.9841 37.8917 15.7429 37.8917C15.7429 37.9272 15.7429 37.9628 15.7429 37.9984C13.9998 37.9984 12.2528 37.9984 10.5097 37.9984C10.494 37.9628 10.4862 37.927 10.4743 37.8914Z" fill="white"/>
<path d="M35.2357 26.3666C36.1368 26.3666 37.0418 26.3666 37.9428 26.3666C37.9428 26.4022 37.9468 26.4338 37.9468 26.4693C37.0457 26.4693 36.1407 26.4693 35.2397 26.4693C35.2397 26.4338 35.2357 26.4022 35.2357 26.3666Z" fill="white"/>
<path d="M14.8104 22.4736C13.3428 22.4736 11.8751 22.4736 10.4075 22.4736C10.4075 22.4341 10.4075 22.3985 10.4075 22.359C11.8712 22.359 13.3388 22.359 14.8026 22.359C14.8026 22.3945 14.8065 22.4341 14.8104 22.4736Z" fill="white"/>
<path d="M36.0896 36.8322C34.2953 36.8322 32.4971 36.8322 30.7029 36.8322C30.7029 36.8046 30.7029 36.7769 30.7029 36.7492C32.5011 36.7492 34.2953 36.7492 36.0935 36.7492C36.0896 36.7769 36.0896 36.8046 36.0896 36.8322Z" fill="white"/>
<path d="M37.3526 24.1889C35.6764 24.1889 34.0002 24.1889 32.3201 24.1889C32.3201 24.1533 32.3201 24.1217 32.3201 24.0861C33.9923 24.0861 35.6685 24.0861 37.3408 24.0861C37.3447 24.1177 37.3487 24.1533 37.3526 24.1889Z" fill="white"/>
<path d="M35.3459 13.2766C34.0159 13.2766 32.6899 13.2768 31.3599 13.2768C31.3599 13.2413 31.356 13.2096 31.356 13.1741C32.682 13.1741 34.012 13.1741 35.338 13.1741C35.3458 13.2096 35.3459 13.245 35.3459 13.2766Z" fill="white"/>
<path d="M37.1165 23.5881C35.4364 23.5881 33.7602 23.5881 32.0801 23.5881C32.0801 23.5605 32.0801 23.5288 32.0801 23.5012C33.7602 23.5012 35.4403 23.5012 37.1244 23.5012C37.1205 23.5288 37.1165 23.5605 37.1165 23.5881Z" fill="white"/>
<path d="M30.5337 20.0429C32.2217 20.0429 33.9097 20.0429 35.5977 20.0429C35.5977 20.0666 35.5977 20.0943 35.5977 20.118C33.9176 20.118 32.2374 20.118 30.5534 20.118C30.5455 20.0904 30.5416 20.0666 30.5337 20.0429Z" fill="white"/>
<path d="M35.3656 14.3793C33.9687 14.3793 32.5719 14.3793 31.1751 14.3793C31.1751 14.3437 31.1751 14.3042 31.1751 14.2686C32.5955 14.2686 34.0199 14.2686 35.4403 14.2686C35.4128 14.3042 35.3892 14.3398 35.3656 14.3793Z" fill="white"/>
<path d="M13.0083 18.4188C14.9988 18.4188 16.6125 18.3922 16.6125 18.3595C16.6125 18.3267 14.9988 18.3002 13.0083 18.3002C11.0177 18.3002 9.40404 18.3267 9.40404 18.3595C9.40404 18.3922 11.0177 18.4188 13.0083 18.4188Z" fill="white"/>
<path d="M37.3054 31.0619C35.6213 31.0619 33.9333 31.0619 32.2492 31.0619C32.2492 31.0342 32.2492 31.0026 32.2492 30.9749C33.9373 30.9749 35.6213 30.9749 37.3093 30.9749C37.3054 31.0066 37.3054 31.0342 37.3054 31.0619Z" fill="white"/>
<path d="M15.3377 36.8283C13.7126 36.8283 12.0876 36.8283 10.4625 36.8283C10.4625 36.8006 10.4625 36.769 10.4625 36.7413C12.0915 36.7413 13.7205 36.7413 15.3456 36.7413C15.3416 36.769 15.3377 36.8006 15.3377 36.8283Z" fill="white"/>
<path d="M27.3859 5.6408C29.0346 5.6408 30.6871 5.6408 32.3358 5.6408C32.3358 5.66847 32.3358 5.69613 32.3358 5.72775C30.6871 5.72775 29.0346 5.72775 27.3859 5.72775C27.3859 5.70009 27.3859 5.67242 27.3859 5.6408Z" fill="white"/>
<path d="M35.8968 16.6598C34.2717 16.6598 32.6506 16.6598 31.0255 16.6598C31.0255 16.6361 31.0255 16.6084 31.0255 16.5847C32.6545 16.5847 34.2835 16.5847 35.9125 16.5847C35.9046 16.6123 35.9007 16.6361 35.8968 16.6598Z" fill="white"/>
<path d="M31.0255 38.4724C32.5994 38.4724 34.1733 38.4724 35.7433 38.4724C35.7433 38.4961 35.7433 38.5159 35.7433 38.5396C34.1694 38.5396 32.5955 38.5396 31.0255 38.5396C31.0255 38.5159 31.0255 38.4961 31.0255 38.4724Z" fill="white"/>
<path d="M15.1882 20.118C13.6261 20.118 12.06 20.118 10.498 20.118C10.498 20.0983 10.498 20.0785 10.498 20.0548C12.0601 20.0548 13.6261 20.0548 15.1882 20.0548C15.1882 20.0785 15.1882 20.0983 15.1882 20.118Z" fill="white"/>
<path d="M35.5112 18.4185C33.9609 18.4185 32.4145 18.4185 30.8642 18.4185C30.8642 18.3869 30.8642 18.3593 30.8642 18.3276C32.4381 18.3276 34.0081 18.3276 35.582 18.3276C35.5584 18.3553 35.5348 18.3869 35.5112 18.4185Z" fill="white"/>
<path d="M10.557 36.1643C12.0955 36.1643 13.6378 36.1645 15.1763 36.1645C15.1763 36.1922 15.1763 36.2159 15.1763 36.2436C13.6103 36.2436 12.0482 36.2436 10.4822 36.2436C10.5058 36.2199 10.5334 36.192 10.557 36.1643Z" fill="white"/>
<path d="M31.0334 14.8457C32.5483 14.8457 34.0631 14.8459 35.578 14.8459C35.578 14.8854 35.578 14.921 35.5819 14.9605C34.067 14.9605 32.5522 14.9605 31.0373 14.9605C31.0334 14.921 31.0334 14.8812 31.0334 14.8457Z" fill="white"/>
<path d="M31.0767 39.6265C32.5798 39.6265 34.0868 39.6265 35.5898 39.6265C35.5898 39.6581 35.5898 39.6897 35.5898 39.7174C34.0868 39.7174 32.5798 39.7174 31.0767 39.7174C31.0806 39.6858 31.0806 39.6542 31.0767 39.6265Z" fill="white"/>
<path d="M33.2015 47.8077C31.8715 47.8077 30.5376 47.8077 29.2077 47.8077C29.2077 47.7761 29.2077 47.7445 29.2038 47.7129C30.5337 47.7129 31.8597 47.7129 33.1896 47.7129C33.1936 47.7445 33.1975 47.7761 33.2015 47.8077Z" fill="white"/>
<path d="M35.5308 40.2905C34.0474 40.2905 32.564 40.2907 31.0845 40.2907C31.0845 40.267 31.0845 40.2433 31.0845 40.2235C32.5797 40.2235 34.0749 40.2235 35.5701 40.2235C35.5583 40.2433 35.5426 40.2668 35.5308 40.2905Z" fill="white"/>
<path d="M32.4184 49.5072C30.9154 49.5072 29.4122 49.5074 27.9092 49.5074C27.9092 49.4798 27.9092 49.4481 27.9092 49.4205C29.4122 49.4205 30.9153 49.4205 32.4184 49.4205C32.4223 49.4481 32.4184 49.4795 32.4184 49.5072Z" fill="white"/>
<path d="M13.7284 5.64871C15.2511 5.64871 16.7739 5.64871 18.2966 5.64871C18.2966 5.67242 18.2966 5.70009 18.2966 5.7238C16.7739 5.7238 15.2511 5.7238 13.7284 5.7238C13.7284 5.69613 13.7284 5.67242 13.7284 5.64871Z" fill="white"/>
<path d="M28.5073 48.8511C29.9317 48.8511 31.3561 48.8511 32.7804 48.8511C32.7804 48.8748 32.7804 48.9025 32.7804 48.9262C31.3482 48.9262 29.912 48.9262 28.4798 48.9262C28.4876 48.9025 28.4955 48.8788 28.5073 48.8511Z" fill="white"/>
<path d="M14.9954 35.1169C13.5513 35.1169 12.1072 35.1172 10.6632 35.1172C10.6632 35.0895 10.6632 35.0618 10.6592 35.0381C12.0954 35.0381 13.5316 35.0381 14.9678 35.0381C14.9796 35.0658 14.9875 35.0932 14.9954 35.1169Z" fill="white"/>
<path d="M14.8419 21.861C13.39 21.861 11.9381 21.861 10.4861 21.861C10.4861 21.8333 10.4861 21.8017 10.4861 21.774C11.9341 21.774 13.3782 21.774 14.8262 21.774C14.8301 21.8017 14.834 21.8333 14.8419 21.861Z" fill="white"/>
<path d="M12.7446 34.5283C14.394 34.5283 15.7311 34.5035 15.7311 34.4729C15.7311 34.4424 14.394 34.4176 12.7446 34.4176C11.0953 34.4176 9.75817 34.4424 9.75817 34.4729C9.75817 34.5035 11.0953 34.5283 12.7446 34.5283Z" fill="white"/>
<path d="M12.5518 32.7853C14.186 32.7853 15.5108 32.7676 15.5108 32.7458C15.5108 32.724 14.186 32.7063 12.5518 32.7063C10.9177 32.7063 9.59291 32.724 9.59291 32.7458C9.59291 32.7676 10.9177 32.7853 12.5518 32.7853Z" fill="white"/>
<path d="M31.234 7.45907C32.8747 7.45907 34.2048 7.43607 34.2048 7.40769C34.2048 7.37932 32.8747 7.35631 31.234 7.35631C29.5933 7.35631 28.2633 7.37932 28.2633 7.40769C28.2633 7.43607 29.5933 7.45907 31.234 7.45907Z" fill="white"/>
<path d="M17.7576 49.5033C16.4198 49.5033 15.0819 49.5033 13.7402 49.5033C13.7402 49.4756 13.7402 49.4479 13.7402 49.4242C15.0819 49.4242 16.4237 49.4242 17.7694 49.4242C17.7654 49.4479 17.7615 49.4756 17.7576 49.5033Z" fill="white"/>
<path d="M10.4547 30.9829C11.8082 30.9829 13.1578 30.9829 14.5114 30.9829C14.5114 31.0105 14.5114 31.0342 14.5114 31.0619C13.1578 31.0619 11.8082 31.0619 10.4547 31.0619C10.4586 31.0342 10.4586 31.0066 10.4547 30.9829Z" fill="white"/>
<path d="M29.6799 47.1082C30.9547 47.1082 32.2296 47.1082 33.5005 47.1082C33.5005 47.1358 33.5005 47.1635 33.5005 47.1872C32.2217 47.1872 30.9468 47.1872 29.6681 47.1872C29.672 47.1635 29.6759 47.1358 29.6799 47.1082Z" fill="white"/>
<path d="M12.2214 4.00851C10.9741 4.00851 9.72281 4.00851 8.47549 4.00851C8.47549 3.98084 8.47549 3.95318 8.47549 3.92551C9.73461 3.92551 10.9977 3.92551 12.2568 3.92551C12.245 3.95713 12.2332 3.98084 12.2214 4.00851Z" fill="white"/>
<path d="M31.4111 26.252C31.238 26.3231 31.0688 26.4419 30.8956 26.4577C27.921 26.7107 25.5877 28.169 23.6478 30.3468C23.3134 30.7222 23.097 31.2044 22.8687 31.568C20.8187 27.9635 17.5962 26.3708 13.5355 26.1613C17.3326 25.8649 20.8581 25.0863 22.794 21.0945C24.8755 24.2247 27.9367 25.604 31.415 26.2601L31.4111 26.252ZM17.2735 26.4103C19.5714 27.4339 21.5388 28.5919 22.853 30.7025C24.3797 28.4931 26.5635 27.2798 29.1093 26.3075C26.6933 25.4578 24.7496 24.1733 23.1402 22.2959C21.8339 24.5883 19.8075 25.7107 17.2735 26.4103Z" fill="black"/>
<path d="M19.3944 30.7578C18.1864 30.2045 17.0138 29.5326 15.7547 29.1295C14.2595 28.6512 12.6974 28.3746 11.155 28.0544C9.25845 27.6632 7.58225 26.8174 6.0477 25.6593C5.89424 25.5447 5.69751 25.4894 5.52044 25.4104C5.5952 25.3313 5.66603 25.2523 5.74079 25.1732C6.57889 25.6475 7.41699 26.1218 8.25903 26.5921C10.1556 27.6592 12.3158 27.762 14.354 28.3153C15.6996 28.6828 16.9981 29.248 18.2887 29.7934C18.7294 29.9792 19.0835 30.3705 19.4809 30.6669C19.4495 30.6985 19.4219 30.7262 19.3944 30.7578Z" fill="black"/>
<path d="M15.6957 25.4578C18.1352 24.5922 20.5158 23.6516 22.0897 21.4027C20.7715 24.0429 18.391 25.0072 15.6957 25.4578Z" fill="black"/>
<path d="M24.9463 20.383C24.3049 19.4108 23.636 18.4029 22.9592 17.3754C22.9789 18.5452 24.0059 20.0945 24.9463 20.383Z" fill="black"/>
<path d="M23.2347 48.8316C24.2971 46.9938 26.0559 46.2033 27.98 45.8871C30.2425 45.5156 32.5364 45.3062 34.8265 45.156C38.9304 44.8872 42.5661 43.6778 44.805 39.9587C46.67 36.8641 47.2366 33.5402 45.5368 30.1333C45.1552 29.3705 44.6122 28.6868 44.262 27.8331C44.4666 28.0307 44.6869 28.2165 44.8719 28.4299C46.9848 30.8526 47.2288 33.6983 46.5795 36.6744C45.4267 41.9546 41.3424 44.8912 36.2587 45.3971C34.1418 45.6065 32.0092 45.6856 29.9001 45.9385C27.4213 46.2389 25.0329 46.8475 23.2347 48.8316Z" fill="black"/>
<path d="M19.6698 42.417C18.8317 41.9625 18.454 41.2709 18.5759 40.3223C18.9419 41.0219 19.3039 41.7175 19.6698 42.417Z" fill="black"/>
<path d="M40.9765 14.8657C37.5611 11.4548 32.6427 10.9015 27.8501 13.4824C28.5741 12.19 31.3875 11.1782 33.9726 11.4904C36.664 11.8145 39.375 12.2453 40.9765 14.8657Z" fill="black"/>
<path d="M40.9883 12.763C43.1248 14.1621 43.715 17.9642 42.2277 19.9562C41.1221 21.4383 38.9186 21.8217 37.3762 20.6913C37.8483 20.7664 38.2064 20.8217 38.5605 20.881C40.7915 21.2723 42.4638 19.9562 42.6369 17.6797C42.755 16.1225 42.4441 14.6957 41.4526 13.4547C41.2794 13.2413 41.1457 12.9962 40.9883 12.763Z" fill="black"/>
<path d="M25.5483 11.3363C22.1998 10.1506 21.3932 10.3838 18.6586 13.4942C19.0088 11.7592 20.1577 10.9687 21.5821 10.5577C23.0025 10.1466 24.3994 10.2296 25.5483 11.3363Z" fill="black"/>
<path d="M4.31247 32.9948C2.25067 35.8681 3.13992 38.4094 5.08368 40.931C3.32879 40.1168 2.48675 37.3463 2.84088 35.1923C2.9904 34.2674 3.23435 33.3465 4.31247 32.9948Z" fill="black"/>
<path d="M5.74472 35.6112C6.81891 36.0894 7.79079 36.0815 8.5502 35.1053C9.32141 34.1133 8.62889 33.145 8.381 32.1055C9.5693 33.062 9.37256 34.8879 8.75481 35.5559C7.8931 36.4807 6.68906 36.5479 5.74472 35.6112Z" fill="black"/>
<path d="M5.96113 3.2657C5.96113 3.2657 6.80317 2.13534 8.16459 1.85473C9.52602 1.57412 10.8678 1.94168 11.816 2.85466C12.7643 3.76764 13.3073 4.85056 13.3073 4.85056L14.2359 4.1352C14.2359 4.1352 15.0779 3.0918 16.8958 2.09582C17.9975 1.57412 18.7097 1.13937 20.201 0.858756C21.6923 0.578144 22.4281 0.487241 24.1161 0.64138C25.8041 0.79552 27.2717 1.22632 28.3302 1.83497C29.3886 2.44362 29.4752 2.24601 32.0918 4.6569L33.7995 7.34841L34.5353 8.99256L31.478 9.02022L29.3453 8.70009L28.9991 7.74364L28.279 6.84647L27.2835 6.02044L26.0874 5.29717L24.5017 4.87823L23.5062 4.54624L22.7035 4.34467L21.0194 4.58971L19.3786 5.41574L18.1667 6.53028L17.0138 8.10725L16.6833 9.19413L16.5692 11.0477L16.3685 12.6089L16.6007 13.7234L17.1043 14.838L17.3365 15.9091L16.3843 17.4702L15.5619 19.7862L15.2589 22.1616L14.9402 23.2603L13.024 23.4184L11.6705 23.2287L10.8205 23.0706L10.2028 22.6082L10.1162 19.4977L10.1595 14.9526L10.1438 13.3756L10.2146 12.1149L10.1556 9.73954L10.0848 7.39583L9.79751 6.17853L9.43552 5.32484L8.82957 4.60157L8.06229 3.98501L6.53561 3.57793L5.96113 3.2657Z" fill="white"/>
<path d="M10.2382 29.2796L14.7317 29.4535L15.0504 31.1333L15.3376 33.6232L15.8255 36.7495L16.3449 38.3976L17.4388 39.8718L16.9509 41.346L16.5181 42.8518L16.6046 45.1085L16.7778 46.9305L17.5844 48.6656L18.5051 49.7367L19.8311 50.5746L20.5787 50.8631L21.4995 50.95H22.5658L23.2583 51.0093L24.8125 50.8631L26.2251 50.2544L27.1773 49.705L27.9249 49.0094L28.645 48.3138L29.1643 47.476L29.6247 46.812L31.297 46.6974L33.7759 46.6381H34.2087L33.4296 48.8672L31.7298 51.2109L30.1756 52.772L27.9288 54.1039L25.8828 54.598L23.4629 54.8865L21.043 54.8588L19.2566 54.5387L17.8441 54.0486L16.5181 53.2107L15.5383 52.5744L14.4995 51.6496L13.5473 50.6062L12.5086 51.9381L11.5878 53.2107L10.3208 53.9933L8.90826 54.0209L7.69636 53.6139L6.42937 52.689L5.88244 52.3136C5.88244 52.3136 7.84194 51.9381 8.73513 51.2425L9.71488 49.5074L10.1753 47.9463L10.2028 44.8793L10.1438 41.2906L10.2579 36.1961L10.1989 33.4453L10.1713 31.2163L10.2382 29.2796Z" fill="white"/>
<path d="M30.8012 41.5673L33.1502 41.9586L35.094 41.8993L35.7551 41.757L36.2744 38.8323L36.9945 35.0539L37.5847 32.3071L37.8759 30.5839L38.293 29.4259L38.651 28.4141L38.5212 27.1968L37.9192 25.027L37.4549 23.3631L37.2385 21.798L36.9079 21.1616L36.1721 20.3672L35.7983 19.2962L35.8849 18.5294L36.2154 17.6164L36.4908 17.241L36.1171 15.4466L35.9282 14.4032L35.7432 13.1899L35.5819 12.8974L33.1896 12.6682L30.8012 13.016L30.7146 13.6642L30.7855 14.4467L30.7579 15.8221L30.6281 17.3714L30.4667 18.7587L30.0929 20.2645L29.6168 21.8731L29.243 22.9718L29.9356 23.0864L31.175 23.2761L31.8951 23.782L32.0406 24.7661L32.6151 25.3313L33.3627 25.6198L34.3858 25.8372L34.9209 26.4735L35.2357 27.5288L35.338 28.2086L34.9799 29.1492L34.2441 29.6274L32.5876 29.8764L32.0249 30.0029L32.0092 30.9436L31.6787 31.7142L31.0294 32.4217L29.3021 32.5087L29.8214 34.0856L30.2385 35.793L30.4982 37.1684L30.6556 38.4568L30.813 39.773L30.8287 40.5713L30.8012 41.5673Z" fill="white"/>
</svg>
