<svg width="21" height="21" viewBox="0 0 21 21" fill="none" xmlns="http://www.w3.org/2000/svg">
<path d="M15.7321 19.6155H1.45993V5.76935H8.59603V4.38474H1.45993C1.08153 4.3851 0.718729 4.5311 0.451155 4.79068C0.183581 5.05027 0.0330927 5.40224 0.0327148 5.76935V19.6155C0.0330927 19.9826 0.183581 20.3346 0.451155 20.5942C0.718729 20.8538 1.08153 20.9998 1.45993 21.0001H15.7321C16.1105 20.9998 16.4733 20.8538 16.7409 20.5942C17.0085 20.3346 17.159 19.9826 17.1593 19.6155V12.6924H15.7321V19.6155Z" fill="white"/>
<path d="M10.132 11.0277L17.7369 2.86918M17.7369 2.86918L18.1555 8.79779M17.7369 2.86918L11.6147 3.05944" stroke="white" stroke-linecap="round" stroke-linejoin="round"/>
</svg>
