<svg width="130" height="60" viewBox="0 0 130 60" fill="none" xmlns="http://www.w3.org/2000/svg">
<path d="M29.7355 54.5347L27.4572 57.3463L25.1789 54.5347H23.8392V59.8561H25.032V56.1537L27.3955 59.0045H27.4572L29.8207 56.1537V59.8561H31.0516V54.5347H29.7355Z" fill="white"/>
<path d="M37.3695 54.5347V59.8561H42.9191V58.8362H38.5931V57.6654H42.142V56.647H38.5931V55.5531H42.8427V54.5347H37.3695Z" fill="white"/>
<path d="M55.048 57.1954C55.048 58.8522 53.748 59.8561 51.715 59.8561H48.8521V54.5347H51.715C53.748 54.5347 55.048 55.5372 55.048 57.1954ZM53.7936 57.1954C53.7936 56.1001 52.9166 55.5691 51.6225 55.5691H50.0831V58.8232H51.6225C52.9166 58.8217 53.7936 58.2893 53.7936 57.1954Z" fill="white"/>
<path d="M66.5703 58.8362V59.8547H61.0207V54.5347H66.4924V55.5531H62.2443V56.647H65.7917V57.6654H62.2443V58.8362H66.5703Z" fill="white"/>
<path d="M77.5446 58.8058V59.8561H72.5033V54.5347H73.7342V58.8058H77.5446Z" fill="white"/>
<path d="M88.3192 58.8058V59.8561H83.2779V54.5347H84.5088V58.8058H88.3192Z" fill="white"/>
<path d="M94.784 53.9253H93.86L94.9911 52.7009H96.5687L94.784 53.9253ZM94.0524 54.5347H95.2834V59.8561H94.0524V54.5347Z" fill="white"/>
<path d="M107.737 54.5347V59.8561H106.66L102.795 56.0087V59.8561H101.603V54.5347H102.912L106.544 58.1834V54.5347H107.737Z" fill="white"/>
<path d="M88.3427 38.9084C86.862 41.8999 83.4262 43.9948 79.4234 43.9948C74.0692 43.9948 69.727 40.2445 69.727 35.6151C69.727 30.9871 74.0692 27.2354 79.4234 27.2354C82.7505 27.2354 85.6869 28.6833 87.4334 30.8914L84.4133 32.4771C84.0872 31.1815 83.2514 30.0586 82.0792 29.3942C80.152 28.3017 77.8693 28.1291 75.9406 29.1432C72.7633 30.8116 71.7497 35.0609 73.674 38.6371C75.5998 42.2118 79.7348 43.7583 82.9121 42.0899C84.2312 41.3964 85.1786 40.2576 85.6957 38.9084H88.3427Z" fill="white"/>
<path d="M109.553 27.5357H105.917C106.319 29.1258 106.524 30.7579 106.524 32.3973V38.8329C106.524 40.4723 106.321 42.1044 105.917 43.6945H109.553C109.15 42.1044 108.946 40.4723 108.946 38.8329V32.3958C108.946 30.7579 109.15 29.1258 109.553 27.5357Z" fill="white"/>
<path d="M109.553 26.3388L111.873 24.5428C110.12 25.4336 108.226 26.0255 106.271 26.291L105.915 26.3388H109.553Z" fill="white"/>
<path d="M121.3 27.5357H118.554C118.933 28.2394 118.933 29.0823 118.554 29.7859L111.066 43.6945H113.044C113.498 42.103 114.124 40.5637 114.91 39.1042L117.272 34.7171H122.419L124.781 39.1042C125.567 40.5637 126.193 42.103 126.646 43.6945H130L121.3 27.5357ZM117.918 33.5202L119.847 29.9353L121.777 33.5202H117.918Z" fill="white"/>
<path d="M104.098 43.6959H100.463L100.464 43.6916C100.865 42.1044 101.068 40.4738 101.068 38.8373V34.7171H92.585V38.8329C92.585 40.4723 92.7891 42.1044 93.1916 43.6959H89.5546C89.9571 42.1059 90.1612 40.4723 90.1612 38.8329V32.3973C90.1612 30.7579 89.9571 29.1258 89.5546 27.5343H93.1916C92.7891 29.1243 92.585 30.7579 92.585 32.3973V33.5202H101.068V32.3929C101.068 30.7564 100.865 29.1258 100.464 27.5386L100.463 27.5343H104.098C103.696 29.1243 103.492 30.7579 103.492 32.3973V38.8329C103.492 40.4723 103.696 42.1059 104.098 43.6959Z" fill="white"/>
<path d="M46.0934 43.6959H42.4579L42.4593 43.6916C42.8603 42.1044 43.063 40.4738 43.063 38.8373V34.7171H34.58V38.8373C34.58 40.4738 34.7827 42.1044 35.1837 43.6916L35.1852 43.6959H31.5496C31.9521 42.1059 32.1563 40.4723 32.1563 38.8329V32.3973C32.1563 30.7579 31.9521 29.1258 31.5496 27.5343H35.1852L35.1837 27.5386C34.7827 29.1258 34.58 30.7564 34.58 32.3929V33.5202H43.063V32.3929C43.063 30.7564 42.8603 29.1258 42.4593 27.5386L42.4579 27.5343H46.0934C45.691 29.1243 45.4868 30.7579 45.4868 32.3973V38.8329C45.4868 40.4723 45.691 42.1059 46.0934 43.6959Z" fill="white"/>
<path d="M50.9409 42.499V34.7185H55.9294C57.0164 34.7185 58.0975 34.8694 59.1419 35.1668L60.0306 33.5202H50.9409V28.7326H56.0572C58.0035 28.7326 59.9454 28.9328 61.8492 29.3318L60.5286 27.5357H47.912C48.3145 29.1258 48.5186 30.7579 48.5186 32.3973V38.8344C48.5186 40.4737 48.3145 42.1059 47.912 43.6959H60.5286L61.8492 41.8999C59.9454 42.2974 58.0035 42.499 56.0572 42.499H50.9409Z" fill="white"/>
<path d="M15.318 41.8999H15.3194L13.9989 43.6959H0L11.0067 28.7326H6.5661C4.61977 28.7326 2.67932 28.9328 0.775593 29.3318L2.09616 27.5357H14.8846L3.8765 42.4976H9.52893C11.4738 42.4976 13.4142 42.2974 15.318 41.8999Z" fill="white"/>
<path d="M29.7311 27.5357C29.3286 29.1258 29.1244 30.7579 29.1244 32.3958V38.608C29.1244 41.5836 26.4098 43.9948 23.0636 43.9948C19.7174 43.9948 17.0043 41.5836 17.0043 38.608V32.3958C17.0043 30.7579 16.8001 29.1243 16.3976 27.5357H20.0347C19.6322 29.1258 19.428 30.7579 19.428 32.3958V38.5254C19.428 40.8742 21.3744 42.8414 23.7525 42.7964C26.0573 42.7529 27.9125 40.893 27.9125 38.608V32.3958C27.9125 30.7579 27.7084 29.1243 27.3059 27.5357H29.7311Z" fill="white"/>
<path d="M75.3133 11.6715H73.533C72.7927 13.2398 71.5191 14.5788 69.8019 15.3956C66.7554 16.8435 63.1697 16.1587 60.8591 13.9129L71.8188 3.46155C72.0332 3.7314 72.2301 4.01865 72.4093 4.32331L73.0982 5.50424L74.667 4.00704C74.2175 3.37305 73.6725 2.79565 73.0497 2.28787L75.447 0H56.6976V8.37968C56.6976 10.5007 57.6098 12.4375 59.114 13.9129L56.1306 16.7579H75.3133V11.6715ZM73.0747 0.599171L72.0523 1.57554C71.4207 1.18238 70.7318 0.853056 69.9988 0.599171H73.0747ZM58.5147 0.599171H62.7893C61.0633 1.19689 59.5841 2.20953 58.5147 3.49637V0.599171ZM59.5312 12.201C57.3528 8.37823 58.7967 3.5573 62.6953 1.51026C62.7658 1.47399 62.8363 1.43772 62.9068 1.4029C65.6405 0.0681865 68.8398 0.639792 70.9932 2.58383L60.0644 13.0077C59.872 12.7523 59.6928 12.4839 59.5312 12.201ZM58.5029 16.1602L60.0321 14.7022C60.8444 15.3129 61.7742 15.8091 62.7907 16.1602H58.5029ZM69.9973 16.1602C71.3384 15.6959 72.5297 14.9807 73.4963 14.0812V16.1602H69.9973Z" fill="white"/>
</svg>
